{"glyphs":{"0":{"ha":883,"x_min":56,"x_max":828,"o":"m 418 -19 q 217 36 297 -19 q 96 196 136 92 q 56 449 56 301 q 106 745 56 624 q 248 929 157 866 q 458 992 338 992 q 655 944 572 992 q 783 798 738 897 q 828 540 828 698 q 778 234 828 358 q 636 45 728 109 q 418 -19 544 -19 m 428 194 q 478 252 455 219 q 517 322 501 286 q 635 260 601 266 q 683 283 669 254 q 689 317 692 300 q 654 358 685 335 q 553 414 624 381 q 567 460 561 438 q 578 503 573 481 q 682 485 647 489 q 730 490 717 482 q 746 519 742 499 q 740 555 749 541 q 696 576 730 568 q 593 592 663 585 q 595 738 601 666 q 549 854 590 810 q 529 871 540 864 q 508 882 519 878 q 487 891 498 888 q 464 894 476 894 q 439 896 456 896 q 419 894 423 896 q 398 892 408 894 q 376 886 387 890 q 356 879 366 883 q 336 868 346 874 q 255 794 290 842 q 197 681 219 745 q 190 656 193 668 q 183 629 187 643 q 175 590 179 610 q 169 549 172 569 q 168 521 169 535 q 165 492 167 506 q 165 470 165 481 q 165 447 165 459 q 166 417 165 432 q 168 389 167 403 q 190 260 174 314 q 236 178 207 207 q 254 163 244 169 q 274 153 263 157 q 291 148 282 150 q 310 146 301 146 q 332 148 317 146 q 354 151 347 149 q 373 158 364 153 q 390 167 382 162 q 410 179 401 172 q 428 194 419 186 m 381 419 q 326 448 347 419 q 306 513 306 477 q 330 568 306 547 q 388 589 353 589 q 449 567 423 589 q 475 510 475 544 q 448 447 475 474 q 381 419 420 419 m 215 944 q 270 872 247 903 q 319 804 294 842 q 359 727 356 752 q 340 688 361 702 q 292 686 321 673 q 226 744 263 700 q 175 810 199 779 q 122 883 151 842 q 87 958 89 931 q 107 1000 85 985 q 154 1003 128 1015 q 215 944 180 992 m 126 260 q 151 284 139 272 q 175 308 163 297 q 196 329 186 319 q 256 370 235 365 q 296 356 277 376 q 307 315 314 338 q 268 260 299 292 q 235 226 253 244 q 196 189 216 208 q 152 163 173 167 q 114 175 131 158 q 101 218 94 196 q 126 260 107 241 z "},"1":{"ha":657,"x_min":28,"x_max":631,"o":"m 425 908 q 426 738 425 823 q 426 568 426 653 q 426 552 426 560 q 426 536 426 544 q 426 521 426 528 q 426 495 426 508 q 426 468 426 482 q 426 443 426 456 q 426 418 426 431 q 426 390 426 403 q 426 361 426 376 q 426 343 426 352 q 426 326 426 335 q 426 308 426 317 q 441 269 426 281 q 479 255 456 258 q 528 249 502 252 q 578 235 555 246 q 616 197 601 224 q 631 118 631 170 q 603 34 631 69 q 521 -6 575 -1 q 494 -7 508 -6 q 468 -8 481 -8 q 475 94 484 67 q 442 121 467 121 q 414 111 426 121 q 393 74 402 102 q 381 -12 385 45 q 342 -15 361 -14 q 304 -17 324 -16 q 281 123 293 88 q 243 158 268 158 q 202 118 205 158 q 224 -21 199 77 q 193 -23 208 -22 q 163 -25 178 -24 q 62 8 97 -28 q 28 103 28 44 q 48 184 28 156 q 99 225 67 212 q 165 242 130 238 q 232 252 201 247 q 283 270 263 257 q 303 313 303 283 q 303 411 303 362 q 304 508 303 460 q 305 537 305 524 q 305 560 305 549 q 305 581 305 571 q 306 601 306 590 q 307 647 306 622 q 308 696 307 672 q 308 716 308 706 q 308 735 308 726 q 308 759 308 747 q 308 782 308 771 q 296 836 309 823 q 257 844 283 849 q 196 822 232 838 q 123 800 153 804 q 76 810 92 797 q 60 856 60 823 q 71 892 60 874 q 106 919 82 910 q 216 961 174 945 q 283 985 258 977 q 324 997 308 994 q 354 1001 340 1001 q 408 978 391 1001 q 425 908 425 954 m 146 315 q 94 336 114 315 q 74 383 74 358 q 95 447 74 421 q 146 472 116 472 q 197 448 176 472 q 218 393 218 424 q 198 338 218 361 q 146 315 178 315 m 367 678 l 375 572 q 250 566 294 566 q 189 576 206 567 q 171 607 172 585 q 185 641 169 627 q 243 663 201 654 q 367 678 286 672 m 357 932 q 357 932 357 932 q 357 932 357 932 q 357 932 357 932 q 357 932 357 932 q 357 932 357 932 q 357 932 357 932 q 357 932 357 932 q 357 932 357 932 m 382 699 l 369 799 q 404 786 395 801 q 413 742 413 772 q 406 711 413 722 q 382 699 398 701 m 150 167 q 150 167 150 167 q 150 167 150 167 q 150 167 150 167 q 150 167 150 167 q 150 167 150 167 q 150 167 150 167 q 150 167 150 167 q 150 167 150 167 z "},"2":{"ha":711,"x_min":35,"x_max":669,"o":"m 547 717 q 525 806 547 763 q 459 876 503 849 q 344 904 414 904 q 219 864 265 904 q 174 760 174 824 q 202 676 174 710 q 289 642 231 642 q 334 653 315 642 q 353 688 353 665 q 339 721 353 714 q 306 729 325 728 q 274 739 288 731 q 260 775 260 747 q 277 813 260 797 q 328 829 294 829 q 418 795 379 829 q 457 697 457 762 q 406 588 457 631 q 274 544 355 544 q 119 604 169 544 q 69 751 69 664 q 104 880 69 824 q 204 969 139 937 q 360 1001 269 1001 q 529 962 462 1001 q 629 860 596 923 q 663 729 663 798 q 635 593 663 652 q 564 490 608 534 q 466 413 519 444 q 364 359 414 381 q 273 317 313 336 q 210 275 232 297 q 201 258 201 267 q 225 240 203 239 q 292 249 247 242 q 301 128 288 157 q 339 99 315 99 q 364 111 353 99 q 378 160 374 124 q 378 264 383 195 q 417 270 398 267 q 456 276 436 274 q 469 135 459 172 q 508 99 478 99 q 549 141 543 99 q 536 290 554 184 q 608 278 578 297 q 653 224 638 260 q 669 144 669 188 q 629 24 669 64 q 604 4 618 13 q 573 -10 590 -5 q 536 -18 556 -15 q 494 -21 516 -21 q 362 -19 425 -21 q 245 -10 299 -17 q 149 13 192 -3 q 79 56 107 28 q 46 109 58 78 q 35 181 35 140 q 50 257 35 222 q 93 318 66 291 q 178 380 128 353 q 281 429 227 406 q 387 481 335 453 q 478 549 438 509 q 529 622 510 581 q 547 717 547 663 m 569 871 l 490 942 q 563 1013 535 990 q 606 1038 590 1035 q 638 1028 623 1041 q 645 976 658 1009 q 569 871 633 944 m 414 968 l 308 975 q 323 1085 315 1047 q 344 1136 331 1123 q 379 1149 357 1150 q 418 1110 410 1147 q 414 968 426 1074 m 238 950 l 161 890 q 94 992 108 958 q 103 1044 80 1026 q 161 1039 130 1065 q 238 950 193 1013 m 433 35 q 426 38 427 35 q 425 46 425 41 q 425 51 425 49 q 425 54 425 52 q 427 54 425 54 q 435 54 430 54 q 440 54 438 54 q 442 54 442 54 q 442 51 442 52 q 442 47 442 49 q 440 38 442 41 q 433 35 439 35 m 331 7 q 310 15 318 7 q 299 36 303 23 q 296 63 296 49 l 361 58 q 352 19 361 31 q 331 7 343 7 m 528 -4 q 493 9 506 -4 q 479 43 479 22 l 571 44 q 565 16 571 26 q 549 0 559 5 q 528 -4 540 -4 m 246 926 q 246 926 246 926 q 246 926 246 926 q 246 926 246 926 q 246 926 246 926 q 246 926 246 926 q 246 926 246 926 q 246 926 246 926 q 246 926 246 926 m 400 938 q 400 938 400 938 q 400 938 400 938 q 400 938 400 938 q 400 938 400 938 q 400 938 400 938 q 400 938 400 938 q 400 938 400 938 q 400 938 400 938 m 535 861 q 535 861 535 861 q 535 861 535 861 q 535 861 535 861 q 535 861 535 861 q 535 861 535 861 q 535 861 535 861 q 535 861 535 861 q 535 861 535 861 z "},"3":{"ha":679,"x_min":36,"x_max":652,"o":"m 319 -17 q 175 1 240 -17 q 74 56 111 19 q 36 151 36 93 q 74 248 36 213 q 164 282 112 282 q 197 279 181 282 q 228 271 213 276 q 260 260 244 266 q 292 249 276 254 q 341 234 315 240 q 394 228 367 228 q 452 245 433 228 q 471 292 471 263 q 441 346 471 324 q 362 383 411 367 q 256 413 313 398 q 204 440 220 422 q 188 481 188 458 q 202 527 188 506 q 241 570 216 548 q 296 619 265 592 q 353 670 331 650 q 375 703 375 690 q 368 715 375 710 q 347 721 362 720 q 245 729 297 725 q 142 738 193 733 q 86 759 108 741 q 54 803 65 776 q 44 860 44 830 q 63 940 44 902 q 118 998 82 978 q 207 1008 155 1019 q 229 1003 218 1006 q 251 997 240 1001 q 212 858 210 897 q 242 813 214 819 q 293 839 274 806 q 336 975 311 872 q 376 965 356 970 q 417 953 397 959 q 399 871 401 901 q 406 827 397 841 q 428 811 414 813 q 457 818 444 809 q 480 854 469 827 q 500 932 490 881 q 533 925 516 928 q 565 917 549 921 q 631 881 609 906 q 652 826 652 857 q 633 765 652 796 q 578 707 615 733 q 465 627 522 667 q 351 546 408 587 q 334 531 340 538 q 328 515 328 524 q 350 495 328 503 q 408 478 372 487 q 483 457 443 470 q 558 419 522 443 q 615 358 593 396 q 638 261 638 319 q 597 111 638 174 q 485 16 557 49 q 319 -17 414 -17 m 176 89 q 216 104 201 89 q 232 143 232 119 q 218 185 232 167 q 181 203 205 203 q 137 186 157 203 q 117 146 117 170 q 135 106 117 122 q 176 89 153 89 m 351 54 q 387 71 376 54 q 399 111 399 88 q 385 148 399 133 q 349 163 371 163 q 310 148 324 163 q 297 111 297 133 q 313 71 297 88 q 351 54 328 54 m 267 428 q 220 449 241 428 q 199 500 199 471 q 216 536 199 523 q 258 550 233 550 q 304 539 285 550 q 324 500 324 528 q 308 447 324 467 q 267 428 293 428 z "},"4":{"ha":815,"x_min":22,"x_max":792,"o":"m 482 657 q 501 711 483 693 q 540 728 519 728 q 580 711 562 728 q 599 660 597 694 q 604 468 602 564 q 608 274 606 372 q 619 235 610 248 q 644 214 628 223 q 681 197 663 204 q 718 179 700 189 q 772 131 753 160 q 790 71 790 101 q 766 9 790 36 q 688 -17 741 -17 q 665 -16 676 -16 q 643 -15 654 -16 q 662 60 656 26 q 660 115 668 94 q 624 135 653 135 q 582 101 596 135 q 563 -17 568 67 q 521 -15 542 -16 q 479 -14 500 -15 q 467 71 475 42 q 449 110 460 100 q 424 119 438 119 q 384 80 388 119 q 392 -14 381 40 q 363 -14 378 -14 q 335 -14 349 -14 q 265 11 288 -13 q 241 70 241 36 q 267 139 241 105 q 344 194 294 174 q 385 209 365 203 q 426 224 406 216 q 470 246 459 236 q 482 288 481 256 q 482 472 483 380 q 482 657 481 565 m 182 336 q 58 368 94 342 q 22 440 22 394 q 25 469 22 453 q 35 512 28 485 q 57 586 43 539 q 180 557 146 555 q 221 583 214 560 q 202 628 228 608 q 83 675 175 649 q 95 717 90 697 q 108 760 101 738 q 205 732 171 738 q 255 733 240 726 q 274 757 269 740 q 253 806 281 785 q 133 846 225 826 q 166 935 149 899 q 208 989 184 971 q 267 1007 232 1007 q 352 973 326 1007 q 371 892 378 940 q 366 860 369 878 q 361 823 364 842 q 354 786 358 804 q 346 742 350 765 q 339 696 342 719 q 332 645 336 674 q 324 596 327 617 q 315 548 319 574 q 307 499 310 522 q 316 447 303 465 q 382 433 330 430 q 546 447 464 439 q 710 461 628 456 q 756 453 738 463 q 783 425 774 442 q 792 387 792 407 q 774 333 792 358 q 718 310 755 308 q 450 322 584 315 q 182 336 316 328 m 708 383 q 708 383 708 383 q 708 383 708 383 q 708 383 708 383 q 708 383 708 383 q 708 383 708 383 q 708 383 708 383 q 708 383 708 383 q 708 383 708 383 m 549 788 q 480 809 506 788 q 454 867 454 831 q 481 931 454 906 q 542 956 508 956 q 602 931 577 956 q 626 869 626 906 q 607 812 626 836 q 549 788 588 788 m 264 889 q 264 889 264 889 q 264 889 264 889 q 264 889 264 889 q 264 889 264 889 q 264 889 264 889 q 264 889 264 889 q 264 889 264 889 q 264 889 264 889 q 264 889 264 889 q 264 889 264 889 q 264 889 264 889 q 264 889 264 889 m 282 654 q 282 654 282 654 q 282 654 282 654 q 282 654 282 654 q 282 654 282 654 q 282 654 282 654 q 282 654 282 654 q 282 654 282 654 q 282 654 282 654 q 282 654 282 654 q 282 654 282 654 q 282 654 282 654 q 282 654 282 654 z "},"5":{"ha":703,"x_min":32,"x_max":694,"o":"m 63 526 q 74 670 67 599 q 88 814 80 742 q 106 901 94 870 q 151 946 119 932 q 247 967 183 960 q 346 976 297 972 q 444 983 396 981 q 568 952 528 989 q 608 844 608 915 q 575 734 608 776 q 482 690 542 692 q 372 691 426 690 q 263 690 318 692 q 219 673 229 690 q 214 626 209 657 q 221 586 218 601 q 227 564 224 572 q 233 551 230 556 q 240 543 236 547 q 289 528 252 531 q 376 519 326 524 q 478 498 426 514 q 568 443 529 481 q 611 381 595 417 q 628 288 628 344 q 587 137 628 198 q 478 45 547 76 q 325 14 409 14 q 227 22 278 14 q 132 45 176 30 q 60 83 88 60 q 32 135 32 106 q 45 172 32 158 q 85 186 59 186 q 128 176 108 186 q 173 152 148 165 q 236 128 199 139 q 333 118 274 118 q 468 156 429 118 q 507 256 507 194 q 463 348 507 316 q 346 391 419 380 q 182 403 272 403 q 106 416 133 403 q 69 457 79 430 q 63 526 60 485 m 443 786 q 488 803 468 786 q 507 846 507 821 q 488 886 507 869 q 444 903 469 903 q 403 887 419 903 q 388 846 388 871 q 401 803 388 821 q 443 786 415 786 m 246 776 q 283 791 267 776 q 300 828 300 806 q 286 866 300 847 q 247 885 272 885 q 211 868 226 885 q 196 829 196 852 q 208 792 196 808 q 246 776 221 776 m 161 746 q 161 746 161 746 q 161 746 161 746 q 161 746 161 746 q 161 746 161 746 q 161 746 161 746 q 161 746 161 746 q 161 746 161 746 q 161 746 161 746 m 153 649 q 179 640 172 649 q 186 611 186 632 q 177 580 186 588 q 151 572 167 572 q 147 572 149 572 q 142 572 144 572 q 138 572 140 572 q 113 582 122 572 q 103 613 103 591 q 114 642 103 635 q 140 649 125 649 q 144 649 142 649 q 149 649 147 649 q 153 649 151 649 m 118 -35 q 136 12 126 -12 q 158 64 146 36 q 183 97 168 86 q 213 106 198 107 q 239 91 228 105 q 244 51 250 76 q 231 -8 238 19 q 215 -64 225 -35 q 187 -108 205 -94 q 144 -115 169 -122 q 115 -86 122 -109 q 118 -35 108 -62 m 386 -53 q 335 84 363 12 q 285 217 308 156 q 279 274 272 254 q 301 300 286 294 q 342 298 320 308 q 381 244 363 288 q 432 114 405 183 q 485 -22 460 44 q 493 -82 499 -58 q 463 -112 487 -107 q 419 -102 440 -117 q 386 -53 399 -87 m 593 69 q 565 91 578 81 q 538 114 552 101 q 519 154 517 132 q 539 189 522 176 q 563 197 549 197 q 592 186 576 196 q 623 168 610 176 q 653 149 636 160 q 686 110 678 131 q 683 69 694 88 q 646 50 672 51 q 593 69 620 49 m 497 90 q 492 94 495 92 q 488 97 490 95 q 472 123 475 107 q 478 154 469 138 q 510 183 492 178 q 543 176 528 188 q 550 169 548 172 q 554 165 552 167 q 567 136 568 153 q 553 104 565 119 q 527 85 543 91 q 497 90 512 80 z "},"6":{"ha":749,"x_min":47,"x_max":715,"o":"m 300 226 q 306 226 303 226 q 311 226 308 226 q 321 132 313 164 q 341 90 328 100 q 369 81 353 79 q 395 94 385 82 q 406 140 405 106 q 393 239 406 174 q 425 249 409 243 q 456 261 441 255 q 510 169 486 192 q 557 154 533 146 q 578 198 578 162 q 533 310 578 234 q 573 384 568 345 q 544 450 577 423 q 435 476 512 476 q 274 462 333 476 q 189 419 215 448 q 164 347 164 390 q 197 261 164 297 q 300 226 231 226 m 371 -21 q 178 25 249 -21 q 77 150 108 71 q 47 331 47 230 q 69 488 47 409 q 143 648 91 566 q 285 821 194 731 q 404 936 352 888 q 497 1008 456 983 q 568 1033 537 1033 q 613 1019 597 1033 q 630 981 629 1004 q 614 932 631 958 q 563 884 601 913 q 476 819 525 854 q 381 748 428 784 q 304 677 335 711 q 274 618 274 644 q 298 586 274 594 q 361 577 322 578 q 447 576 400 576 q 542 567 494 575 q 628 536 589 559 q 691 467 667 513 q 715 344 715 422 q 675 152 715 234 q 557 24 634 69 q 371 -21 480 -21 m 447 1008 q 498 960 469 989 q 557 902 528 931 q 606 854 586 874 q 655 784 647 814 q 646 739 663 755 q 598 735 628 722 q 521 793 567 747 q 480 836 505 809 q 426 894 454 864 q 375 947 399 924 q 335 1006 342 981 q 342 1044 328 1031 q 382 1053 358 1060 q 447 1008 407 1046 m 307 869 q 335 839 315 861 q 379 793 356 817 q 415 756 402 769 q 464 683 460 708 q 453 646 467 658 q 414 641 438 635 q 344 692 390 648 q 305 730 328 706 q 259 775 281 753 q 225 808 237 797 q 167 886 175 856 q 179 932 160 917 q 231 933 199 948 q 307 869 263 919 m 421 806 q 400 815 408 806 q 392 836 392 824 q 401 861 392 851 q 428 871 410 871 q 448 862 438 871 q 457 843 457 853 q 447 816 457 826 q 421 806 438 806 m 363 24 q 363 29 363 26 q 363 34 363 31 q 363 39 363 36 q 377 67 363 58 q 408 76 391 76 q 443 69 427 78 q 458 43 458 60 q 458 39 458 41 q 458 34 458 36 q 458 29 458 31 q 444 -2 458 8 q 411 -14 429 -12 q 378 -5 394 -15 q 363 24 363 5 m 308 47 q 290 22 299 31 q 269 12 281 13 q 242 18 258 10 q 217 38 224 27 q 213 63 211 49 q 222 90 215 76 l 308 47 m 504 72 l 590 115 q 598 73 602 92 q 568 43 594 55 q 527 41 540 31 q 504 72 514 51 m 139 197 l 200 124 q 160 103 178 104 q 125 126 141 103 q 115 165 108 149 q 139 197 122 182 m 246 524 q 246 524 246 524 q 246 524 246 524 q 246 524 246 524 q 246 524 246 524 q 246 524 246 524 q 246 524 246 524 q 246 524 246 524 q 246 524 246 524 m 572 506 q 572 506 572 506 q 572 506 572 506 q 572 506 572 506 q 572 506 572 506 q 572 506 572 506 q 572 506 572 506 q 572 506 572 506 q 572 506 572 506 m 643 453 q 643 453 643 453 q 643 453 643 453 q 643 453 643 453 q 643 453 643 453 q 643 453 643 453 q 643 453 643 453 q 643 453 643 453 q 643 453 643 453 z "},"7":{"ha":656,"x_min":13,"x_max":642,"o":"m 319 7 q 295 -24 310 -15 q 264 -34 280 -34 q 239 -28 251 -34 q 219 -11 227 -22 q 210 14 212 -1 q 215 46 208 28 q 353 382 299 250 q 435 582 408 513 q 463 667 463 651 q 449 694 463 687 q 392 707 435 702 q 402 827 406 790 q 369 868 399 865 q 335 853 347 870 q 318 801 324 835 q 311 715 313 766 q 269 719 290 717 q 228 724 249 722 q 220 831 233 806 q 183 854 208 856 q 153 824 162 852 q 149 732 144 797 q 48 755 83 738 q 13 826 13 772 q 56 897 13 870 q 168 939 99 924 q 316 959 238 953 q 464 964 394 964 q 499 963 483 964 q 531 958 516 961 q 559 951 546 956 q 583 939 572 946 q 604 922 594 932 q 638 833 638 891 q 599 679 638 782 q 490 411 561 576 q 319 7 419 246 m 343 79 l 383 181 q 415 178 399 180 q 446 174 431 176 q 508 160 481 169 q 533 119 535 151 q 507 80 531 90 q 428 74 482 71 q 385 76 407 75 q 343 79 364 77 m 471 394 l 510 486 q 589 450 558 465 q 630 420 619 435 q 635 385 642 406 q 606 361 627 363 q 550 368 584 358 q 471 394 516 378 m 385 428 q 294 466 339 446 q 201 507 249 485 q 150 538 172 522 q 140 585 128 555 q 176 613 151 612 q 249 596 201 615 q 335 561 292 578 q 421 525 378 544 l 385 428 m 258 4 q 258 4 258 4 q 258 4 258 4 q 258 4 258 4 q 258 4 258 4 q 258 4 258 4 q 258 4 258 4 q 258 4 258 4 q 258 4 258 4 m 240 18 q 240 18 240 18 q 240 18 240 18 q 240 18 240 18 q 240 18 240 18 q 240 18 240 18 q 240 18 240 18 q 240 18 240 18 q 240 18 240 18 m 236 0 q 236 0 236 0 q 236 0 236 0 q 236 0 236 0 q 236 0 236 0 q 236 0 236 0 q 236 0 236 0 q 236 0 236 0 q 236 0 236 0 m 282 192 l 239 92 q 214 95 226 94 q 189 99 201 97 q 128 115 149 104 q 108 154 106 125 q 132 189 110 181 q 194 196 153 197 q 239 194 217 195 q 282 192 260 193 m 353 356 l 321 261 q 196 306 231 288 q 168 354 161 324 q 224 383 178 390 q 353 356 269 376 m 161 568 q 161 568 161 568 q 161 568 161 568 q 161 568 161 568 q 161 568 161 568 q 161 568 161 568 q 161 568 161 568 q 161 568 161 568 q 161 568 161 568 z "},"8":{"ha":776,"x_min":26,"x_max":751,"o":"m 378 -21 q 120 52 215 -21 q 26 263 26 125 q 69 423 26 360 q 177 518 113 486 q 185 530 185 522 q 177 543 185 538 q 113 615 137 568 q 90 725 90 663 q 122 859 90 801 q 220 950 154 917 q 385 983 285 983 q 613 924 540 983 q 687 763 687 864 q 652 639 687 689 q 560 561 617 588 q 553 550 553 557 q 560 542 553 544 q 700 452 650 516 q 751 274 751 388 q 706 110 751 176 q 578 12 662 45 q 378 -21 495 -21 m 499 339 q 342 315 413 339 q 231 254 272 292 q 190 175 190 217 q 215 114 190 136 q 286 84 240 92 q 394 75 332 75 q 505 89 449 75 q 597 136 560 103 q 634 231 634 170 q 600 309 634 280 q 499 339 565 339 m 377 888 q 280 867 318 888 q 222 812 241 846 q 203 740 203 778 q 244 638 203 672 q 372 604 285 604 q 478 623 433 604 q 546 674 522 641 q 570 751 570 707 q 519 857 570 826 q 377 888 469 888 m 473 847 q 519 916 495 883 q 566 983 543 950 q 621 1044 594 1024 q 670 1047 647 1063 q 688 1002 694 1032 q 655 935 681 972 q 603 863 629 899 q 548 792 577 827 q 501 748 525 764 q 458 747 478 733 q 445 789 437 762 q 473 847 453 815 m 248 783 q 190 867 221 819 q 134 950 159 916 q 100 1017 106 989 q 117 1061 94 1046 q 166 1065 140 1077 q 216 1015 191 1052 q 274 926 241 979 q 331 835 306 874 q 358 777 351 803 q 342 736 365 751 q 296 738 322 723 q 248 783 271 753 m 402 399 q 439 415 423 399 q 455 454 455 431 q 442 489 455 474 q 409 503 429 503 q 369 487 388 503 q 351 449 351 472 q 366 413 351 428 q 402 399 381 399 m 235 347 q 275 366 260 347 q 291 408 291 385 q 272 451 291 438 q 228 464 253 464 q 191 449 208 464 q 174 410 174 434 q 193 367 174 386 q 235 347 212 347 m 128 233 q 165 250 149 233 q 181 288 181 267 q 166 320 181 308 q 130 332 150 332 q 96 319 109 332 q 83 286 83 306 q 95 249 83 265 q 128 233 108 233 m 359 929 q 359 934 359 931 q 360 939 360 936 q 360 943 360 941 q 379 972 363 964 q 412 975 395 979 q 436 962 426 972 q 445 935 447 951 q 444 927 445 931 q 444 919 444 924 q 430 901 443 907 q 402 896 417 896 q 371 906 385 897 q 359 929 357 914 m 644 -31 q 625 -3 634 -17 q 607 27 616 12 q 587 60 597 43 q 583 89 578 74 q 598 110 588 103 q 623 116 608 116 q 649 101 637 115 q 671 76 659 90 q 693 48 683 62 q 712 24 704 34 q 740 -36 738 -12 q 723 -71 741 -61 q 686 -70 706 -80 q 644 -31 667 -60 m 452 19 l 528 50 q 570 -65 560 -25 q 575 -123 581 -106 q 551 -146 569 -140 q 515 -139 532 -151 q 483 -89 499 -126 q 452 19 467 -51 m 197 68 l 273 36 q 217 -81 240 -44 q 175 -127 193 -119 q 141 -128 157 -135 q 120 -98 122 -119 q 137 -37 119 -77 q 197 68 156 2 m 309 -82 q 309 -47 309 -65 q 312 -1 310 -29 q 325 38 314 25 q 352 53 335 51 q 380 44 369 55 q 394 10 391 33 q 398 -35 397 -12 q 398 -81 398 -58 q 386 -138 398 -120 q 353 -156 374 -156 q 322 -138 334 -156 q 309 -82 309 -120 z "},"9":{"ha":736,"x_min":42,"x_max":703,"o":"m 42 703 q 83 856 42 790 q 197 958 124 923 q 362 988 269 994 q 542 946 465 981 q 661 850 619 911 q 703 703 703 789 q 685 576 703 644 q 633 430 667 508 q 554 262 599 352 q 455 67 508 172 q 388 -11 427 13 q 306 -34 348 -34 q 216 -10 259 -34 q 145 53 172 14 q 117 139 117 93 q 149 232 117 196 q 226 292 180 269 q 317 332 272 315 q 394 365 363 349 q 426 403 426 381 q 398 434 426 424 q 327 451 370 444 q 234 471 283 458 q 141 509 185 484 q 70 581 98 535 q 42 703 42 628 m 152 719 q 181 625 152 664 q 261 567 210 587 q 380 547 313 547 q 499 570 453 547 q 566 631 544 592 q 587 717 587 669 q 560 809 587 769 q 486 871 534 849 q 376 893 439 893 q 253 870 303 893 q 178 807 203 847 q 152 719 152 768 m 376 642 q 313 663 338 642 q 287 717 287 685 q 310 776 287 754 q 369 797 333 797 q 436 773 408 797 q 465 714 465 749 q 438 662 465 682 q 376 642 411 642 m 463 938 l 369 944 q 389 1085 377 1042 q 415 1140 401 1129 q 446 1149 430 1151 q 472 1132 463 1147 q 479 1073 481 1117 q 463 938 478 1029 m 410 306 q 372 290 385 306 q 359 247 359 274 q 377 209 359 224 q 420 194 394 194 q 460 209 443 194 q 477 247 477 224 q 455 290 477 274 q 410 306 433 306 m 276 186 q 230 166 246 186 q 215 117 215 145 q 238 66 215 85 q 292 47 261 47 q 336 65 321 47 q 351 113 351 83 q 328 165 351 144 q 276 186 305 186 m 526 361 q 526 361 526 361 q 526 361 526 361 q 526 361 526 361 q 526 361 526 361 q 526 361 526 361 q 526 361 526 361 q 526 361 526 361 q 526 361 526 361 m 520 424 q 520 424 520 424 q 520 424 520 424 q 520 424 520 424 q 520 424 520 424 q 520 424 520 424 q 520 424 520 424 q 520 424 520 424 q 520 424 520 424 m 484 240 l 530 335 q 555 312 548 326 q 548 267 563 297 q 515 233 531 233 q 484 240 498 233 m 288 247 l 288 247 q 288 247 288 247 q 288 247 288 247 q 288 247 288 247 q 288 247 288 247 m 291 945 l 200 919 q 175 1036 179 995 q 181 1094 172 1077 q 206 1115 190 1111 q 236 1107 222 1118 q 264 1058 251 1095 q 291 945 278 1021 m 591 852 l 513 904 q 583 993 556 965 q 628 1025 610 1021 q 656 1020 645 1029 q 673 993 672 1009 q 655 944 674 976 q 591 852 636 912 z "},"A":{"ha":785,"x_min":14,"x_max":776,"o":"m 31 136 q 64 228 40 163 q 118 377 88 293 q 179 546 149 462 q 184 558 182 552 q 188 570 186 565 q 192 583 190 576 q 199 600 196 591 q 205 617 202 608 q 221 660 213 639 q 235 701 228 681 q 240 713 238 707 q 244 725 242 719 q 249 736 247 731 q 256 756 252 747 q 263 774 260 765 q 280 821 274 803 q 288 842 287 839 q 354 927 310 899 q 456 954 399 956 q 558 923 515 953 q 613 831 601 892 q 616 814 614 822 q 618 797 617 806 q 506 775 535 789 q 476 738 476 762 q 497 699 476 708 q 553 694 517 690 q 635 707 589 699 q 643 665 639 686 q 650 624 647 644 q 559 602 585 615 q 533 563 533 589 q 553 524 533 532 q 604 520 574 515 q 667 533 635 524 q 694 394 681 464 q 719 256 707 325 q 744 119 732 188 q 768 -17 757 51 q 760 -76 776 -55 q 721 -97 744 -97 q 685 -84 703 -97 q 657 -43 667 -71 q 545 278 601 113 q 436 592 490 444 q 407 651 422 633 q 368 669 393 669 q 329 653 344 669 q 301 590 313 636 q 238 339 269 467 q 176 93 207 211 q 144 38 166 55 q 97 21 122 21 q 33 55 53 21 q 31 136 14 88 m 171 349 l 197 436 q 261 438 230 438 q 325 436 293 438 q 397 424 373 434 q 421 383 421 415 q 400 343 421 353 q 319 335 379 332 q 245 341 282 337 q 171 349 208 344 m 185 169 q 133 187 153 174 q 114 221 114 200 q 139 262 114 253 q 200 267 165 270 q 391 250 291 260 q 589 231 490 241 l 617 125 q 389 147 500 135 q 185 169 278 158 m 229 640 q 155 675 183 660 q 114 703 126 690 q 101 733 101 717 q 125 773 101 766 q 187 770 149 781 q 269 742 226 760 l 229 640 m 181 479 q 93 506 126 494 q 47 530 61 518 q 33 558 33 542 q 57 599 33 592 q 120 597 81 606 q 206 571 159 588 l 181 479 m 571 342 l 550 446 q 607 452 585 452 q 639 436 629 451 q 649 385 649 422 q 629 352 649 359 q 571 342 610 345 m 621 119 l 600 231 q 658 237 636 238 q 689 219 679 235 q 699 164 699 202 q 679 129 699 136 q 621 119 660 122 z "},"B":{"ha":789,"x_min":74,"x_max":758,"o":"m 133 160 q 120 271 128 203 q 105 418 113 340 q 90 572 97 497 q 78 704 83 647 q 74 785 74 761 q 109 851 74 827 q 199 887 144 876 q 316 902 254 899 q 433 906 378 906 q 541 887 496 906 q 610 834 586 869 q 635 749 635 799 q 620 667 635 699 q 587 618 606 636 q 553 588 568 599 q 539 567 539 577 q 543 559 539 562 q 554 554 547 556 q 663 514 619 542 q 730 436 708 487 q 753 306 753 386 q 700 127 753 199 q 556 19 647 56 q 351 -17 465 -17 q 228 1 272 -17 q 163 57 183 18 q 133 160 142 95 m 408 817 q 306 797 340 817 q 260 734 272 777 q 249 621 249 690 q 255 587 249 600 q 272 568 260 574 q 299 562 283 562 q 371 577 333 562 q 444 616 410 592 q 501 672 479 641 q 524 733 524 702 q 511 780 524 762 q 473 808 498 799 q 408 817 447 817 m 246 181 q 253 131 246 151 q 273 101 260 111 q 303 90 285 90 q 357 113 328 90 q 412 173 385 136 q 461 251 439 210 q 496 332 483 293 q 509 398 509 372 q 502 436 509 420 q 481 463 494 452 q 450 478 468 473 q 410 483 432 483 q 315 452 351 483 q 263 354 279 421 q 246 181 246 287 m 629 303 q 662 315 650 303 q 674 349 674 327 q 663 381 674 369 q 625 392 652 392 q 596 381 608 392 q 585 346 585 370 q 597 315 585 326 q 629 303 608 303 m 599 158 q 633 174 619 158 q 647 213 647 189 q 633 249 647 237 q 603 261 619 261 q 558 248 572 261 q 544 210 544 235 q 559 172 544 185 q 599 158 574 158 m 497 65 q 526 78 514 65 q 538 111 538 90 q 527 143 538 131 q 497 154 516 154 q 460 143 472 154 q 449 107 449 132 q 460 77 449 88 q 497 65 472 65 m 244 864 l 160 849 q 131 975 138 931 q 134 1036 124 1019 q 172 1053 144 1053 q 208 1037 195 1053 q 229 981 221 1022 q 244 864 237 940 m 426 874 l 329 879 q 343 980 336 944 q 363 1029 351 1015 q 394 1043 374 1043 q 428 1027 419 1043 q 436 975 438 1012 q 426 874 435 938 m 543 801 l 497 863 q 566 931 537 903 q 615 971 594 958 q 650 984 635 984 q 670 979 661 984 q 683 966 678 974 q 688 945 688 957 q 653 892 688 924 q 543 801 617 861 m 499 826 l 433 843 q 440 866 436 857 q 449 880 443 876 q 463 885 454 885 q 492 878 481 885 q 506 859 503 872 q 499 826 508 846 m 607 753 q 592 748 600 751 q 576 742 585 745 q 553 741 562 737 q 538 763 545 745 q 535 783 533 772 q 544 797 536 793 q 560 806 551 801 q 578 814 569 811 q 591 815 585 817 q 604 807 598 813 q 614 793 610 801 q 618 777 617 785 q 617 763 619 769 q 607 753 614 756 m 553 656 l 586 736 q 703 708 667 719 q 749 684 739 696 q 758 655 758 672 q 738 622 758 629 q 672 624 717 615 q 553 656 626 633 m 292 31 q 288 25 290 28 q 285 19 287 23 q 262 2 276 5 q 236 1 249 -1 q 211 21 221 7 q 210 50 201 35 q 213 56 211 53 q 215 61 214 58 q 218 67 217 64 q 245 87 228 85 q 276 81 263 89 q 295 59 289 74 q 292 31 301 45 z "},"C":{"ha":714,"x_min":56,"x_max":682,"o":"m 403 -17 q 225 31 303 -17 q 101 180 147 78 q 56 442 56 281 q 111 733 56 611 q 263 922 167 856 q 478 988 358 988 q 580 973 533 988 q 654 934 626 959 q 682 878 682 909 q 670 845 682 855 q 642 835 658 835 q 615 840 626 835 q 594 850 603 845 q 586 855 590 853 q 579 858 583 856 q 572 862 575 860 q 560 867 566 865 q 550 871 555 869 q 540 874 545 873 q 524 878 532 876 q 508 881 516 880 q 496 881 503 881 q 483 882 490 881 q 468 882 476 882 q 457 882 463 882 q 445 881 451 881 q 433 880 439 881 q 298 814 354 870 q 211 673 241 758 q 181 489 181 588 q 191 403 181 440 q 219 344 202 367 q 254 313 236 322 q 268 307 263 308 q 279 303 273 305 q 285 184 273 213 q 322 156 297 155 q 354 182 342 157 q 368 292 366 208 q 406 295 385 292 q 444 301 427 299 q 448 177 442 217 q 464 126 453 138 q 492 114 475 114 q 523 130 512 114 q 533 190 533 145 q 521 321 533 234 q 544 327 533 325 q 571 329 556 329 q 643 287 618 329 q 668 192 668 245 q 647 100 668 140 q 590 35 626 61 q 505 -4 553 9 q 403 -17 457 -17 m 479 1058 q 501 914 490 992 q 521 765 512 836 q 520 727 524 743 q 505 703 516 712 q 474 695 493 695 q 441 711 452 695 q 422 754 429 727 q 392 897 408 820 q 364 1038 376 973 q 364 1084 359 1065 q 384 1114 369 1103 q 424 1124 399 1124 q 459 1110 444 1124 q 479 1058 473 1096 m 229 954 q 257 920 243 938 q 283 881 270 903 q 295 843 296 861 q 281 811 295 825 q 246 795 264 794 q 210 814 228 797 q 172 853 188 835 q 143 888 156 871 q 114 945 117 923 q 131 986 110 967 q 176 994 149 1004 q 229 954 203 983 m 392 458 q 330 480 351 458 q 308 533 308 502 q 328 594 308 575 q 379 614 347 614 q 442 593 420 614 q 464 535 464 572 q 445 478 464 499 q 392 458 427 458 m 596 88 q 598 84 597 85 q 600 81 599 83 q 592 57 608 67 q 560 47 575 47 q 551 49 556 47 q 543 54 546 51 q 539 60 541 58 q 536 65 538 63 l 596 88 m 425 69 q 426 64 425 67 q 426 57 426 60 q 410 33 428 42 q 373 24 392 24 q 344 30 357 24 q 329 51 331 35 q 329 59 329 55 q 329 67 329 63 q 345 92 328 83 q 376 100 361 100 q 408 93 394 100 q 425 69 423 86 z "},"D":{"ha":861,"x_min":-6,"x_max":797,"o":"m 151 110 q 150 137 151 124 q 147 164 149 151 q 146 181 147 172 q 144 197 145 189 q 143 214 144 206 q 143 229 143 222 q 142 244 142 237 q 140 258 141 251 q 137 304 138 281 q 133 350 135 327 q 133 371 133 360 q 131 392 132 381 q 130 407 130 399 q 129 421 129 414 q 128 436 128 428 q 116 637 122 536 q 104 838 110 738 q 118 913 102 881 q 177 963 134 945 q 297 981 219 981 q 572 926 460 981 q 740 758 683 872 q 797 467 797 644 q 743 214 797 322 q 587 46 690 106 q 336 -14 484 -14 q 233 -5 272 -14 q 175 30 194 3 q 151 110 156 56 m 254 278 q 274 224 256 238 q 326 210 292 210 q 436 247 386 210 q 524 344 487 284 q 582 475 561 404 q 603 611 603 545 q 583 722 603 673 q 528 806 564 771 q 445 859 493 841 q 342 878 398 878 q 259 850 281 878 q 238 765 237 823 q 244 522 240 644 q 254 278 248 400 m 617 183 q 661 200 646 183 q 676 238 676 216 q 659 287 676 268 q 613 306 641 306 q 570 288 587 306 q 554 242 554 270 q 572 199 554 215 q 617 183 589 183 m 472 76 q 512 91 499 76 q 525 125 525 106 q 512 163 525 149 q 483 176 499 176 q 439 163 452 176 q 425 132 425 150 q 438 91 425 106 q 472 76 451 76 m 693 358 q 726 372 715 358 q 738 410 738 385 q 726 445 738 432 q 683 458 714 458 q 651 447 665 458 q 638 413 638 435 q 650 371 638 383 q 693 358 663 358 m 86 785 q 194 781 136 784 q 285 774 251 777 q 359 759 340 769 q 378 726 378 749 q 358 693 378 703 q 292 682 338 684 q 226 681 263 681 q 151 682 188 681 q 88 683 115 683 q 17 697 40 685 q -6 735 -6 709 q 19 775 -6 763 q 86 785 44 786 m 74 586 q 181 600 121 592 q 283 610 241 607 q 358 603 335 614 q 381 565 381 592 q 359 527 381 540 q 289 510 338 514 q 191 502 251 506 q 82 496 131 498 q 20 505 38 494 q 1 536 1 515 q 19 569 1 557 q 74 586 36 581 m 322 90 q 334 80 328 86 q 343 69 340 74 q 350 58 348 63 q 352 47 352 52 q 340 20 352 31 q 312 8 328 10 q 283 18 296 7 q 275 26 279 22 q 268 36 272 31 q 262 48 264 42 q 260 59 260 54 q 281 93 260 82 q 322 90 302 105 z "},"E":{"ha":675,"x_min":63,"x_max":665,"o":"m 68 97 q 85 302 76 190 q 104 531 94 415 q 106 544 105 538 q 107 558 106 551 q 108 572 108 565 q 110 589 109 581 q 111 605 110 597 q 113 621 112 613 q 115 647 114 634 q 117 673 116 660 q 120 697 119 685 q 122 719 121 708 q 124 744 123 732 q 126 767 125 756 q 128 784 127 776 q 129 800 128 792 q 160 881 135 856 q 239 922 185 907 q 314 941 270 931 q 403 959 357 951 q 488 973 449 968 q 547 978 526 978 q 636 940 608 978 q 665 838 665 901 q 648 738 665 783 q 598 668 631 692 q 518 656 565 644 q 543 751 533 709 q 547 818 553 794 q 509 843 542 843 q 467 803 479 843 q 440 672 456 763 q 406 682 422 678 q 369 690 390 685 q 370 811 376 780 q 335 843 365 843 q 306 832 315 843 q 293 792 296 820 q 290 717 290 765 q 278 720 284 719 q 265 721 272 721 q 240 711 248 721 q 231 683 232 701 q 225 541 226 613 q 224 400 224 469 q 238 372 224 381 q 279 371 252 363 q 389 405 342 391 q 460 425 436 419 q 513 414 493 433 q 532 368 532 394 q 521 334 532 350 q 485 311 510 317 q 466 307 476 309 q 447 302 457 304 q 436 299 442 301 q 425 297 431 298 q 416 295 420 296 q 408 292 412 294 q 394 289 401 291 q 381 286 388 288 q 375 285 378 285 q 369 283 372 284 q 363 282 366 283 q 356 281 359 281 q 349 279 353 280 q 342 277 346 278 q 323 273 333 275 q 306 268 314 270 q 277 252 283 263 q 274 225 271 242 q 284 175 277 206 q 300 121 291 144 q 319 98 308 102 q 347 100 330 94 q 450 140 393 118 q 542 169 506 161 q 606 154 584 179 q 627 97 627 128 q 615 54 627 74 q 579 31 603 35 q 390 2 494 16 q 186 -17 285 -11 q 95 8 127 -19 q 68 97 63 35 m 318 83 l 408 86 q 411 48 413 65 q 400 22 409 32 q 374 10 391 12 q 342 16 354 7 q 325 43 331 25 q 318 83 319 60 m 476 75 q 475 88 476 81 q 474 100 474 94 q 482 124 474 114 q 514 139 491 135 q 548 139 535 143 q 564 119 561 135 q 566 109 565 115 q 568 97 567 103 q 563 67 572 80 q 531 49 553 54 q 492 49 505 44 q 476 75 480 54 m 357 483 q 303 499 321 483 q 286 556 286 514 q 303 593 286 576 q 346 611 321 611 q 398 595 381 611 q 414 546 414 579 q 398 499 414 514 q 357 483 382 483 m 382 907 q 390 923 382 915 q 413 931 398 930 q 435 928 424 932 q 446 914 446 924 q 446 906 446 911 q 446 896 446 900 q 437 878 446 885 q 415 869 428 871 q 394 873 404 869 q 382 890 383 878 q 382 899 382 894 q 382 907 382 903 m 211 817 l 204 761 q 178 771 187 763 q 171 793 170 778 q 184 813 172 810 q 211 817 196 817 z "},"F":{"ha":639,"x_min":81,"x_max":646,"o":"m 81 71 q 81 74 81 72 q 81 77 81 76 q 81 81 81 79 q 220 89 178 81 q 261 132 261 98 q 215 168 261 165 q 83 157 169 171 q 84 198 83 178 q 86 238 84 218 q 155 247 128 241 q 193 261 181 252 q 206 285 206 270 q 180 322 206 313 q 96 325 154 331 q 113 582 102 453 q 136 838 123 710 q 166 908 142 885 q 236 940 190 932 q 399 964 315 954 q 574 979 483 973 q 628 960 610 983 q 646 910 646 937 q 610 853 646 863 q 525 843 574 843 q 430 845 476 843 q 336 846 383 847 q 279 841 292 845 q 257 828 265 836 q 244 803 247 817 q 242 769 242 790 q 243 738 242 754 q 247 706 245 722 q 261 667 251 678 q 297 658 270 656 q 411 677 356 666 q 521 693 466 688 q 577 678 558 697 q 597 636 597 660 q 580 595 597 614 q 528 574 563 576 q 452 573 490 572 q 375 572 414 574 q 343 551 346 570 q 365 521 340 531 q 418 504 390 510 q 478 483 447 497 q 510 458 500 474 q 520 426 520 442 q 497 383 520 401 q 431 378 474 365 q 353 408 384 392 q 292 435 323 424 q 253 430 266 444 q 251 393 241 416 q 309 279 278 337 q 368 157 340 221 q 383 36 399 88 q 323 -44 367 -15 q 226 -72 279 -72 q 124 -37 167 -72 q 81 71 81 -3 m 317 908 q 317 908 317 908 q 317 908 317 908 q 317 908 317 908 q 317 908 317 908 q 317 908 317 908 q 317 908 317 908 q 317 908 317 908 q 317 908 317 908 m 393 876 q 393 876 393 876 q 393 876 393 876 q 393 876 393 876 q 393 876 393 876 q 393 876 393 876 q 393 876 393 876 q 393 876 393 876 q 393 876 393 876 m 483 886 q 483 886 483 886 q 483 886 483 886 q 483 886 483 886 q 483 886 483 886 q 483 886 483 886 q 483 886 483 886 q 483 886 483 886 q 483 886 483 886 z "},"G":{"ha":843,"x_min":57,"x_max":842,"o":"m 363 22 q 198 58 267 22 q 93 172 130 94 q 57 375 57 250 q 80 597 57 499 q 143 769 102 696 q 241 892 184 843 q 367 965 298 940 q 515 989 437 989 q 662 951 615 989 q 708 856 708 913 q 698 804 708 824 q 666 768 687 783 q 615 739 645 753 q 547 707 585 725 q 408 632 473 672 q 293 547 342 593 q 216 446 244 501 q 188 324 188 391 q 211 214 188 257 q 276 150 234 171 q 376 129 319 129 q 513 152 447 129 q 622 219 579 176 q 665 325 665 263 q 659 370 665 353 q 638 395 653 388 q 599 403 624 403 q 569 402 583 402 q 539 401 555 401 q 478 417 501 401 q 456 467 456 433 q 483 525 456 506 q 553 539 511 543 q 622 531 586 536 q 685 522 658 526 q 749 494 732 515 q 775 418 767 472 q 782 372 778 400 q 790 310 785 344 q 793 288 792 299 q 797 265 795 276 q 798 250 797 258 q 800 236 799 243 q 802 221 801 228 q 805 198 803 210 q 808 175 807 187 q 811 153 810 164 q 814 133 813 143 q 817 110 815 122 q 819 89 818 99 q 827 24 824 53 q 833 -28 831 -6 q 808 -137 842 -101 q 731 -172 774 -172 q 657 -141 690 -172 q 629 -53 624 -110 q 637 5 633 -14 q 642 47 641 24 q 641 74 643 64 q 626 85 638 85 q 596 75 615 85 q 545 53 576 66 q 469 32 514 41 q 363 22 424 22 m 492 786 q 528 801 516 786 q 540 840 540 815 q 528 874 540 861 q 488 886 516 886 q 455 873 469 886 q 440 838 440 860 q 453 800 440 815 q 492 786 466 786 m 329 701 q 386 717 369 701 q 403 761 403 733 q 384 810 403 792 q 336 829 365 829 q 291 810 306 829 q 275 761 275 792 q 292 718 275 734 q 329 701 310 701 m 221 592 q 252 605 240 592 q 264 635 264 617 q 250 678 264 664 q 214 692 236 692 q 176 678 188 692 q 164 638 164 664 q 179 604 164 617 q 221 592 194 592 m 493 242 q 435 231 467 235 q 374 222 402 226 q 316 233 335 218 q 296 276 296 247 q 312 313 296 299 q 367 329 328 326 q 431 332 398 331 q 490 333 463 333 q 536 322 521 333 q 551 289 551 311 q 537 261 551 272 q 493 242 522 249 m 393 928 q 397 920 395 924 q 401 913 399 917 q 401 885 410 898 q 376 865 392 872 q 340 859 359 857 q 315 879 322 862 q 312 889 313 885 q 308 899 310 894 q 312 926 303 913 q 335 946 320 939 q 366 949 349 952 q 393 928 383 946 m 250 789 l 181 726 q 160 750 166 740 q 156 772 153 761 q 172 797 159 783 q 214 816 197 820 q 250 789 231 811 z "},"H":{"ha":844,"x_min":83,"x_max":762,"o":"m 83 90 q 95 388 89 240 q 111 678 102 535 q 112 699 112 688 q 113 719 113 709 q 114 732 114 726 q 115 746 115 739 q 115 760 115 753 q 117 788 116 774 q 119 815 118 802 q 121 840 120 828 q 122 864 122 851 q 123 879 123 872 q 124 892 124 885 q 126 906 125 899 q 127 920 126 913 q 128 933 128 926 q 147 986 133 967 q 192 1006 160 1006 q 241 981 226 1006 q 253 919 255 956 q 239 745 248 829 q 226 575 231 662 q 235 547 226 558 q 265 538 244 535 q 411 555 335 544 q 556 579 487 566 q 589 594 580 585 q 599 619 598 603 q 604 717 603 667 q 608 819 606 767 q 630 884 612 859 q 686 910 649 910 q 743 882 725 910 q 760 806 762 853 q 744 402 753 607 q 724 14 735 197 q 705 -50 722 -26 q 647 -74 688 -74 q 588 -44 603 -74 q 581 29 572 -15 q 603 127 590 78 q 625 224 617 175 q 624 256 629 246 q 600 268 618 265 q 579 272 590 270 q 558 274 569 273 q 568 358 565 319 q 564 423 572 398 q 531 449 556 448 q 501 438 514 449 q 479 392 488 427 q 464 286 469 357 q 419 292 442 290 q 374 297 397 294 q 363 393 369 359 q 345 442 356 428 q 315 456 333 456 q 276 421 284 456 q 285 306 268 386 q 264 307 274 307 q 243 308 253 308 q 218 301 226 310 q 211 275 211 293 q 217 183 213 229 q 221 90 221 138 q 204 40 221 63 q 149 17 188 17 q 97 39 110 17 q 83 90 83 61 m 406 661 q 352 685 372 661 q 333 749 333 708 q 355 798 333 780 q 417 817 377 817 q 471 795 453 817 q 489 735 489 774 q 469 682 489 703 q 406 661 449 661 m 683 765 q 708 752 700 765 q 717 711 717 738 q 707 672 717 686 q 679 658 698 658 q 665 658 672 658 q 650 658 658 658 q 626 673 633 658 q 619 710 619 688 q 629 752 619 738 q 660 765 639 765 q 672 765 666 765 q 683 765 677 765 m 164 33 q 111 49 126 33 q 96 86 96 65 q 110 134 96 117 q 153 151 125 151 q 198 134 181 151 q 214 83 214 116 q 200 47 214 60 q 164 33 186 33 m 188 911 q 208 899 201 911 q 214 872 214 887 q 207 844 214 857 q 186 829 201 831 q 176 828 181 829 q 165 828 171 828 q 145 839 152 827 q 139 867 139 851 q 147 897 139 883 q 169 911 154 911 q 178 911 174 911 q 188 911 183 911 z "},"I":{"ha":658,"x_min":22,"x_max":638,"o":"m 444 411 q 300 415 372 411 q 157 425 228 419 q 100 439 122 428 q 78 479 78 450 q 104 524 78 516 q 171 529 131 531 q 316 519 238 526 q 450 507 395 513 q 511 493 491 503 q 531 456 531 483 q 509 419 531 428 q 444 411 488 411 m 411 639 q 308 620 359 628 q 204 606 256 612 q 147 610 170 601 q 124 650 124 618 q 142 685 124 673 q 189 704 160 697 q 288 726 238 717 q 386 744 338 736 q 466 745 438 753 q 493 700 493 738 q 472 659 493 672 q 411 639 451 647 m 176 685 q 200 676 192 685 q 208 656 208 667 q 199 625 208 634 q 175 615 190 615 q 148 625 156 615 q 139 650 139 635 q 148 676 139 667 q 176 685 158 685 m 29 138 q 64 231 29 200 q 149 263 98 262 q 181 263 167 263 q 208 264 195 263 q 233 277 226 265 q 240 315 240 290 q 241 338 241 326 q 242 365 242 351 q 242 383 242 374 q 242 401 242 392 q 243 419 243 410 q 243 438 243 428 q 243 477 243 447 q 243 549 243 508 q 243 558 243 553 q 243 567 243 563 q 243 577 243 572 q 243 591 243 584 q 243 604 243 597 q 243 720 243 664 q 242 803 242 777 q 232 833 241 825 q 203 842 224 842 q 162 840 185 842 q 114 838 138 838 q 47 855 72 838 q 22 911 22 873 q 47 966 24 950 q 113 983 70 981 q 302 988 208 988 q 483 985 397 988 q 555 972 533 983 q 576 933 576 962 q 557 894 576 906 q 501 876 537 883 q 436 866 466 869 q 378 857 406 863 q 350 845 359 853 q 342 817 342 837 q 351 568 345 693 q 365 319 356 444 q 380 273 367 288 q 422 257 393 258 q 452 256 437 256 q 482 254 467 256 q 598 213 558 250 q 636 113 638 175 q 615 27 636 60 q 555 -20 594 -6 q 464 -29 516 -34 q 459 -28 461 -29 q 453 -28 456 -28 q 471 92 468 51 q 464 148 474 133 q 426 163 453 163 q 401 149 410 163 q 387 96 392 135 q 376 -19 381 57 q 339 -15 358 -17 q 300 -10 320 -12 q 294 81 300 51 q 276 121 288 111 q 250 131 265 131 q 224 121 235 131 q 211 84 214 111 q 214 3 208 56 q 181 8 197 5 q 147 14 164 11 q 62 52 94 24 q 29 138 29 81 z "},"J":{"ha":699,"x_min":31,"x_max":699,"o":"m 294 -24 q 158 -2 218 -24 q 65 63 99 19 q 31 174 31 107 q 44 247 31 212 q 86 305 58 283 q 157 328 114 328 q 202 324 181 328 q 249 315 223 319 q 311 311 274 311 q 442 351 406 311 q 472 469 478 390 q 458 647 467 557 q 438 814 448 737 q 418 870 433 857 q 364 883 403 883 q 274 880 318 883 q 190 876 229 876 q 111 891 135 876 q 86 940 86 906 q 111 989 86 973 q 188 1003 137 1004 q 314 997 242 1002 q 449 983 385 992 q 515 948 494 978 q 546 843 535 918 q 563 715 553 790 q 580 563 572 640 q 593 422 588 485 q 599 326 599 358 q 563 137 599 215 q 460 17 528 58 q 294 -24 392 -24 m 614 769 q 401 726 514 748 q 174 685 288 705 q 90 684 122 676 q 58 732 58 692 q 81 771 58 756 q 149 793 104 786 q 376 827 261 811 q 599 857 492 844 q 668 855 648 863 q 689 821 689 847 q 673 790 689 801 q 614 769 658 779 m 546 688 q 647 690 614 693 q 689 676 679 687 q 699 649 699 666 q 687 617 699 628 q 643 602 675 606 q 549 599 610 599 l 546 688 m 296 435 q 227 456 250 435 q 204 522 204 478 q 225 575 204 553 q 286 596 247 596 q 344 572 324 596 q 365 508 365 547 q 347 455 365 474 q 296 435 328 435 m 153 124 q 189 135 178 124 q 200 171 200 147 q 188 199 200 189 q 153 210 176 210 q 125 199 136 210 q 114 169 114 188 q 126 135 114 147 q 153 124 138 124 m 296 86 q 341 101 327 86 q 354 147 354 115 q 339 180 354 167 q 301 193 324 193 q 247 136 247 193 q 262 100 247 113 q 296 86 276 86 m 450 131 q 482 144 472 131 q 492 185 492 158 q 479 214 492 203 q 450 224 467 224 q 412 211 425 224 q 399 179 399 199 q 413 143 399 156 q 450 131 427 131 z "},"K":{"ha":846,"x_min":11,"x_max":826,"o":"m 136 1 q 115 342 124 172 q 103 681 107 512 q 117 739 102 717 q 165 760 131 760 q 213 740 200 760 q 226 682 226 721 q 226 634 228 659 q 225 579 225 608 q 241 549 225 556 q 276 564 258 543 q 422 733 351 646 q 563 899 494 821 q 628 951 595 935 q 693 968 662 968 q 759 949 728 968 q 808 899 790 930 q 826 835 826 869 q 807 765 826 800 q 751 699 787 730 q 622 597 681 640 q 500 499 562 553 q 467 444 471 474 q 489 385 464 415 q 610 238 563 297 q 684 142 657 178 q 725 84 712 106 q 741 50 738 63 q 744 26 744 38 q 726 -21 744 -3 q 679 -39 708 -39 q 640 -28 659 -39 q 593 17 620 -17 q 522 119 565 51 q 411 300 479 187 q 364 359 386 343 q 310 375 342 375 q 255 353 274 375 q 236 283 236 331 q 240 149 236 224 q 244 3 244 73 q 234 -53 244 -31 q 193 -75 224 -75 q 152 -55 166 -75 q 136 1 138 -34 m 689 325 q 634 344 656 325 q 613 408 613 363 q 635 457 613 440 q 689 475 657 475 q 742 453 722 475 q 763 394 763 431 q 742 346 763 367 q 689 325 722 325 m 672 955 q 676 951 674 953 q 680 947 678 949 q 682 935 685 942 q 673 920 679 928 q 658 910 666 913 q 647 910 651 906 q 643 914 644 913 q 640 917 642 915 q 635 932 633 924 q 644 948 638 941 q 659 957 650 954 q 672 955 667 959 m 592 890 l 569 858 q 566 867 565 862 q 573 881 567 872 q 584 891 581 890 q 592 890 588 892 m 76 265 q 179 276 126 272 q 286 283 232 281 q 340 276 321 285 q 360 238 360 267 q 343 200 360 210 q 297 186 326 190 q 191 175 244 179 q 83 169 137 172 q 32 179 52 169 q 11 217 11 189 q 28 250 11 240 q 76 265 45 261 m 167 806 q 92 826 116 806 q 68 888 68 847 q 94 958 68 935 q 161 981 119 981 q 222 956 201 981 q 243 892 243 931 q 223 828 243 851 q 167 806 202 806 m 531 629 q 574 643 559 629 q 589 675 589 658 q 576 721 589 706 q 536 736 563 736 q 497 722 513 736 q 482 682 482 707 q 496 642 482 655 q 531 629 510 629 m 667 738 q 718 756 701 738 q 735 806 735 774 q 716 856 735 835 q 670 877 697 877 q 617 860 638 877 q 597 819 597 843 q 614 759 597 781 q 667 738 632 738 z "},"L":{"ha":700,"x_min":0,"x_max":692,"o":"m 236 -31 q 138 6 169 -33 q 107 126 107 44 q 109 214 107 160 q 114 336 111 269 q 122 476 117 403 q 130 621 126 549 q 139 756 135 693 q 147 865 144 819 q 191 981 153 947 q 290 1015 228 1015 q 380 993 344 1015 q 425 922 415 972 q 411 792 435 873 q 362 635 388 714 q 310 481 336 557 q 302 460 306 470 q 296 439 299 449 q 289 418 293 428 q 282 397 285 408 q 271 362 277 380 q 260 326 265 344 q 255 311 257 319 q 250 296 252 303 q 244 282 247 289 q 241 269 242 276 q 237 257 239 263 q 233 244 235 251 q 227 221 231 233 q 219 197 223 209 q 220 154 211 168 q 247 140 228 140 q 296 160 262 140 q 376 205 331 179 q 470 250 422 231 q 563 269 519 269 q 621 257 591 269 q 671 213 651 244 q 692 128 692 182 q 666 27 692 59 q 582 -4 640 -4 q 574 -4 578 -4 q 567 -4 570 -4 q 567 98 572 63 q 552 147 563 133 q 525 160 541 160 q 497 145 507 160 q 485 93 488 131 q 486 -12 483 56 q 446 -16 467 -15 q 404 -19 425 -18 q 394 59 401 32 q 376 95 388 85 q 349 104 365 104 q 319 91 330 104 q 308 48 309 77 q 318 -26 308 19 q 277 -28 297 -27 q 236 -31 257 -29 m 142 507 q 56 512 87 508 q 13 527 25 516 q 0 560 0 538 q 34 606 0 598 q 158 605 69 615 l 142 507 m 319 617 l 325 732 q 473 725 425 731 q 536 708 522 720 q 551 674 551 696 q 536 634 551 647 q 470 618 520 621 q 319 617 421 615 m 283 790 q 333 806 317 790 q 350 850 350 822 q 333 902 350 885 q 282 918 315 918 q 239 900 255 918 q 222 853 222 882 q 237 808 222 825 q 283 790 252 790 m 215 567 l 217 656 q 243 652 233 656 q 258 639 253 649 q 263 610 263 628 q 250 575 263 583 q 215 567 238 567 m 661 61 l 582 83 q 594 118 588 104 q 609 137 599 132 q 639 136 619 142 q 663 123 656 132 q 669 98 670 113 q 661 61 668 83 z "},"M":{"ha":1067,"x_min":43,"x_max":1017,"o":"m 47 139 q 66 287 53 190 q 92 494 78 385 q 95 511 94 503 q 97 527 96 519 q 99 544 98 535 q 102 567 100 556 q 105 589 103 578 q 108 618 106 603 q 113 646 110 632 q 116 676 115 661 q 120 704 118 690 q 124 732 122 718 q 128 759 126 746 q 139 842 134 805 q 149 906 144 880 q 186 994 158 966 q 258 1022 215 1022 q 330 991 303 1022 q 371 903 356 960 q 375 890 373 897 q 378 878 377 883 q 262 845 292 863 q 238 797 233 828 q 283 768 243 766 q 403 790 324 769 q 415 749 409 771 q 425 704 420 727 q 278 676 321 692 q 240 628 236 660 q 293 593 246 592 q 444 628 340 594 q 479 481 463 553 q 514 346 496 408 q 544 311 524 311 q 575 347 567 311 q 608 497 591 414 q 643 667 626 581 q 678 828 661 753 q 731 946 697 913 q 818 979 766 979 q 900 943 872 979 q 938 835 928 907 q 978 475 959 665 q 1013 93 997 284 q 998 15 1017 42 q 939 -12 978 -12 q 881 14 899 -12 q 861 88 862 40 q 863 269 860 185 q 863 442 865 353 q 830 502 861 495 q 774 469 799 509 q 702 352 737 413 q 625 226 668 292 q 589 191 610 203 q 539 178 567 178 q 489 193 511 178 q 446 235 467 208 q 359 352 400 294 q 285 451 318 411 q 228 480 256 487 q 200 428 201 474 q 197 335 199 387 q 193 230 195 284 q 188 124 190 175 q 168 54 185 78 q 114 31 151 31 q 72 43 88 31 q 49 79 56 55 q 47 139 43 103 m 797 629 q 862 649 842 629 q 882 703 882 669 q 862 756 882 735 q 803 776 842 776 q 754 756 773 776 q 735 700 735 735 q 753 648 735 666 q 797 629 772 629 m 544 224 q 511 234 524 224 q 499 267 499 245 q 511 296 499 285 q 544 307 524 307 q 571 295 560 307 q 582 269 582 283 q 570 235 582 246 q 544 224 558 224 m 964 88 q 950 88 957 88 q 935 88 942 88 q 912 96 922 88 q 901 132 901 104 q 915 164 901 156 q 938 172 928 172 q 951 172 944 172 q 964 172 958 172 q 991 157 982 172 q 1000 126 1000 143 q 991 97 1000 106 q 964 88 982 88 z "},"N":{"ha":943,"x_min":87,"x_max":953,"o":"m 88 106 q 87 135 88 119 q 87 169 87 151 q 88 201 88 186 q 240 205 201 192 q 278 247 278 218 q 240 293 278 285 q 92 294 202 302 q 95 343 94 319 q 98 390 96 367 q 178 387 147 385 q 224 400 209 389 q 240 436 240 412 q 209 477 240 467 q 102 490 178 488 q 112 655 106 567 q 127 818 119 742 q 181 953 138 912 q 292 994 224 994 q 390 962 355 994 q 451 857 425 929 q 499 718 474 794 q 550 560 524 642 q 602 398 576 478 q 653 246 628 317 q 680 215 663 220 q 711 221 697 209 q 724 261 725 233 q 720 480 723 360 q 716 725 717 600 q 715 964 714 849 q 732 1030 715 1008 q 784 1051 749 1051 q 833 1028 817 1051 q 849 957 849 1004 q 845 719 849 842 q 834 468 841 595 q 819 214 828 340 q 779 112 814 141 q 692 83 744 83 q 610 111 642 83 q 558 192 578 140 q 482 388 519 288 q 410 588 446 489 q 338 776 374 686 q 327 794 333 789 q 310 800 320 800 q 287 788 296 800 q 283 753 278 776 q 317 559 298 658 q 357 360 337 460 q 392 161 376 260 q 366 16 407 67 q 238 -35 326 -35 q 125 4 160 -35 q 88 106 90 42 m 724 882 q 777 880 751 881 q 830 876 804 878 q 913 868 887 874 q 946 853 939 863 q 953 828 953 843 q 945 802 953 813 q 910 787 938 792 q 827 782 883 782 q 774 782 800 782 q 720 782 747 782 q 638 789 666 782 q 599 808 609 795 q 588 838 588 820 q 599 865 588 854 q 639 880 610 876 q 724 882 669 885 m 719 693 q 774 694 746 693 q 828 694 801 694 q 911 685 893 696 q 928 650 928 674 q 911 608 928 621 q 831 596 894 596 q 781 596 806 596 q 730 596 755 596 q 628 606 654 596 q 602 644 602 615 q 625 680 602 667 q 719 693 647 692 m 769 563 q 773 563 771 563 q 777 563 775 563 q 795 556 788 563 q 806 538 802 549 q 809 515 809 527 q 805 492 809 503 q 793 474 801 481 q 774 467 785 467 q 769 467 772 467 q 763 467 767 467 q 740 481 748 467 q 733 511 733 494 q 742 546 733 530 q 769 563 751 563 m 216 169 q 233 169 224 169 q 251 169 242 169 q 279 155 269 169 q 288 122 288 140 q 277 85 288 101 q 244 68 266 69 q 226 68 235 68 q 208 68 217 68 q 176 84 187 68 q 166 119 166 101 q 177 156 166 142 q 216 169 189 169 m 265 82 q 232 94 243 82 q 220 129 220 106 q 233 158 220 147 q 267 169 246 169 q 297 159 285 169 q 308 128 308 148 q 295 93 308 105 q 265 82 283 82 m 331 867 q 331 867 331 867 q 331 867 331 867 q 331 867 331 867 q 331 867 331 867 q 331 867 331 867 q 331 867 331 867 q 331 867 331 867 q 331 867 331 867 m 248 932 q 248 932 248 932 q 248 932 248 932 q 248 932 248 932 q 248 932 248 932 q 248 932 248 932 q 248 932 248 932 q 248 932 248 932 q 248 932 248 932 z "},"O":{"ha":894,"x_min":56,"x_max":839,"o":"m 442 -17 q 222 49 308 -17 q 96 230 137 115 q 56 494 56 345 q 102 749 56 635 q 239 930 149 863 q 457 997 328 997 q 604 969 535 997 q 726 884 673 942 q 809 735 779 826 q 839 519 839 645 q 793 243 839 364 q 658 52 747 122 q 442 -17 569 -17 m 408 285 q 568 326 501 285 q 671 440 635 367 q 707 606 707 512 q 673 767 707 701 q 581 867 639 833 q 451 901 523 901 q 296 851 359 901 q 200 718 233 801 q 168 539 168 635 q 193 411 168 469 q 270 319 217 353 q 408 285 324 285 m 642 275 q 606 263 619 275 q 593 221 593 251 q 605 188 593 200 q 646 176 617 176 q 680 190 668 176 q 692 224 692 203 q 680 264 692 252 q 642 275 668 275 m 492 211 q 448 195 465 211 q 431 149 431 179 q 445 106 431 123 q 493 89 460 89 q 538 106 524 89 q 553 144 553 123 q 536 195 553 180 q 492 211 520 211 m 317 206 q 285 194 298 206 q 272 163 272 183 q 285 120 272 133 q 324 107 299 107 q 360 119 349 107 q 371 160 371 131 q 356 192 371 178 q 317 206 342 206 m 653 894 q 640 871 647 883 q 628 847 634 859 q 572 766 596 789 q 524 757 549 744 q 506 791 506 767 q 528 858 506 816 q 555 905 546 891 q 569 929 563 919 q 596 947 579 945 q 628 940 613 948 q 651 920 642 933 q 653 894 659 907 m 319 899 q 345 876 332 888 q 371 850 358 864 q 422 774 417 800 q 413 733 427 748 q 372 724 397 718 q 304 769 346 730 q 265 807 279 792 q 239 836 251 822 q 236 864 231 848 q 253 892 242 881 q 284 910 265 906 q 319 899 303 915 m 158 696 q 216 684 188 690 q 274 669 244 678 q 363 633 344 650 q 376 593 382 616 q 346 565 372 569 q 254 569 320 560 q 195 579 225 574 q 136 590 165 584 q 112 614 117 594 q 111 653 106 633 q 128 686 115 673 q 158 696 141 699 m 140 411 q 156 421 148 417 q 171 431 164 426 q 252 472 222 462 q 296 479 281 483 q 318 465 311 476 q 324 438 326 453 q 298 401 322 422 q 219 350 274 379 q 200 340 210 345 q 181 329 190 335 q 150 328 164 321 q 128 350 135 335 q 122 383 121 365 q 140 411 124 401 m 765 725 q 784 716 776 727 q 796 689 792 705 q 798 651 800 669 q 783 632 796 633 q 777 631 781 632 q 771 631 774 631 q 750 643 758 630 q 739 674 742 657 q 741 707 737 692 q 758 724 746 722 q 762 724 760 724 q 765 725 763 725 m 740 401 q 747 394 744 397 q 753 386 750 390 q 757 367 760 377 q 744 350 753 358 q 726 342 736 344 q 711 349 717 340 q 703 360 707 355 q 694 372 699 366 q 690 394 686 384 q 701 408 693 403 q 721 413 710 414 q 740 401 732 412 z "},"P":{"ha":771,"x_min":81,"x_max":779,"o":"m 221 628 q 209 534 212 565 q 210 489 207 502 q 219 469 213 476 q 271 456 232 457 q 385 454 310 454 q 482 469 442 454 q 545 512 522 484 q 580 580 569 540 q 590 669 590 619 q 550 809 590 765 q 425 854 510 854 q 338 845 373 854 q 279 814 302 837 q 261 790 269 803 q 246 756 253 776 q 234 704 240 735 q 221 628 228 673 m 82 92 q 87 348 83 219 q 96 601 90 478 q 110 832 101 724 q 125 918 113 884 q 164 968 137 951 q 240 985 191 985 q 342 979 285 985 q 457 962 399 974 q 562 932 515 950 q 635 888 609 913 q 686 800 670 852 q 701 664 701 747 q 680 535 701 591 q 626 447 659 480 q 565 399 595 416 q 508 375 535 382 q 456 367 480 368 q 420 360 435 366 q 397 339 406 354 q 381 294 388 324 q 357 174 366 238 q 336 63 349 110 q 297 -23 324 15 q 208 -61 271 -61 q 110 -22 140 -60 q 82 92 81 17 m 632 378 q 679 309 667 335 q 668 260 690 282 q 616 252 645 237 q 558 301 588 268 q 470 406 514 353 q 386 511 427 459 q 353 569 359 546 q 365 607 348 592 q 404 614 382 621 q 460 569 426 606 q 546 477 503 525 q 632 378 590 429 m 694 702 q 765 683 750 697 q 779 650 779 669 q 763 618 779 631 q 692 608 746 606 q 626 611 658 610 q 560 615 593 613 q 492 629 516 619 q 468 664 468 639 q 499 703 468 697 q 578 709 530 710 q 634 707 604 708 q 694 702 665 705 m 124 103 q 144 92 138 103 q 151 58 151 81 q 144 21 151 29 q 128 13 138 13 q 122 13 125 13 q 115 13 119 13 q 97 24 104 13 q 90 60 90 36 q 97 93 90 84 q 114 103 103 103 q 119 103 116 103 q 124 103 122 103 m 236 233 q 285 250 269 233 q 301 290 301 267 q 284 341 301 324 q 236 358 267 358 q 194 341 211 358 q 176 294 176 324 q 192 249 176 265 q 236 233 208 233 m 208 67 q 252 81 237 67 q 267 124 267 94 q 253 157 267 144 q 218 169 240 169 q 177 155 191 169 q 164 117 164 140 q 178 81 164 96 q 208 67 193 67 z "},"Q":{"ha":871,"x_min":56,"x_max":815,"o":"m 583 -231 q 482 -182 531 -210 q 401 -132 434 -155 q 348 -93 374 -112 q 300 -54 323 -74 q 254 -13 276 -34 q 208 31 231 8 q 124 140 158 81 q 73 274 90 198 q 56 454 56 350 q 107 757 56 637 q 251 938 159 878 q 465 997 344 997 q 648 945 569 997 q 771 791 727 892 q 815 544 815 690 q 774 296 815 405 q 655 116 733 187 q 467 18 576 44 q 444 -7 444 13 q 469 -32 444 -28 q 546 -39 509 -38 q 629 -44 583 -39 q 701 -63 675 -50 q 739 -98 728 -76 q 750 -153 750 -119 q 726 -224 750 -201 q 665 -247 703 -247 q 583 -231 627 -248 m 418 103 q 559 153 496 103 q 659 288 622 203 q 696 472 696 372 q 673 588 696 535 q 603 672 649 640 q 486 703 556 703 q 339 657 407 703 q 228 531 270 611 q 185 349 185 451 q 214 221 184 276 q 297 134 244 165 q 418 103 350 103 m 201 629 q 242 645 228 629 q 256 682 256 660 q 242 717 256 703 q 200 732 228 732 q 166 719 179 732 q 153 679 153 706 q 167 643 153 656 q 201 629 182 629 m 333 738 q 390 757 373 738 q 407 808 407 776 q 389 850 407 831 q 347 868 372 868 q 295 852 314 868 q 276 800 276 835 q 293 754 276 770 q 333 738 310 738 m 519 788 q 551 802 536 788 q 565 842 565 817 q 552 876 565 862 q 507 890 540 890 q 475 876 488 890 q 463 840 463 861 q 477 802 463 817 q 519 788 492 788 m 574 149 q 586 110 588 127 q 561 76 585 93 q 516 66 536 59 q 478 99 497 73 q 458 128 467 113 q 440 158 449 144 q 413 224 417 200 q 429 263 408 248 q 477 262 456 279 q 526 213 499 245 q 551 182 539 198 q 574 149 563 165 m 707 349 q 748 311 736 332 q 749 267 760 290 q 715 239 735 240 q 668 250 694 238 q 606 283 636 266 q 547 319 576 301 q 494 365 511 344 q 489 407 478 385 q 531 426 501 431 q 599 403 560 421 q 653 377 627 390 q 707 349 680 365 z "},"R":{"ha":836,"x_min":79,"x_max":817,"o":"m 101 89 q 86 336 93 191 q 79 651 79 481 q 86 741 79 699 q 107 817 93 782 q 114 833 110 825 q 122 849 118 842 q 130 863 126 856 q 139 875 134 869 q 153 893 145 885 q 168 909 160 901 q 181 922 174 915 q 196 933 188 928 q 212 943 203 938 q 229 953 220 949 q 320 985 270 975 q 432 996 371 996 q 569 977 506 996 q 678 922 632 959 q 750 826 724 884 q 775 690 775 769 q 738 542 775 601 q 640 455 701 484 q 507 426 578 426 q 383 450 435 426 q 305 519 332 474 q 278 626 278 564 q 324 757 278 712 q 443 803 369 803 q 548 765 515 803 q 581 681 581 728 q 567 635 581 649 q 531 622 553 622 q 498 636 508 622 q 482 667 488 649 q 466 698 476 684 q 432 711 456 711 q 392 692 405 711 q 379 642 379 672 q 417 553 379 583 q 510 524 455 524 q 625 563 581 524 q 669 686 669 603 q 603 844 669 792 q 438 896 537 896 q 281 861 339 896 q 203 759 224 826 q 193 594 182 692 q 210 469 203 515 q 225 403 217 424 q 244 376 233 382 q 271 367 255 369 q 338 357 304 362 q 404 349 372 353 q 398 252 390 281 q 436 224 406 224 q 473 246 459 224 q 493 332 486 269 q 541 326 517 330 q 585 318 564 322 q 565 155 560 201 q 610 108 570 108 q 639 124 626 108 q 661 181 651 139 q 678 303 671 223 q 743 280 717 295 q 786 243 769 264 q 810 197 803 222 q 817 144 817 172 q 775 0 817 54 q 645 -55 732 -55 q 575 -41 609 -55 q 506 0 540 -26 q 435 61 471 26 q 363 139 400 96 q 285 228 326 181 q 253 243 267 248 q 240 218 238 238 q 251 147 244 182 q 263 76 258 111 q 253 0 269 24 q 185 -25 237 -25 q 124 4 140 -25 q 101 89 107 33 m 160 19 q 136 31 144 19 q 128 56 128 42 q 135 78 128 68 q 157 89 142 88 l 160 19 m 142 138 q 120 150 127 138 q 113 175 113 162 q 121 204 113 191 q 146 217 129 217 l 142 138 m 725 38 q 698 47 708 38 q 688 72 688 57 q 698 107 688 97 q 722 118 708 118 q 757 108 747 118 q 768 83 768 98 q 757 50 768 62 q 725 38 745 38 z "},"S":{"ha":694,"x_min":-3,"x_max":663,"o":"m 325 1 q 205 22 258 1 q 115 77 152 43 q 59 149 78 110 q 40 222 40 188 q 52 258 40 247 q 81 269 64 269 q 110 260 99 269 q 129 228 120 251 q 157 176 138 206 q 208 123 175 146 q 294 100 242 100 q 367 127 340 100 q 394 203 394 155 q 377 274 394 244 q 331 327 360 304 q 268 373 302 351 q 199 421 233 395 q 136 483 165 447 q 90 568 107 518 q 72 689 72 618 q 107 840 72 772 q 211 947 142 907 q 382 986 281 986 q 477 976 435 986 q 548 948 519 965 q 593 910 578 931 q 608 868 608 889 q 598 832 608 845 q 565 818 588 818 q 529 828 546 818 q 492 853 513 839 q 443 877 472 867 q 367 888 413 888 q 242 846 285 888 q 199 743 199 805 q 224 660 199 692 q 290 610 249 629 q 381 576 332 591 q 480 542 431 561 q 571 494 529 524 q 638 415 613 464 q 663 289 663 366 q 635 158 663 213 q 560 69 608 103 q 452 18 513 34 q 325 1 392 1 m 513 147 q 560 193 560 147 q 549 222 560 211 q 517 232 538 232 q 485 222 495 232 q 475 190 475 213 q 486 158 475 169 q 513 147 498 147 m 517 293 q 550 306 537 293 q 564 340 564 319 q 550 383 564 369 q 518 397 537 397 q 474 385 488 397 q 460 342 460 373 q 474 307 460 320 q 517 293 489 293 m 390 399 q 423 411 413 399 q 433 444 433 423 q 422 470 433 459 q 393 481 411 481 q 363 471 374 481 q 351 443 351 461 q 361 410 351 422 q 390 399 372 399 m 432 660 q 377 678 396 660 q 358 721 358 696 q 375 774 358 754 q 419 793 392 793 q 474 776 457 793 q 492 736 492 758 q 476 678 492 697 q 432 660 460 660 m 457 69 l 515 110 q 587 10 563 47 q 612 -46 611 -26 q 592 -79 613 -66 q 554 -82 572 -92 q 514 -35 537 -72 q 457 69 492 2 m 344 28 l 417 40 q 435 -81 431 -40 q 432 -137 440 -122 q 404 -156 424 -152 q 369 -145 380 -160 q 353 -89 358 -131 q 344 28 349 -48 m 214 50 l 283 24 q 252 -74 265 -40 q 224 -119 239 -109 q 186 -121 209 -130 q 164 -94 166 -113 q 174 -40 161 -75 q 214 50 188 -6 m 169 110 q 172 113 171 111 q 174 115 173 115 q 193 123 180 124 q 217 114 206 122 q 234 98 228 108 q 235 78 240 88 q 232 73 234 76 q 228 68 230 70 q 210 55 220 58 q 190 56 200 52 q 174 67 181 59 q 165 80 168 72 q 163 94 162 87 q 169 110 163 102 m 118 161 l 164 90 q 87 21 116 44 q 41 -5 58 -3 q 10 10 24 -8 q 3 44 -3 26 q 38 91 10 63 q 118 161 66 118 z "},"T":{"ha":653,"x_min":0,"x_max":653,"o":"m 339 11 q 272 20 303 11 q 222 49 241 30 q 204 73 211 60 q 193 102 197 87 q 187 135 189 118 q 186 168 185 151 q 340 147 290 142 q 389 189 389 151 q 347 231 389 219 q 193 249 306 242 q 196 288 194 265 q 200 326 198 310 q 303 327 265 324 q 358 343 342 331 q 374 379 374 355 q 356 409 373 399 q 302 419 338 418 q 211 417 267 421 q 237 599 225 515 q 261 763 249 683 q 251 810 267 799 q 204 818 234 821 q 139 808 174 815 q 73 801 104 801 q 20 816 41 800 q 0 874 0 831 q 11 911 0 897 q 45 934 23 926 q 100 946 68 942 q 117 948 108 947 q 135 950 126 949 q 160 953 149 951 q 180 956 171 955 q 229 962 206 959 q 280 968 252 965 q 290 969 285 969 q 301 971 295 970 q 313 972 307 972 q 325 974 319 973 q 336 975 331 974 q 344 976 341 976 q 479 990 421 985 q 575 993 537 995 q 633 979 614 991 q 653 942 653 967 q 631 902 653 916 q 575 880 609 888 q 503 867 540 872 q 433 852 465 861 q 384 828 401 844 q 374 783 367 812 q 434 555 405 656 q 485 376 463 454 q 515 239 506 298 q 514 134 524 179 q 469 56 503 90 q 411 22 447 33 q 339 11 376 11 m 313 867 q 286 875 296 867 q 276 899 276 883 q 286 924 276 915 q 310 933 295 933 q 334 925 326 933 q 343 904 343 916 q 334 877 343 887 q 313 867 325 867 m 382 38 l 390 143 q 428 135 413 140 q 450 121 443 131 q 458 94 458 112 q 449 55 458 67 q 424 39 441 42 q 382 38 408 36 m 392 603 l 367 511 q 334 522 347 517 q 316 536 322 528 q 310 556 310 544 q 320 596 310 585 q 348 607 330 607 q 392 603 366 608 z "},"U":{"ha":896,"x_min":19,"x_max":822,"o":"m 434 22 q 285 44 349 22 q 176 108 220 65 q 110 215 132 151 q 88 366 88 280 q 92 458 88 401 q 105 585 97 515 q 123 727 113 654 q 142 866 133 800 q 159 982 151 933 q 177 1041 165 1022 q 212 1060 188 1060 q 246 1040 235 1060 q 256 979 256 1020 q 254 888 256 947 q 248 757 251 828 q 240 613 244 685 q 234 481 237 540 q 231 390 231 422 q 253 249 231 305 q 321 165 276 192 q 428 138 365 138 q 519 162 483 138 q 571 228 554 186 q 588 323 588 270 q 570 446 588 376 q 527 591 551 517 q 484 730 503 665 q 466 836 466 794 q 512 959 466 910 q 647 1007 558 1007 q 785 951 749 1007 q 822 794 822 894 q 820 717 822 756 q 817 641 819 679 q 812 563 815 602 q 806 485 809 524 q 798 404 802 445 q 748 209 787 296 q 633 73 709 123 q 434 22 557 22 m 419 260 q 370 276 390 260 q 351 326 351 293 q 376 378 351 360 q 430 396 400 396 q 478 377 458 396 q 499 326 499 358 q 475 278 499 296 q 419 260 451 260 m 297 960 q 375 952 353 961 q 397 914 397 943 q 378 876 397 887 q 297 860 359 866 q 212 854 261 857 q 127 850 163 851 q 44 859 69 849 q 19 899 19 869 q 43 936 19 926 q 123 951 68 947 q 210 957 160 955 q 297 960 260 959 m 241 701 q 352 694 314 699 q 406 678 391 689 q 420 647 420 667 q 406 612 420 624 q 352 597 392 601 q 234 594 313 594 q 201 595 219 594 q 172 599 184 597 q 132 613 144 603 q 120 647 120 624 q 133 689 120 676 q 174 701 147 701 q 209 701 191 701 q 241 701 226 701 m 667 979 q 692 967 683 981 q 701 938 701 954 q 692 909 701 922 q 666 896 684 896 q 661 896 664 896 q 656 896 658 896 q 624 910 635 896 q 613 942 613 925 q 622 967 613 956 q 649 979 631 978 q 658 979 653 979 q 667 979 663 979 m 670 578 q 718 592 703 578 q 733 631 733 607 q 716 680 733 663 q 677 697 700 697 q 628 681 644 697 q 613 644 613 665 q 628 593 613 609 q 670 578 642 578 m 642 751 q 697 769 678 751 q 716 815 716 786 q 698 868 716 849 q 647 888 679 888 q 598 871 615 888 q 580 824 580 855 q 599 772 580 792 q 642 751 619 751 m 697 410 q 731 424 719 410 q 744 456 744 438 q 731 497 744 485 q 697 508 719 508 q 659 497 674 508 q 645 458 645 485 q 658 423 645 435 q 697 410 671 410 z "},"V":{"ha":856,"x_min":-6,"x_max":842,"o":"m 465 -31 q 346 6 394 -31 q 258 146 298 42 q 191 325 224 233 q 124 510 157 417 q 239 542 208 524 q 269 583 269 560 q 226 623 269 617 q 94 593 183 630 q 77 639 85 615 q 63 683 69 663 q 187 717 156 700 q 218 760 218 734 q 197 794 218 785 q 135 797 176 803 q 35 765 94 790 q 33 768 34 767 q 32 772 33 770 q 30 776 31 774 q 28 781 29 778 q 37 940 -6 881 q 179 999 79 999 q 268 967 233 999 q 314 868 303 935 q 363 492 344 662 q 406 158 382 322 q 428 98 412 115 q 472 81 445 81 q 519 108 503 81 q 543 181 535 135 q 606 532 576 355 q 667 883 635 710 q 692 945 674 923 q 739 967 709 967 q 794 935 783 967 q 796 857 806 904 q 747 615 772 738 q 694 369 722 492 q 692 358 693 364 q 689 346 690 352 q 686 335 688 340 q 680 310 683 322 q 674 283 677 297 q 668 257 671 270 q 661 229 665 243 q 658 218 660 224 q 656 208 657 213 q 653 197 654 203 q 648 176 651 187 q 643 156 645 166 q 639 139 641 147 q 635 122 637 131 q 602 40 623 74 q 549 -12 582 6 q 465 -31 515 -31 m 485 697 q 429 722 453 697 q 406 785 406 747 q 431 852 406 826 q 488 878 456 878 q 561 852 535 878 q 586 785 586 826 q 563 719 586 741 q 485 697 539 697 m 749 528 q 819 522 797 530 q 842 486 842 515 q 832 455 842 465 q 800 440 822 445 q 740 431 778 435 q 655 422 698 426 q 569 417 613 419 q 482 423 509 414 q 454 463 454 433 q 481 501 454 491 q 564 517 507 512 q 656 523 610 521 q 749 528 703 526 m 208 946 q 237 948 224 949 q 258 939 250 947 q 265 915 265 931 q 259 882 265 892 q 232 865 253 872 q 192 854 211 859 q 156 846 174 849 q 123 856 138 843 q 107 890 107 869 q 114 916 107 909 q 142 929 120 923 q 175 939 158 935 q 208 946 192 943 m 169 982 q 188 972 182 982 q 194 949 194 961 q 189 924 194 934 q 169 913 184 914 q 160 913 165 913 q 151 913 156 913 q 132 920 137 913 q 126 949 126 927 q 132 973 126 965 q 151 982 137 981 q 160 982 156 982 q 169 982 165 982 z "},"W":{"ha":1211,"x_min":-1,"x_max":1199,"o":"m 58 808 q 60 880 50 853 q 106 907 69 907 q 142 889 128 907 q 167 835 156 870 q 215 659 192 749 q 260 482 238 570 q 307 308 283 393 q 339 272 317 272 q 358 283 349 272 q 371 314 367 293 q 414 569 396 440 q 457 825 432 697 q 500 919 469 885 q 582 953 531 953 q 667 922 642 953 q 701 833 691 891 q 703 823 703 828 q 704 818 704 818 q 589 790 620 806 q 563 747 558 774 q 606 721 568 720 q 719 746 644 722 q 729 704 725 725 q 736 663 733 683 q 648 645 677 655 q 610 624 619 636 q 603 596 601 612 q 643 568 607 569 q 750 589 679 567 q 793 367 772 478 q 836 147 813 256 q 867 117 842 117 q 887 126 878 117 q 896 153 896 135 q 898 376 898 263 q 897 602 897 489 q 900 824 897 715 q 938 953 902 917 q 1046 989 974 989 q 1165 936 1131 989 q 1176 786 1199 883 q 1095 447 1137 610 q 1006 126 1053 284 q 956 19 985 56 q 860 -17 926 -17 q 769 20 797 -17 q 725 118 741 58 q 687 280 706 190 q 646 454 669 369 q 617 488 638 488 q 599 481 608 488 q 583 463 590 474 q 561 423 572 443 q 539 382 549 403 q 532 368 535 375 q 525 355 528 362 q 519 342 522 349 q 511 325 515 333 q 503 308 507 317 q 494 292 499 300 q 484 270 490 281 q 474 249 479 259 q 468 236 471 242 q 462 225 465 231 q 456 213 459 219 q 448 198 452 206 q 441 184 444 191 q 433 169 437 176 q 423 150 428 160 q 413 131 418 140 q 364 76 391 92 q 304 60 338 60 q 239 89 260 60 q 206 164 217 118 q 127 484 164 324 q 58 808 90 645 m 232 635 q 306 635 275 639 q 337 597 337 632 q 311 560 337 574 q 246 539 285 547 q 180 527 213 533 q 114 517 147 521 q 30 515 60 510 q -1 560 -1 520 q 24 599 -1 588 q 100 618 48 610 q 166 628 133 624 q 232 635 199 632 m 200 447 l 213 358 q 113 348 157 351 q 43 353 69 344 q 18 395 18 363 q 60 434 18 424 q 200 447 103 444 m 1046 764 q 1091 781 1074 764 q 1108 835 1108 797 q 1092 879 1108 864 q 1040 894 1075 894 q 995 878 1013 894 q 978 828 978 863 q 995 780 978 796 q 1046 764 1012 764 m 493 529 q 468 540 478 529 q 458 572 458 551 q 468 595 458 586 q 497 604 478 604 q 524 594 514 604 q 533 567 533 585 q 523 539 533 548 q 493 529 513 529 m 1126 939 q 1135 929 1134 937 q 1133 914 1137 922 q 1126 902 1131 907 q 1113 899 1120 897 q 1104 902 1108 900 q 1096 904 1100 903 q 1086 916 1088 908 q 1088 932 1085 924 q 1095 942 1090 938 q 1108 944 1101 947 q 1117 942 1113 944 q 1126 939 1122 940 m 972 918 q 986 906 984 914 q 983 888 988 897 q 973 876 981 881 q 956 876 966 872 q 950 879 953 878 q 944 881 948 880 q 935 891 938 883 q 935 907 933 899 q 943 921 937 915 q 957 924 949 927 q 965 921 960 923 q 972 918 969 919 z "},"X":{"ha":800,"x_min":15,"x_max":790,"o":"m 106 -57 q 62 -40 78 -57 q 45 6 45 -23 q 61 71 45 33 q 126 198 90 135 q 193 329 163 262 q 219 405 214 376 q 225 450 225 433 q 216 504 225 474 q 178 585 206 534 q 110 697 147 642 q 42 814 74 751 q 22 865 28 839 q 15 915 15 890 q 66 1025 15 986 q 192 1063 117 1063 q 261 1053 233 1063 q 308 1024 289 1044 q 335 980 329 1003 q 344 924 342 956 q 225 920 266 926 q 169 903 184 915 q 156 872 155 891 q 206 835 157 839 q 346 842 256 831 q 345 803 346 820 q 342 765 344 785 q 232 759 260 769 q 203 724 204 749 q 231 684 202 694 q 339 682 260 674 q 338 652 338 667 q 339 621 338 637 q 361 558 342 581 q 411 536 379 536 q 456 551 436 536 q 490 604 476 566 q 544 750 517 674 q 603 901 571 826 q 634 950 617 935 q 669 965 650 965 q 707 952 692 965 q 722 915 722 940 q 708 853 722 890 q 656 727 687 790 q 600 601 625 664 q 575 524 581 553 q 569 475 569 494 q 578 432 569 458 q 613 358 587 406 q 670 266 639 310 q 724 174 701 222 q 741 131 735 151 q 747 94 747 110 q 725 46 747 64 q 678 28 704 28 q 585 113 626 28 q 546 203 564 157 q 508 293 528 249 q 464 368 485 347 q 408 389 443 389 q 348 369 375 389 q 299 297 322 349 q 239 148 267 224 q 179 3 210 73 q 147 -42 166 -27 q 106 -57 128 -57 m 681 738 q 613 750 649 743 q 547 764 576 757 q 469 792 491 777 q 453 838 447 808 q 488 867 458 864 q 561 861 517 869 q 633 846 594 855 q 704 828 672 838 q 773 798 756 813 q 785 758 790 783 q 758 731 781 733 q 681 738 735 728 m 569 597 l 594 685 q 726 645 696 664 q 747 594 756 626 q 701 564 739 565 q 569 597 663 564 m 400 13 q 340 35 362 13 q 318 97 318 58 q 343 161 318 138 q 415 185 368 185 q 467 164 444 185 q 490 90 490 142 q 466 34 490 56 q 400 13 441 13 m 151 76 q 142 81 147 78 q 131 86 136 84 q 110 103 116 92 q 111 131 105 114 q 132 157 117 153 q 161 156 146 161 q 168 154 165 155 q 174 151 171 153 q 196 132 190 147 q 196 99 202 117 q 177 75 189 79 q 151 76 165 72 m 482 485 q 482 485 482 485 q 482 485 482 485 q 482 485 482 485 q 482 485 482 485 q 482 485 482 485 q 482 485 482 485 q 482 485 482 485 q 482 485 482 485 m 511 432 q 511 432 511 432 q 511 432 511 432 q 511 432 511 432 q 511 432 511 432 q 511 432 511 432 q 511 432 511 432 q 511 432 511 432 q 511 432 511 432 m 107 8 q 100 11 104 10 q 93 13 97 12 q 80 25 82 16 q 81 43 78 35 q 91 59 84 53 q 107 61 99 65 q 115 59 111 60 q 122 56 118 57 q 134 42 133 51 q 131 22 135 32 q 121 11 128 15 q 107 8 115 6 z "},"Y":{"ha":794,"x_min":14,"x_max":835,"o":"m 61 700 q 25 766 36 733 q 14 828 14 799 q 35 916 14 880 q 93 971 57 952 q 174 990 130 990 q 261 964 227 990 q 324 886 296 938 q 378 778 352 835 q 432 670 403 722 q 449 648 440 656 q 468 640 458 640 q 492 647 480 640 q 513 672 504 655 q 585 805 549 733 q 656 935 622 876 q 689 975 672 960 q 728 990 706 990 q 753 984 743 990 q 769 966 764 978 q 775 939 775 955 q 771 911 775 926 q 758 881 767 897 q 715 803 735 838 q 676 736 695 768 q 667 721 672 728 q 658 706 663 713 q 651 694 655 700 q 644 683 648 688 q 638 671 641 677 q 624 649 631 660 q 610 626 617 638 q 602 611 606 619 q 593 597 598 604 q 581 576 588 587 q 569 555 575 566 q 546 517 558 537 q 523 474 535 497 q 500 427 510 451 q 483 375 489 402 q 478 317 477 348 q 491 183 483 247 q 505 50 500 119 q 490 -30 508 -1 q 420 -58 472 -58 q 354 -29 374 -58 q 334 51 333 1 q 342 149 335 99 q 347 245 348 199 q 336 313 347 280 q 296 390 326 345 q 180 547 241 470 q 61 700 119 623 m 183 752 q 230 770 215 752 q 246 817 246 788 q 230 861 246 846 q 175 877 214 877 q 134 858 148 877 q 121 809 121 838 q 138 768 121 783 q 183 752 154 752 m 282 601 q 319 615 305 601 q 333 651 333 629 q 317 700 333 683 q 272 717 301 717 q 232 702 247 717 q 217 652 217 688 q 234 615 217 629 q 282 601 252 601 m 384 466 q 419 478 405 466 q 434 510 434 491 q 420 554 434 539 q 390 569 406 569 q 346 554 360 569 q 331 517 331 540 q 345 479 331 492 q 384 466 359 466 m 744 769 q 659 813 699 791 q 583 860 619 835 q 523 913 541 888 q 520 964 505 938 q 568 981 536 988 q 636 951 599 974 q 712 905 673 929 q 792 851 751 881 q 826 817 817 835 q 821 776 835 799 q 789 756 808 755 q 744 769 769 758 m 640 624 q 581 660 610 642 q 522 699 551 679 q 469 742 483 726 q 467 781 456 759 q 504 802 478 805 q 565 781 530 799 q 636 744 601 763 q 707 706 672 726 q 753 664 739 688 q 754 616 768 640 q 707 597 740 590 q 640 624 674 604 m 92 861 q 86 857 89 859 q 81 853 84 855 q 64 851 72 847 q 53 864 56 856 q 50 876 50 870 q 57 885 51 882 q 62 888 59 886 q 67 890 65 890 q 79 892 73 894 q 89 885 85 890 q 96 873 94 880 q 92 861 97 865 m 199 931 q 194 929 197 930 q 189 926 191 928 q 173 928 181 922 q 161 940 165 933 q 158 957 157 949 q 167 968 158 965 q 173 971 170 969 q 179 974 176 973 q 195 972 188 978 q 207 958 203 967 q 209 943 210 951 q 199 931 208 935 z "},"Z":{"ha":711,"x_min":21,"x_max":668,"o":"m 53 215 q 163 423 108 322 q 270 624 217 525 q 372 818 324 722 q 378 875 390 853 q 326 892 366 897 q 233 874 278 886 q 139 856 187 861 q 56 861 91 851 q 21 917 21 872 q 49 972 21 956 q 125 992 76 988 q 280 1000 201 997 q 457 1004 358 1003 q 608 960 559 1005 q 658 850 658 915 q 599 700 658 775 q 592 692 596 697 q 586 684 589 688 q 579 676 583 680 q 483 753 513 742 q 435 741 453 764 q 440 689 416 716 q 524 609 463 661 q 496 575 510 592 q 465 538 481 557 q 382 590 410 579 q 338 578 354 601 q 342 528 321 556 q 408 469 363 501 q 328 373 368 421 q 254 281 288 324 q 196 206 220 238 q 188 168 183 188 q 222 146 193 149 q 397 131 309 137 q 572 117 484 126 q 644 96 620 112 q 668 44 668 80 q 655 6 668 20 q 617 -14 642 -9 q 554 -15 592 -19 q 332 12 447 -4 q 103 46 216 28 q 49 75 67 51 q 30 133 30 99 q 36 172 30 151 q 53 215 42 193 m 203 667 q 151 687 169 667 q 132 740 132 707 q 153 788 132 771 q 203 804 175 804 q 258 789 240 804 q 276 747 276 774 q 256 687 276 708 q 203 667 236 667 m 469 -17 q 469 69 469 26 q 469 154 469 112 q 484 243 471 214 q 531 271 497 272 q 575 241 566 270 q 582 149 583 211 q 578 59 581 104 q 572 -32 576 13 q 557 -106 569 -84 q 515 -128 544 -128 q 479 -98 488 -128 q 469 -17 471 -69 m 250 36 q 265 86 258 61 q 282 136 273 111 q 313 197 298 178 q 348 215 327 215 q 387 188 383 215 q 383 121 391 160 q 372 63 378 92 q 357 4 365 33 q 328 -62 346 -42 q 288 -83 310 -83 q 249 -66 260 -83 q 239 -23 238 -50 q 250 36 241 4 m 225 953 q 225 940 225 947 q 225 926 225 933 q 214 906 225 913 q 182 899 203 899 q 150 906 160 899 q 139 925 139 913 q 139 936 139 931 q 139 947 139 942 q 146 970 139 962 q 176 978 153 978 q 214 973 203 978 q 225 953 224 969 m 363 918 l 285 922 q 288 963 285 948 q 300 984 291 978 q 326 990 309 990 q 361 972 356 990 q 363 918 367 953 m 411 50 q 411 50 411 50 q 411 50 411 50 q 411 50 411 50 q 411 50 411 50 q 411 50 411 50 q 411 50 411 50 q 411 50 411 50 q 411 50 411 50 m 472 46 q 472 46 472 46 q 472 46 472 46 q 472 46 472 46 q 472 46 472 46 q 472 46 472 46 q 472 46 472 46 q 472 46 472 46 q 472 46 472 46 z "},"":{"ha":785,"x_min":14,"x_max":776,"o":"m 31 136 q 64 228 40 163 q 118 377 88 293 q 179 546 149 462 q 184 558 182 552 q 188 570 186 565 q 192 583 190 576 q 199 600 196 591 q 205 617 202 608 q 221 660 213 639 q 235 701 228 681 q 240 713 238 707 q 244 725 242 719 q 249 736 247 731 q 256 756 252 747 q 263 774 260 765 q 280 821 274 803 q 288 842 287 839 q 354 927 310 899 q 456 954 399 956 q 558 923 515 953 q 613 831 601 892 q 616 814 614 822 q 618 797 617 806 q 506 775 535 789 q 476 738 476 762 q 497 699 476 708 q 553 694 517 690 q 635 707 589 699 q 643 665 639 686 q 650 624 647 644 q 559 602 585 615 q 533 563 533 589 q 553 524 533 532 q 604 520 574 515 q 667 533 635 524 q 694 394 681 464 q 719 256 707 325 q 744 119 732 188 q 768 -17 757 51 q 760 -76 776 -55 q 721 -97 744 -97 q 685 -84 703 -97 q 657 -43 667 -71 q 545 278 601 113 q 436 592 490 444 q 407 651 422 633 q 368 669 393 669 q 329 653 344 669 q 301 590 313 636 q 238 339 269 467 q 176 93 207 211 q 144 38 166 55 q 97 21 122 21 q 33 55 53 21 q 31 136 14 88 m 171 349 l 197 436 q 261 438 230 438 q 325 436 293 438 q 397 424 373 434 q 421 383 421 415 q 400 343 421 353 q 319 335 379 332 q 245 341 282 337 q 171 349 208 344 m 185 169 q 133 187 153 174 q 114 221 114 200 q 139 262 114 253 q 200 267 165 270 q 391 250 291 260 q 589 231 490 241 l 617 125 q 389 147 500 135 q 185 169 278 158 m 229 640 q 155 675 183 660 q 114 703 126 690 q 101 733 101 717 q 125 773 101 766 q 187 770 149 781 q 269 742 226 760 l 229 640 m 181 479 q 93 506 126 494 q 47 530 61 518 q 33 558 33 542 q 57 599 33 592 q 120 597 81 606 q 206 571 159 588 l 181 479 m 571 342 l 550 446 q 607 452 585 452 q 639 436 629 451 q 649 385 649 422 q 629 352 649 359 q 571 342 610 345 m 621 119 l 600 231 q 658 237 636 238 q 689 219 679 235 q 699 164 699 202 q 679 129 699 136 q 621 119 660 122 z "},"":{"ha":785,"x_min":4,"x_max":742,"o":"m 563 379 q 530 447 563 421 q 441 486 497 474 q 315 499 385 499 q 251 489 272 499 q 226 451 231 478 q 226 369 222 423 q 241 283 232 312 q 272 245 250 255 q 339 236 294 236 q 413 245 374 236 q 486 271 452 253 q 541 316 520 289 q 563 379 563 343 m 609 181 q 645 196 634 181 q 657 228 657 211 q 645 263 657 250 q 606 275 633 275 q 573 261 587 275 q 560 230 560 248 q 572 194 560 208 q 609 181 583 181 m 476 83 q 513 98 496 83 q 531 135 531 112 q 516 178 531 160 q 475 196 501 196 q 434 183 450 196 q 418 148 418 170 q 433 102 418 120 q 476 83 447 83 m 306 69 q 341 83 325 69 q 357 122 357 97 q 348 156 357 144 q 315 167 338 167 q 277 152 292 167 q 263 119 263 137 q 275 83 263 97 q 306 69 287 69 m 232 789 q 231 748 231 775 q 231 694 231 722 q 231 649 231 666 q 238 609 231 622 q 264 596 245 597 q 340 591 301 594 q 417 585 380 588 q 482 576 453 581 q 632 522 575 560 q 716 428 690 483 q 742 308 742 374 q 686 125 742 197 q 535 18 631 53 q 322 -17 440 -17 q 197 1 243 -17 q 131 58 151 19 q 110 160 111 97 q 104 484 106 316 q 101 833 101 652 q 114 907 101 881 q 154 945 126 934 q 229 956 182 956 q 424 956 326 956 q 618 953 522 956 q 658 946 640 952 q 685 927 675 940 q 694 896 694 915 q 678 851 694 868 q 624 833 663 833 l 588 833 q 574 833 581 833 q 559 833 566 833 q 544 833 551 833 q 524 833 534 833 q 503 833 515 833 q 462 833 483 833 q 421 833 441 833 q 406 833 413 833 q 391 833 398 833 q 376 833 383 833 q 354 833 365 833 q 331 833 342 833 l 290 833 q 246 824 258 833 q 232 789 233 815 m 417 640 q 361 659 381 640 q 342 706 342 677 q 361 762 342 745 q 420 779 381 779 q 467 763 452 779 q 482 713 482 747 q 464 659 482 677 q 417 640 445 640 m 373 917 l 280 915 q 306 1065 289 1025 q 356 1104 322 1104 q 387 1090 376 1104 q 397 1035 399 1075 q 373 917 394 994 m 568 924 l 474 935 q 505 1056 485 1024 q 553 1088 524 1088 q 591 1052 584 1088 q 568 924 599 1017 m 225 99 q 222 93 223 96 q 218 88 220 91 q 195 69 209 73 q 169 69 182 65 q 144 89 154 75 q 143 118 135 103 q 147 126 145 122 q 151 135 149 131 q 179 155 161 153 q 210 149 197 157 q 228 127 222 142 q 225 99 235 113 m 349 332 q 201 340 272 335 q 71 349 131 344 q 18 366 33 352 q 4 403 4 380 q 18 432 4 419 q 75 443 33 444 q 217 437 143 442 q 356 428 290 432 q 411 410 397 425 q 426 378 426 396 q 408 343 426 357 q 349 332 390 330 m 176 667 q 207 652 197 667 q 215 621 217 637 q 205 595 215 606 q 179 583 195 583 q 172 584 175 583 q 165 585 169 585 q 138 596 149 585 q 125 621 126 608 q 132 651 124 638 q 158 665 140 665 q 167 666 163 665 q 176 667 172 667 z "},"":{"ha":789,"x_min":74,"x_max":758,"o":"m 133 160 q 120 271 128 203 q 105 418 113 340 q 90 572 97 497 q 78 704 83 647 q 74 785 74 761 q 109 851 74 827 q 199 887 144 876 q 316 902 254 899 q 433 906 378 906 q 541 887 496 906 q 610 834 586 869 q 635 749 635 799 q 620 667 635 699 q 587 618 606 636 q 553 588 568 599 q 539 567 539 577 q 543 559 539 562 q 554 554 547 556 q 663 514 619 542 q 730 436 708 487 q 753 306 753 386 q 700 127 753 199 q 556 19 647 56 q 351 -17 465 -17 q 228 1 272 -17 q 163 57 183 18 q 133 160 142 95 m 408 817 q 306 797 340 817 q 260 734 272 777 q 249 621 249 690 q 255 587 249 600 q 272 568 260 574 q 299 562 283 562 q 371 577 333 562 q 444 616 410 592 q 501 672 479 641 q 524 733 524 702 q 511 780 524 762 q 473 808 498 799 q 408 817 447 817 m 246 181 q 253 131 246 151 q 273 101 260 111 q 303 90 285 90 q 357 113 328 90 q 412 173 385 136 q 461 251 439 210 q 496 332 483 293 q 509 398 509 372 q 502 436 509 420 q 481 463 494 452 q 450 478 468 473 q 410 483 432 483 q 315 452 351 483 q 263 354 279 421 q 246 181 246 287 m 629 303 q 662 315 650 303 q 674 349 674 327 q 663 381 674 369 q 625 392 652 392 q 596 381 608 392 q 585 346 585 370 q 597 315 585 326 q 629 303 608 303 m 599 158 q 633 174 619 158 q 647 213 647 189 q 633 249 647 237 q 603 261 619 261 q 558 248 572 261 q 544 210 544 235 q 559 172 544 185 q 599 158 574 158 m 497 65 q 526 78 514 65 q 538 111 538 90 q 527 143 538 131 q 497 154 516 154 q 460 143 472 154 q 449 107 449 132 q 460 77 449 88 q 497 65 472 65 m 244 864 l 160 849 q 131 975 138 931 q 134 1036 124 1019 q 172 1053 144 1053 q 208 1037 195 1053 q 229 981 221 1022 q 244 864 237 940 m 426 874 l 329 879 q 343 980 336 944 q 363 1029 351 1015 q 394 1043 374 1043 q 428 1027 419 1043 q 436 975 438 1012 q 426 874 435 938 m 543 801 l 497 863 q 566 931 537 903 q 615 971 594 958 q 650 984 635 984 q 670 979 661 984 q 683 966 678 974 q 688 945 688 957 q 653 892 688 924 q 543 801 617 861 m 499 826 l 433 843 q 440 866 436 857 q 449 880 443 876 q 463 885 454 885 q 492 878 481 885 q 506 859 503 872 q 499 826 508 846 m 607 753 q 592 748 600 751 q 576 742 585 745 q 553 741 562 737 q 538 763 545 745 q 535 783 533 772 q 544 797 536 793 q 560 806 551 801 q 578 814 569 811 q 591 815 585 817 q 604 807 598 813 q 614 793 610 801 q 618 777 617 785 q 617 763 619 769 q 607 753 614 756 m 553 656 l 586 736 q 703 708 667 719 q 749 684 739 696 q 758 655 758 672 q 738 622 758 629 q 672 624 717 615 q 553 656 626 633 m 292 31 q 288 25 290 28 q 285 19 287 23 q 262 2 276 5 q 236 1 249 -1 q 211 21 221 7 q 210 50 201 35 q 213 56 211 53 q 215 61 214 58 q 218 67 217 64 q 245 87 228 85 q 276 81 263 89 q 295 59 289 74 q 292 31 301 45 z "},"":{"ha":648,"x_min":2,"x_max":660,"o":"m 322 76 q 322 17 326 42 q 305 -22 317 -8 q 273 -35 293 -35 q 232 -13 247 -35 q 209 49 217 9 q 161 303 181 197 q 127 488 141 410 q 103 627 113 566 q 85 747 94 689 q 91 857 76 816 q 149 919 106 898 q 267 951 192 941 q 334 960 300 956 q 401 968 368 965 q 463 973 433 971 q 515 976 492 976 q 624 942 588 980 q 660 832 660 905 q 635 720 660 757 q 569 672 610 683 q 481 665 528 661 q 390 676 434 669 q 313 682 346 683 q 270 660 281 681 q 268 654 269 657 q 266 648 267 651 q 264 640 265 644 q 264 631 264 636 q 263 621 263 626 q 263 609 263 615 q 264 597 263 603 q 265 585 264 591 q 266 573 265 579 q 267 560 267 567 q 278 466 272 519 q 292 349 285 412 q 306 217 299 286 q 322 76 314 148 m 240 631 q 240 631 240 631 q 240 631 240 631 q 240 631 240 631 q 240 631 240 631 q 240 631 240 631 q 240 631 240 631 q 240 631 240 631 q 240 631 240 631 m 207 768 q 248 780 236 768 q 259 817 259 792 q 246 849 259 836 q 217 861 233 861 q 178 845 190 861 q 166 806 166 830 q 179 778 166 788 q 207 768 192 768 m 369 772 q 405 785 393 772 q 417 824 417 798 q 406 857 417 844 q 373 869 394 869 q 331 857 342 869 q 320 824 320 845 q 333 785 320 799 q 369 772 345 772 m 528 763 q 576 775 562 763 q 590 822 590 787 q 572 859 590 845 q 534 872 554 872 q 491 855 502 872 q 480 817 480 838 q 494 775 480 788 q 528 763 508 763 m 276 219 l 251 317 q 348 326 303 322 q 418 323 392 331 q 445 282 445 315 q 399 239 445 248 q 276 219 353 231 m 172 622 l 203 525 q 108 513 155 519 q 32 515 62 506 q 2 559 2 523 q 49 608 2 598 q 172 622 96 617 m 455 563 q 493 545 479 563 q 506 503 506 528 q 488 446 506 472 q 428 421 469 421 q 382 444 399 421 q 365 492 365 467 q 385 545 365 528 q 455 563 406 563 z "},"":{"ha":931,"x_min":-4,"x_max":920,"o":"m 388 985 q 491 952 456 985 q 553 841 527 919 q 570 791 562 817 q 587 738 578 765 q 593 721 590 729 q 599 704 596 713 q 604 687 601 696 q 608 674 606 681 q 613 662 610 668 q 617 649 615 656 q 625 624 621 637 q 633 599 629 612 q 638 586 635 592 q 642 574 640 580 q 652 543 647 558 q 661 513 656 528 q 672 477 663 508 q 691 405 680 447 q 714 322 703 363 q 734 250 726 280 q 743 217 742 221 q 768 180 751 191 q 815 169 785 169 q 897 152 874 169 q 920 88 920 135 q 916 28 920 69 q 907 -58 913 -14 q 899 -128 902 -101 q 885 -179 894 -161 q 854 -197 876 -197 q 822 -182 835 -197 q 806 -136 810 -167 q 801 -96 804 -122 q 795 -44 798 -69 q 789 -7 792 -18 q 778 23 785 12 q 747 42 772 33 q 691 51 731 47 q 598 55 651 54 q 492 56 546 56 q 393 55 438 56 q 324 53 348 54 q 285 42 294 52 q 276 17 276 31 q 283 -16 276 4 q 297 -59 289 -37 q 312 -100 306 -81 q 318 -129 318 -119 q 303 -165 318 -155 q 269 -175 288 -175 q 237 -164 249 -175 q 219 -131 225 -153 q 212 -91 217 -116 q 203 -46 207 -65 q 191 -16 199 -28 q 165 -4 183 -4 q 165 -4 165 -4 q 165 -4 165 -4 q 165 -4 165 -4 q 165 -4 165 -4 q 139 -15 149 -4 q 128 -46 129 -25 q 129 -85 127 -60 q 134 -134 131 -110 q 136 -172 136 -159 q 101 -215 136 -215 q 68 -196 81 -215 q 42 -131 56 -177 q 20 -59 31 -95 q 3 8 10 -23 q -4 61 -4 40 q 8 110 -4 92 q 58 138 21 127 q 102 156 81 144 q 130 207 124 167 q 143 294 135 244 q 160 400 151 344 q 180 514 169 456 q 200 625 190 572 q 299 612 260 611 q 338 648 338 613 q 313 683 338 668 q 214 704 288 697 q 222 748 218 726 q 231 790 226 769 q 321 776 280 781 q 388 777 363 771 q 413 809 413 784 q 378 848 413 833 q 246 869 344 863 q 248 881 247 875 q 250 892 249 887 q 296 962 260 939 q 388 985 333 985 m 476 681 q 441 659 458 681 q 393 568 424 637 q 332 424 367 510 q 264 249 297 338 q 251 172 244 194 q 293 151 259 151 q 352 154 317 153 q 425 158 386 156 q 503 162 464 160 q 574 165 542 164 q 625 180 615 167 q 628 222 635 193 q 596 349 613 285 q 564 474 580 413 q 533 588 548 534 q 518 636 526 615 q 501 669 510 657 q 476 681 491 681 m 783 260 q 701 258 742 259 q 623 256 661 257 q 550 255 585 256 q 483 256 515 255 q 429 267 445 256 q 413 300 413 278 q 425 330 413 318 q 479 344 437 342 q 555 349 516 347 q 632 352 593 351 q 709 355 672 354 q 782 357 747 356 q 840 345 823 358 q 857 313 857 331 q 841 276 857 292 q 783 260 825 261 m 225 368 q 225 368 225 368 q 225 368 225 368 q 225 368 225 368 q 225 368 225 368 q 225 368 225 368 q 225 368 225 368 q 225 368 225 368 q 225 368 225 368 q 225 368 225 368 q 225 368 225 368 q 225 368 225 368 q 225 368 225 368 m 235 460 q 206 476 214 461 q 198 501 197 490 q 207 524 199 510 q 235 537 215 537 q 265 537 254 537 q 294 535 275 537 q 316 520 311 535 q 321 497 321 506 q 315 473 321 485 q 292 460 308 460 q 266 460 276 460 q 235 460 257 460 m 713 619 q 654 618 689 619 q 585 618 619 617 q 546 631 553 619 q 539 664 539 642 q 549 697 539 682 q 592 714 558 713 q 658 716 631 716 q 711 715 684 716 q 768 701 751 715 q 786 666 786 688 q 770 632 786 645 q 713 619 754 619 m 738 439 q 691 438 708 438 q 659 437 674 437 q 621 438 644 438 q 577 450 590 438 q 564 483 564 462 q 574 517 564 501 q 617 533 583 532 q 677 535 656 535 q 736 536 699 535 q 794 524 777 537 q 811 492 811 510 q 795 456 811 471 q 738 439 779 440 z "},"":{"ha":675,"x_min":63,"x_max":665,"o":"m 68 97 q 85 302 76 190 q 104 531 94 415 q 106 544 105 538 q 107 558 106 551 q 108 572 108 565 q 110 589 109 581 q 111 605 110 597 q 113 621 112 613 q 115 647 114 634 q 117 673 116 660 q 120 697 119 685 q 122 719 121 708 q 124 744 123 732 q 126 767 125 756 q 128 784 127 776 q 129 800 128 792 q 160 881 135 856 q 239 922 185 907 q 314 941 270 931 q 403 959 357 951 q 488 973 449 968 q 547 978 526 978 q 636 940 608 978 q 665 838 665 901 q 648 738 665 783 q 598 668 631 692 q 518 656 565 644 q 543 751 533 709 q 547 818 553 794 q 509 843 542 843 q 467 803 479 843 q 440 672 456 763 q 406 682 422 678 q 369 690 390 685 q 370 811 376 780 q 335 843 365 843 q 306 832 315 843 q 293 792 296 820 q 290 717 290 765 q 278 720 284 719 q 265 721 272 721 q 240 711 248 721 q 231 683 232 701 q 225 541 226 613 q 224 400 224 469 q 238 372 224 381 q 279 371 252 363 q 389 405 342 391 q 460 425 436 419 q 513 414 493 433 q 532 368 532 394 q 521 334 532 350 q 485 311 510 317 q 466 307 476 309 q 447 302 457 304 q 436 299 442 301 q 425 297 431 298 q 416 295 420 296 q 408 292 412 294 q 394 289 401 291 q 381 286 388 288 q 375 285 378 285 q 369 283 372 284 q 363 282 366 283 q 356 281 359 281 q 349 279 353 280 q 342 277 346 278 q 323 273 333 275 q 306 268 314 270 q 277 252 283 263 q 274 225 271 242 q 284 175 277 206 q 300 121 291 144 q 319 98 308 102 q 347 100 330 94 q 450 140 393 118 q 542 169 506 161 q 606 154 584 179 q 627 97 627 128 q 615 54 627 74 q 579 31 603 35 q 390 2 494 16 q 186 -17 285 -11 q 95 8 127 -19 q 68 97 63 35 m 318 83 l 408 86 q 411 48 413 65 q 400 22 409 32 q 374 10 391 12 q 342 16 354 7 q 325 43 331 25 q 318 83 319 60 m 476 75 q 475 88 476 81 q 474 100 474 94 q 482 124 474 114 q 514 139 491 135 q 548 139 535 143 q 564 119 561 135 q 566 109 565 115 q 568 97 567 103 q 563 67 572 80 q 531 49 553 54 q 492 49 505 44 q 476 75 480 54 m 357 483 q 303 499 321 483 q 286 556 286 514 q 303 593 286 576 q 346 611 321 611 q 398 595 381 611 q 414 546 414 579 q 398 499 414 514 q 357 483 382 483 m 382 907 q 390 923 382 915 q 413 931 398 930 q 435 928 424 932 q 446 914 446 924 q 446 906 446 911 q 446 896 446 900 q 437 878 446 885 q 415 869 428 871 q 394 873 404 869 q 382 890 383 878 q 382 899 382 894 q 382 907 382 903 m 211 817 l 204 761 q 178 771 187 763 q 171 793 170 778 q 184 813 172 810 q 211 817 196 817 z "},"":{"ha":675,"x_min":63,"x_max":665,"o":"m 68 97 q 85 302 76 190 q 104 531 94 415 q 106 544 105 538 q 107 558 106 551 q 108 572 108 565 q 110 589 109 581 q 111 605 110 597 q 113 621 112 613 q 115 647 114 634 q 117 673 116 660 q 120 697 119 685 q 122 719 121 708 q 124 744 123 732 q 126 767 125 756 q 128 784 127 776 q 129 800 128 792 q 160 881 135 856 q 239 922 185 907 q 314 941 270 931 q 403 959 357 951 q 488 973 449 968 q 547 978 526 978 q 636 940 608 978 q 665 838 665 901 q 648 738 665 783 q 598 668 631 692 q 518 656 565 644 q 543 751 533 709 q 547 818 553 794 q 509 843 542 843 q 467 803 479 843 q 440 672 456 763 q 406 682 422 678 q 369 690 390 685 q 370 811 376 780 q 335 843 365 843 q 306 832 315 843 q 293 792 296 820 q 290 717 290 765 q 278 720 284 719 q 265 721 272 721 q 240 711 248 721 q 231 683 232 701 q 225 541 226 613 q 224 400 224 469 q 238 372 224 381 q 279 371 252 363 q 389 405 342 391 q 460 425 436 419 q 513 414 493 433 q 532 368 532 394 q 521 334 532 350 q 485 311 510 317 q 466 307 476 309 q 447 302 457 304 q 436 299 442 301 q 425 297 431 298 q 416 295 420 296 q 408 292 412 294 q 394 289 401 291 q 381 286 388 288 q 375 285 378 285 q 369 283 372 284 q 363 282 366 283 q 356 281 359 281 q 349 279 353 280 q 342 277 346 278 q 323 273 333 275 q 306 268 314 270 q 277 252 283 263 q 274 225 271 242 q 284 175 277 206 q 300 121 291 144 q 319 98 308 102 q 347 100 330 94 q 450 140 393 118 q 542 169 506 161 q 606 154 584 179 q 627 97 627 128 q 615 54 627 74 q 579 31 603 35 q 390 2 494 16 q 186 -17 285 -11 q 95 8 127 -19 q 68 97 63 35 m 318 83 l 408 86 q 411 48 413 65 q 400 22 409 32 q 374 10 391 12 q 342 16 354 7 q 325 43 331 25 q 318 83 319 60 m 476 75 q 475 88 476 81 q 474 100 474 94 q 495 133 474 125 q 533 142 516 142 q 554 136 546 142 q 564 119 562 131 q 566 109 565 115 q 568 97 567 103 q 553 58 574 69 q 508 46 533 46 q 486 53 494 46 q 476 75 478 60 m 351 483 q 305 502 324 483 q 286 547 286 520 q 305 592 286 574 q 351 611 324 611 q 396 592 378 611 q 414 547 414 574 q 396 502 414 520 q 351 483 378 483 m 382 901 l 446 910 q 444 890 446 898 q 436 876 442 881 q 415 869 429 871 q 394 872 401 868 q 384 884 387 876 q 382 901 382 892 m 211 817 l 204 761 q 178 771 187 763 q 171 793 170 778 q 184 813 172 810 q 211 817 196 817 m 288 999 q 210 1025 235 999 q 185 1086 185 1052 q 213 1166 185 1138 q 283 1193 241 1193 q 355 1168 331 1193 q 379 1103 379 1144 q 353 1024 379 1050 q 288 999 327 999 m 532 1015 q 468 1039 492 1015 q 444 1099 444 1063 q 466 1164 444 1138 q 542 1189 487 1189 q 598 1167 578 1189 q 618 1107 618 1144 q 597 1040 618 1065 q 532 1015 575 1015 z "},"":{"ha":1372,"x_min":22,"x_max":1346,"o":"m 1346 50 q 1333 14 1346 27 q 1304 1 1321 1 q 1256 15 1285 1 q 1175 64 1227 29 q 1036 161 1124 99 q 813 317 949 222 q 786 327 797 328 q 769 319 775 327 q 764 297 764 310 q 771 230 764 274 q 785 142 778 187 q 792 68 792 97 q 772 1 792 26 q 714 -24 751 -24 q 652 5 672 -24 q 632 97 632 34 q 634 180 632 128 q 639 285 636 231 q 643 378 642 339 q 610 434 645 428 q 538 399 574 440 q 425 272 476 330 q 330 166 373 214 q 252 82 287 119 q 189 17 217 44 q 136 -32 163 -10 q 84 -62 109 -54 q 40 -53 60 -70 q 28 -9 22 -35 q 52 48 33 18 q 93 106 72 78 q 139 162 113 131 q 202 232 166 193 q 283 317 238 270 q 383 419 328 364 q 391 427 388 424 q 396 433 394 431 q 400 441 399 438 q 401 447 401 444 q 399 457 401 453 q 390 468 396 461 q 382 476 386 472 q 372 488 378 481 q 362 499 367 493 q 349 513 356 506 q 424 598 409 569 q 419 644 438 627 q 362 645 394 669 q 285 575 330 622 q 259 604 274 587 q 232 636 244 621 q 295 714 279 681 q 294 763 311 746 q 260 771 280 776 q 220 748 241 766 q 179 704 199 729 q 85 835 124 775 q 43 926 47 895 q 47 951 42 939 q 62 971 51 963 q 88 979 72 979 q 133 966 106 979 q 211 917 161 952 q 346 818 262 882 q 560 653 430 754 q 583 642 572 643 q 600 648 594 640 q 607 674 607 656 q 602 736 607 695 q 593 818 598 777 q 588 879 588 858 q 605 952 585 928 q 663 976 624 976 q 720 957 697 976 q 742 888 743 937 q 735 776 742 836 q 722 663 728 715 q 715 583 715 610 q 734 534 715 548 q 777 525 753 521 q 817 546 801 528 q 962 704 903 640 q 1058 810 1020 768 q 1120 880 1096 853 q 1162 925 1144 907 q 1199 960 1180 943 q 1250 988 1225 983 q 1295 977 1276 993 q 1308 932 1315 960 q 1278 878 1300 905 q 1233 824 1257 852 q 1184 767 1210 797 q 1131 705 1158 737 q 1075 641 1104 674 q 1017 574 1047 608 q 1010 566 1013 569 q 1005 558 1007 562 q 1002 552 1003 555 q 1001 546 1001 549 q 1001 540 1001 543 q 1001 534 1001 537 q 1002 527 1001 531 q 1004 521 1003 524 q 1008 513 1006 517 q 1013 506 1010 509 q 1019 496 1016 501 q 1026 486 1022 492 q 953 400 972 432 q 950 349 935 369 q 989 335 967 328 q 1034 366 1010 342 q 1086 415 1059 389 q 1112 386 1098 403 q 1139 354 1126 370 q 1090 301 1110 326 q 1064 256 1071 276 q 1068 224 1058 236 q 1107 211 1085 203 q 1151 241 1128 219 q 1192 286 1173 263 q 1290 161 1257 208 q 1334 90 1323 115 q 1346 50 1346 65 m 872 740 q 825 760 847 740 q 803 815 803 781 q 823 865 803 844 q 872 886 844 886 q 921 864 903 886 q 939 819 939 842 q 918 764 939 788 q 872 740 897 740 m 492 236 q 547 213 526 236 q 568 159 568 190 q 551 113 568 135 q 506 90 533 90 q 441 117 463 90 q 419 176 419 143 q 441 223 419 210 q 492 236 462 236 m 253 160 q 331 87 299 118 q 373 33 363 56 q 365 -11 383 9 q 317 -21 345 -32 q 253 20 290 -10 q 172 90 217 51 l 253 160 m 1161 893 q 1195 863 1180 878 q 1214 831 1210 848 q 1200 793 1217 813 q 1167 776 1184 776 q 1132 788 1150 777 q 1094 813 1114 799 l 1161 893 m 222 442 q 283 403 255 423 q 351 354 311 383 q 386 318 374 339 q 381 274 397 297 q 342 257 366 254 q 293 275 318 260 q 229 319 258 297 q 165 367 200 341 q 138 400 148 381 q 142 440 127 419 q 178 457 156 460 q 222 442 201 454 m 1089 721 q 1148 676 1118 700 q 1204 626 1177 651 q 1230 591 1220 612 q 1221 549 1240 571 q 1182 535 1204 530 q 1133 563 1160 541 q 1080 605 1106 585 q 1025 651 1053 626 q 1005 687 1008 667 q 1017 724 1001 706 q 1049 737 1029 738 q 1089 721 1068 735 m 667 863 q 667 863 667 863 q 667 863 667 863 q 667 863 667 863 q 667 863 667 863 q 667 863 667 863 q 667 863 667 863 q 667 863 667 863 q 667 863 667 863 m 713 124 q 713 124 713 124 q 713 124 713 124 q 713 124 713 124 q 713 124 713 124 q 713 124 713 124 q 713 124 713 124 q 713 124 713 124 q 713 124 713 124 m 663 938 q 663 938 663 938 q 663 938 663 938 q 663 938 663 938 q 663 938 663 938 q 663 938 663 938 q 663 938 663 938 q 663 938 663 938 q 663 938 663 938 m 1093 815 q 1006 881 1038 853 q 966 930 974 908 q 975 969 958 951 q 1017 983 992 988 q 1077 955 1042 978 q 1160 896 1112 932 l 1093 815 m 172 90 q 98 160 128 132 q 58 210 67 189 q 69 253 49 232 q 117 262 89 272 q 180 223 146 251 q 253 160 215 194 l 172 90 z "},"":{"ha":722,"x_min":35,"x_max":666,"o":"m 519 107 q 548 119 537 107 q 558 153 558 131 q 548 180 558 170 q 522 189 538 189 q 488 177 499 189 q 478 150 478 165 q 489 121 478 135 q 519 107 499 107 m 168 125 q 213 143 196 125 q 231 187 231 161 q 215 224 231 207 q 171 240 200 240 q 132 223 149 240 q 115 183 115 206 q 133 142 115 159 q 168 125 151 125 m 340 66 q 381 82 364 66 q 398 125 398 97 q 384 157 398 143 q 347 172 370 172 q 306 155 319 172 q 292 118 292 138 q 307 83 292 101 q 340 66 322 66 m 51 865 q 88 925 51 897 q 188 970 124 953 q 335 988 251 988 q 475 962 415 988 q 569 891 535 937 q 603 783 603 845 q 584 685 603 722 q 536 628 565 649 q 480 597 508 608 q 433 577 452 585 q 414 557 414 569 q 439 535 414 544 q 502 513 465 526 q 576 475 539 500 q 639 406 613 450 q 664 289 664 361 q 641 161 664 218 q 574 63 617 104 q 472 1 531 22 q 340 -21 413 -21 q 242 -10 295 -21 q 142 23 190 0 q 65 85 95 47 q 35 178 35 123 q 72 281 35 238 q 175 325 108 325 q 234 316 208 325 q 285 294 260 307 q 332 272 308 283 q 384 254 356 261 q 447 247 413 247 q 512 263 492 247 q 532 310 532 278 q 497 373 532 342 q 401 426 462 403 q 264 460 340 449 q 202 485 226 466 q 178 533 178 503 q 195 582 178 562 q 267 617 212 602 q 372 658 327 633 q 442 715 417 683 q 467 785 467 747 q 431 855 467 830 q 326 881 395 881 q 245 870 278 881 q 189 847 213 860 q 145 823 165 833 q 103 813 126 813 q 65 827 78 813 q 51 865 51 842 m 273 486 q 237 501 251 486 q 222 540 222 516 q 235 570 222 557 q 275 583 248 583 q 307 567 294 583 q 319 531 319 551 q 308 496 319 506 q 273 486 297 486 m 467 899 q 530 972 499 939 q 589 1018 561 1005 q 640 1011 617 1031 q 652 960 666 988 q 601 902 638 932 q 525 846 565 873 l 467 899 m 264 778 q 259 913 261 842 q 258 1046 258 983 q 273 1093 258 1078 q 310 1108 287 1108 q 347 1097 332 1108 q 361 1049 361 1085 q 358 913 363 985 q 344 771 353 841 q 332 739 342 749 q 307 728 322 728 q 277 739 290 728 q 264 778 265 750 m 475 625 q 459 635 465 631 q 443 646 453 639 q 436 667 434 653 q 447 693 438 680 q 469 709 457 707 q 496 706 481 712 q 511 698 504 702 q 523 690 517 694 q 533 681 528 685 q 539 664 541 674 q 531 642 537 654 q 508 623 524 629 q 475 625 492 617 z "},"":{"ha":1000,"x_min":75,"x_max":985,"o":"m 289 -10 q 182 31 224 -10 q 129 182 141 71 q 115 331 122 251 q 101 493 108 411 q 204 501 159 492 q 249 544 249 510 q 213 580 249 569 q 93 592 177 591 q 89 639 91 617 q 85 683 87 662 q 181 679 137 680 q 251 689 224 678 q 278 726 278 699 q 235 769 278 753 q 78 782 193 786 q 77 794 78 788 q 77 805 77 799 q 76 815 76 810 q 87 902 75 863 q 133 964 99 941 q 232 988 167 988 q 349 945 305 988 q 376 806 392 903 q 354 672 367 751 q 325 507 340 594 q 295 338 309 420 q 271 192 281 256 q 277 140 266 158 q 311 122 288 122 q 341 133 330 122 q 360 168 353 144 q 406 329 379 236 q 461 520 432 422 q 517 709 490 619 q 564 858 544 798 q 627 965 587 933 q 724 996 667 996 q 827 955 792 996 q 864 821 863 914 q 866 564 865 699 q 867 294 867 429 q 867 38 867 159 q 853 -12 867 4 q 813 -29 840 -29 q 772 -15 785 -29 q 754 38 758 0 q 754 46 754 42 q 753 56 753 51 q 752 65 753 60 q 751 89 751 77 q 749 114 750 101 q 748 137 749 126 q 747 161 748 149 q 745 239 747 199 q 744 319 744 279 q 744 346 744 333 q 744 372 744 359 q 744 392 744 383 q 744 413 744 402 q 743 509 744 458 q 739 594 741 560 q 721 645 737 630 q 676 660 705 660 q 630 642 647 660 q 600 583 613 624 q 576 500 591 553 q 542 383 560 447 q 505 256 524 319 q 469 142 486 193 q 419 45 449 78 q 357 1 390 13 q 289 -10 323 -10 m 721 761 q 757 777 741 761 q 774 821 774 793 q 757 860 774 845 q 710 875 740 875 q 673 860 687 875 q 660 814 660 844 q 677 775 660 788 q 721 761 694 761 m 668 258 q 608 270 631 260 q 586 307 586 281 q 610 348 586 338 q 674 358 633 358 q 773 360 725 360 q 871 360 820 360 q 958 349 931 359 q 985 308 985 339 q 957 271 985 281 q 871 260 929 262 q 769 258 827 258 q 668 258 712 258 m 690 429 q 654 441 667 430 q 640 475 640 452 q 654 511 640 500 q 693 524 668 523 q 795 527 753 526 q 885 526 838 527 q 959 518 938 526 q 979 481 979 511 q 957 443 979 453 q 886 431 935 433 q 788 428 836 428 q 690 429 740 428 m 192 835 q 156 844 170 834 q 142 876 142 853 q 152 917 142 905 q 188 932 162 929 q 211 934 199 933 q 234 936 223 935 q 257 938 246 937 q 294 931 276 939 q 313 892 313 922 q 300 852 313 864 q 263 838 287 840 q 225 835 243 835 q 192 835 206 835 m 318 749 q 318 749 318 749 q 318 749 318 749 q 318 749 318 749 q 318 749 318 749 q 318 749 318 749 q 318 749 318 749 q 318 749 318 749 q 318 749 318 749 q 318 749 318 749 q 318 749 318 749 q 318 749 318 749 q 318 749 318 749 m 232 956 q 232 956 232 956 q 232 956 232 956 q 232 956 232 956 q 232 956 232 956 q 232 956 232 956 q 232 956 232 956 q 232 956 232 956 q 232 956 232 956 m 478 310 q 478 310 478 310 q 478 310 478 310 q 478 310 478 310 q 478 310 478 310 q 478 310 478 310 q 478 310 478 310 q 478 310 478 310 q 478 310 478 310 z "},"":{"ha":1000,"x_min":75,"x_max":985,"o":"m 289 -10 q 182 31 224 -10 q 129 182 141 71 q 115 331 122 251 q 101 493 108 411 q 204 501 159 492 q 249 544 249 510 q 213 580 249 569 q 93 592 177 591 q 89 639 91 617 q 85 683 87 662 q 181 679 137 680 q 251 689 224 678 q 278 726 278 699 q 235 769 278 753 q 78 782 193 786 q 77 794 78 788 q 77 805 77 799 q 76 815 76 810 q 87 902 75 863 q 133 964 99 941 q 232 988 167 988 q 349 945 305 988 q 376 806 392 903 q 354 672 367 751 q 325 507 340 594 q 295 338 309 420 q 271 192 281 256 q 277 140 266 158 q 311 122 288 122 q 341 133 330 122 q 360 168 353 144 q 406 329 379 236 q 461 520 432 422 q 517 709 490 619 q 564 858 544 798 q 627 965 587 933 q 724 996 667 996 q 827 955 792 996 q 864 821 863 914 q 866 564 865 699 q 867 294 867 429 q 867 38 867 159 q 853 -12 867 4 q 813 -29 840 -29 q 772 -15 785 -29 q 754 38 758 0 q 754 46 754 42 q 753 56 753 51 q 752 65 753 60 q 751 89 751 77 q 749 114 750 101 q 748 137 749 126 q 747 161 748 149 q 745 239 747 199 q 744 319 744 279 q 744 346 744 333 q 744 372 744 359 q 744 392 744 383 q 744 413 744 402 q 743 509 744 458 q 739 594 741 560 q 721 645 737 630 q 676 660 705 660 q 630 642 647 660 q 600 583 613 624 q 576 500 591 553 q 542 383 560 447 q 505 256 524 319 q 469 142 486 193 q 419 45 449 78 q 357 1 390 13 q 289 -10 323 -10 m 721 761 q 757 777 741 761 q 774 821 774 793 q 757 860 774 845 q 710 875 740 875 q 673 860 687 875 q 660 814 660 844 q 677 775 660 788 q 721 761 694 761 m 668 258 q 608 270 631 260 q 586 307 586 281 q 610 348 586 338 q 674 358 633 358 q 773 360 725 360 q 871 360 820 360 q 958 349 931 359 q 985 308 985 339 q 957 271 985 281 q 871 260 929 262 q 769 258 827 258 q 668 258 712 258 m 690 429 q 654 441 667 430 q 640 475 640 452 q 654 511 640 500 q 693 524 668 523 q 795 527 753 526 q 885 526 838 527 q 959 518 938 526 q 979 481 979 511 q 957 443 979 453 q 886 431 935 433 q 788 428 836 428 q 690 429 740 428 m 192 835 q 157 844 170 834 q 142 876 143 853 q 151 917 141 905 q 188 932 162 929 q 211 934 199 933 q 234 936 223 935 q 257 938 246 937 q 293 931 276 939 q 313 892 310 922 q 301 852 315 864 q 263 838 287 840 q 225 835 243 835 q 192 835 206 835 m 318 749 q 318 749 318 749 q 318 749 318 749 q 318 749 318 749 q 318 749 318 749 q 318 749 318 749 q 318 749 318 749 q 318 749 318 749 q 318 749 318 749 q 318 749 318 749 q 318 749 318 749 q 318 749 318 749 q 318 749 318 749 m 478 310 q 478 310 478 310 q 478 310 478 310 q 478 310 478 310 q 478 310 478 310 q 478 310 478 310 q 478 310 478 310 q 478 310 478 310 q 478 310 478 310 m 239 946 q 264 932 256 946 q 272 892 272 919 q 263 853 272 867 q 235 839 253 839 q 221 839 228 839 q 206 839 214 839 q 182 854 189 839 q 175 890 175 869 q 215 946 175 946 q 227 946 222 946 q 239 946 233 946 m 494 1035 q 376 1057 431 1035 q 289 1119 322 1078 q 256 1218 256 1160 q 272 1275 256 1251 q 325 1300 289 1300 q 371 1283 356 1300 q 394 1240 386 1265 q 411 1189 401 1215 q 441 1147 420 1164 q 503 1129 462 1129 q 556 1143 535 1129 q 591 1176 576 1156 q 617 1217 605 1197 q 643 1250 629 1237 q 679 1264 658 1264 q 726 1248 710 1264 q 743 1206 743 1232 q 705 1115 743 1153 q 608 1056 666 1076 q 494 1035 551 1035 z "},"":{"ha":818,"x_min":-6,"x_max":825,"o":"m 146 50 q 127 300 135 175 q 113 550 119 425 q 111 573 112 562 q 110 594 111 583 q 109 614 110 604 q 109 633 109 624 q 108 668 108 651 q 106 703 107 685 q 105 718 106 710 q 104 733 104 726 q 103 749 103 741 q 102 763 103 756 q 102 777 102 770 q 101 792 102 785 q 100 859 101 825 q 99 926 99 893 q 112 1003 99 976 q 158 1029 125 1029 q 203 1005 192 1029 q 217 935 215 980 q 223 809 220 872 q 227 693 225 747 q 232 599 230 638 q 239 557 233 573 q 261 540 244 540 q 280 548 272 540 q 297 571 288 556 q 402 737 357 664 q 488 861 448 810 q 572 940 528 913 q 668 967 615 967 q 758 943 724 967 q 809 883 793 920 q 825 804 825 846 q 807 721 825 759 q 742 646 789 683 q 610 567 695 609 q 392 472 525 526 q 358 439 360 460 q 376 397 356 418 q 480 295 428 345 q 582 194 531 244 q 683 90 633 143 q 726 25 715 57 q 710 -35 738 -6 q 653 -49 684 -60 q 582 3 622 -39 q 438 164 509 81 q 292 329 367 247 q 279 341 285 338 q 265 344 273 344 q 244 317 242 344 q 253 182 249 244 q 261 56 258 120 q 250 -7 263 16 q 203 -29 238 -29 q 163 -10 177 -29 q 146 50 149 8 m 599 324 q 533 343 555 324 q 511 395 511 363 q 535 458 511 434 q 591 482 559 482 q 649 464 629 482 q 669 413 669 446 q 651 343 669 363 q 599 324 633 324 m 515 608 q 555 625 538 608 q 572 672 572 642 q 556 707 572 690 q 518 724 541 724 q 475 705 495 724 q 456 667 456 686 q 475 624 456 640 q 515 608 494 608 m 660 729 q 707 748 687 729 q 728 799 728 767 q 708 848 728 828 q 660 867 688 867 q 610 850 631 867 q 590 807 590 833 q 610 749 590 769 q 660 729 630 729 m 639 950 q 643 946 641 948 q 647 942 645 944 q 650 930 653 937 q 640 915 647 923 q 626 905 633 908 q 614 906 618 901 q 610 909 612 908 q 607 913 609 910 q 603 927 601 919 q 611 943 605 936 q 626 952 617 949 q 639 950 635 954 m 107 272 q 146 271 127 272 q 183 267 165 270 q 211 253 202 264 q 219 218 219 243 q 209 187 219 195 q 181 175 199 178 q 146 173 166 173 q 106 172 126 172 q 40 185 59 172 q 21 224 21 198 q 43 261 21 250 q 107 272 65 272 m 199 806 l 174 903 q 286 912 244 909 q 349 906 329 915 q 368 871 368 898 q 324 826 368 835 q 199 806 279 817 m 164 799 l 189 701 q 39 693 84 692 q -6 735 -6 693 q 39 779 -6 770 q 164 799 84 788 z "},"":{"ha":856,"x_min":7,"x_max":860,"o":"m 24 188 q 68 369 47 287 q 110 524 90 451 q 153 669 131 597 q 200 818 175 740 q 248 923 221 883 q 318 981 275 963 q 429 999 360 999 q 514 986 476 999 q 580 936 551 973 q 626 828 608 899 q 660 687 642 765 q 697 524 678 608 q 731 357 715 439 q 761 204 747 275 q 783 83 774 133 q 787 27 789 52 q 771 -13 785 1 q 728 -28 757 -28 q 680 -6 698 -28 q 656 56 663 16 q 620 259 638 158 q 583 470 603 360 q 536 710 563 581 q 494 823 519 795 q 425 850 468 850 q 348 817 374 850 q 318 701 322 784 q 307 492 312 581 q 299 333 303 403 q 291 205 294 264 q 283 83 288 145 q 242 -23 278 15 q 146 -60 206 -60 q 44 -27 76 -60 q 10 61 13 6 q 24 188 7 117 m 180 253 q 218 267 204 253 q 232 303 232 281 q 215 346 232 331 q 176 361 199 361 q 139 348 154 361 q 124 306 124 334 q 138 267 124 282 q 180 253 151 253 m 153 54 q 196 69 179 54 q 213 110 213 83 q 196 158 213 140 q 147 175 179 175 q 104 158 119 175 q 89 111 89 142 q 106 69 89 85 q 153 54 123 54 m 69 185 q 48 196 54 187 q 46 228 42 205 q 57 255 49 249 q 82 260 65 262 l 69 185 m 261 225 q 280 213 274 220 q 287 197 286 206 q 285 178 288 188 q 268 147 278 153 q 243 140 258 140 l 261 225 m 172 629 l 150 526 q 136 544 140 530 q 139 586 132 558 q 154 622 147 613 q 172 629 162 631 m 286 390 l 286 411 q 292 409 290 411 q 294 400 294 406 q 292 394 294 396 q 286 390 290 392 m 608 492 l 629 392 q 546 375 583 381 q 488 378 509 370 q 466 415 466 386 q 497 457 466 438 q 608 492 528 476 m 697 407 l 675 508 q 762 523 724 518 q 822 520 800 528 q 843 485 843 513 q 814 445 843 464 q 697 407 784 427 m 692 243 l 676 338 q 711 340 697 343 q 732 325 725 337 q 739 290 739 313 q 727 259 739 270 q 692 243 716 249 m 628 286 l 651 183 q 550 174 592 170 q 507 217 507 177 q 534 256 507 242 q 628 286 562 271 m 751 90 l 731 190 q 825 188 789 193 q 860 144 860 183 q 839 110 860 124 q 751 90 817 97 m 442 558 q 391 575 408 558 q 374 622 374 592 q 393 670 374 652 q 440 688 413 688 q 486 668 470 688 q 503 623 503 649 q 483 574 503 590 q 442 558 464 558 z "},"":{"ha":1067,"x_min":43,"x_max":1017,"o":"m 47 139 q 66 287 53 190 q 92 494 78 385 q 95 511 94 503 q 97 527 96 519 q 99 544 98 535 q 102 567 100 556 q 105 589 103 578 q 108 618 106 603 q 113 646 110 632 q 116 676 115 661 q 120 704 118 690 q 124 732 122 718 q 128 759 126 746 q 139 842 134 805 q 149 906 144 880 q 186 994 158 966 q 258 1022 215 1022 q 330 991 303 1022 q 371 903 356 960 q 375 890 373 897 q 378 878 377 883 q 262 845 292 863 q 238 797 233 828 q 283 768 243 766 q 403 790 324 769 q 415 749 409 771 q 425 704 420 727 q 278 676 321 692 q 240 628 236 660 q 293 593 246 592 q 444 628 340 594 q 479 481 463 553 q 514 346 496 408 q 544 311 524 311 q 575 347 567 311 q 608 497 591 414 q 643 667 626 581 q 678 828 661 753 q 731 946 697 913 q 818 979 766 979 q 900 943 872 979 q 938 835 928 907 q 978 475 959 665 q 1013 93 997 284 q 998 15 1017 42 q 939 -12 978 -12 q 881 14 899 -12 q 861 88 862 40 q 863 269 860 185 q 863 442 865 353 q 830 502 861 495 q 774 469 799 509 q 702 352 737 413 q 625 226 668 292 q 589 191 610 203 q 539 178 567 178 q 489 193 511 178 q 446 235 467 208 q 359 352 400 294 q 285 451 318 411 q 228 480 256 487 q 200 428 201 474 q 197 335 199 387 q 193 230 195 284 q 188 124 190 175 q 168 54 185 78 q 114 31 151 31 q 72 43 88 31 q 49 79 56 55 q 47 139 43 103 m 797 629 q 862 649 842 629 q 882 703 882 669 q 862 756 882 735 q 803 776 842 776 q 754 756 773 776 q 735 700 735 735 q 753 648 735 666 q 797 629 772 629 m 544 224 q 511 234 524 224 q 499 267 499 245 q 511 296 499 285 q 544 307 524 307 q 571 295 560 307 q 582 269 582 283 q 570 235 582 246 q 544 224 558 224 m 964 88 q 950 88 957 88 q 935 88 942 88 q 912 96 922 88 q 901 132 901 104 q 915 164 901 156 q 938 172 928 172 q 951 172 944 172 q 964 172 958 172 q 991 157 982 172 q 1000 126 1000 143 q 991 97 1000 106 q 964 88 982 88 z "},"":{"ha":844,"x_min":85,"x_max":761,"o":"m 760 869 q 749 562 755 713 q 735 285 742 411 q 732 240 733 251 q 731 213 732 228 q 730 198 730 203 q 729 187 729 192 q 728 172 728 181 q 726 145 727 159 q 724 117 725 131 q 723 95 723 104 q 721 75 722 85 q 719 48 720 60 q 717 26 718 37 q 715 11 716 17 q 713 -11 715 5 q 696 -53 710 -33 q 651 -74 683 -74 q 603 -49 617 -74 q 590 13 588 -24 q 605 217 597 120 q 618 408 613 315 q 610 445 619 433 q 574 457 600 456 q 479 460 532 458 q 374 460 426 461 q 315 443 333 458 q 292 393 297 428 q 273 253 283 333 q 250 85 263 174 q 231 20 245 45 q 183 -4 216 -4 q 135 20 149 -4 q 119 83 122 44 q 106 331 111 203 q 94 576 100 458 q 189 583 160 572 q 217 618 217 593 q 205 645 217 635 q 166 659 194 655 q 90 661 138 663 q 90 694 90 676 q 89 729 89 713 q 212 748 182 733 q 242 785 242 762 q 220 820 242 812 q 165 826 199 828 q 88 818 130 824 q 88 834 88 826 q 88 856 88 842 q 118 973 85 937 q 224 1008 151 1008 q 333 971 301 1008 q 353 829 365 933 q 343 734 348 781 q 333 651 338 687 q 343 593 329 612 q 386 572 356 574 q 478 567 432 569 q 592 564 525 565 q 617 572 610 564 q 624 597 624 580 q 623 733 623 665 q 622 869 622 800 q 639 920 622 898 q 694 943 656 943 q 747 921 733 943 q 760 869 761 899 m 428 271 q 492 251 474 271 q 510 194 510 231 q 490 135 510 156 q 425 115 470 115 q 375 136 395 115 q 354 199 354 157 q 374 249 354 228 q 428 271 394 271 m 160 167 q 135 180 143 167 q 126 221 126 194 q 136 260 126 246 q 164 274 145 274 q 178 274 172 274 q 193 274 185 274 q 217 259 210 274 q 224 222 224 244 q 214 181 224 194 q 183 167 204 167 q 172 167 177 167 q 160 167 166 167 m 676 926 q 730 909 713 926 q 747 874 747 892 q 733 823 747 838 q 698 808 719 808 q 645 827 662 808 q 629 883 629 846 q 642 915 629 903 q 676 926 655 926 m 173 35 q 153 48 160 35 q 147 74 147 60 q 153 103 147 90 q 174 117 160 117 q 185 118 180 117 q 195 119 190 119 q 215 108 209 120 q 222 80 222 96 q 214 50 222 65 q 191 35 207 35 q 182 35 187 35 q 173 35 177 35 z "},"":{"ha":894,"x_min":56,"x_max":839,"o":"m 442 -17 q 222 49 308 -17 q 96 230 137 115 q 56 494 56 345 q 102 749 56 635 q 239 930 149 863 q 457 997 328 997 q 604 969 535 997 q 726 884 673 942 q 809 735 779 826 q 839 519 839 645 q 793 243 839 364 q 658 52 747 122 q 442 -17 569 -17 m 408 285 q 568 326 501 285 q 671 440 635 367 q 707 606 707 512 q 673 767 707 701 q 581 867 639 833 q 451 901 523 901 q 296 851 359 901 q 200 718 233 801 q 168 539 168 635 q 193 411 168 469 q 270 319 217 353 q 408 285 324 285 m 642 275 q 606 263 619 275 q 593 221 593 251 q 605 188 593 200 q 646 176 617 176 q 680 190 668 176 q 692 224 692 203 q 680 264 692 252 q 642 275 668 275 m 492 211 q 448 195 465 211 q 431 149 431 179 q 445 106 431 123 q 493 89 460 89 q 538 106 524 89 q 553 144 553 123 q 536 195 553 180 q 492 211 520 211 m 317 206 q 285 194 298 206 q 272 163 272 183 q 285 120 272 133 q 324 107 299 107 q 360 119 349 107 q 371 160 371 131 q 356 192 371 178 q 317 206 342 206 m 653 894 q 640 871 647 883 q 628 847 634 859 q 572 766 596 789 q 524 757 549 744 q 506 791 506 767 q 528 858 506 816 q 555 905 546 891 q 569 929 563 919 q 596 947 579 945 q 628 940 613 948 q 651 920 642 933 q 653 894 659 907 m 319 899 q 345 876 332 888 q 371 850 358 864 q 422 774 417 800 q 413 733 427 748 q 372 724 397 718 q 304 769 346 730 q 265 807 279 792 q 239 836 251 822 q 236 864 231 848 q 253 892 242 881 q 284 910 265 906 q 319 899 303 915 m 158 696 q 216 684 188 690 q 274 669 244 678 q 363 633 344 650 q 376 593 382 616 q 346 565 372 569 q 254 569 320 560 q 195 579 225 574 q 136 590 165 584 q 112 614 117 594 q 111 653 106 633 q 128 686 115 673 q 158 696 141 699 m 140 411 q 156 421 148 417 q 171 431 164 426 q 252 472 222 462 q 296 479 281 483 q 318 465 311 476 q 324 438 326 453 q 298 401 322 422 q 219 350 274 379 q 200 340 210 345 q 181 329 190 335 q 150 328 164 321 q 128 350 135 335 q 122 383 121 365 q 140 411 124 401 m 765 725 q 784 716 776 727 q 796 689 792 705 q 798 651 800 669 q 783 632 796 633 q 777 631 781 632 q 771 631 774 631 q 750 643 758 630 q 739 674 742 657 q 741 707 737 692 q 758 724 746 722 q 762 724 760 724 q 765 725 763 725 m 740 401 q 747 394 744 397 q 753 386 750 390 q 757 367 760 377 q 744 350 753 358 q 726 342 736 344 q 711 349 717 340 q 703 360 707 355 q 694 372 699 366 q 690 394 686 384 q 701 408 693 403 q 721 413 710 414 q 740 401 732 412 z "},"":{"ha":875,"x_min":65,"x_max":835,"o":"m 756 64 q 734 6 758 22 q 681 -10 711 -10 q 627 8 651 -10 q 604 63 604 25 q 605 187 604 114 q 606 351 606 260 q 608 546 607 442 q 608 765 608 651 q 595 826 608 806 q 550 846 581 846 q 433 846 492 846 q 317 846 375 846 q 287 835 293 846 q 283 800 281 825 q 299 646 289 735 q 318 463 308 557 q 336 286 328 369 q 343 147 343 203 q 303 46 343 85 q 200 7 263 7 q 97 49 129 7 q 69 181 65 91 q 88 383 74 268 q 119 624 102 498 q 147 872 135 751 q 174 952 153 924 q 251 981 194 981 q 367 979 314 981 q 474 973 421 977 q 588 964 527 969 q 676 939 647 959 q 708 869 704 919 q 726 607 717 747 q 742 328 734 468 q 756 64 749 189 m 564 349 q 645 355 601 352 q 726 357 689 357 q 805 350 774 357 q 833 310 835 343 q 809 272 833 284 q 740 258 784 260 q 649 256 696 256 q 569 256 603 255 q 499 270 515 258 q 483 303 483 283 q 498 333 483 322 q 564 349 513 344 m 533 526 q 625 533 578 531 q 731 535 672 535 q 805 525 778 535 q 831 485 831 516 q 807 448 831 459 q 732 435 784 437 q 626 432 674 432 q 533 435 579 433 q 459 447 481 437 q 436 478 436 456 q 456 512 436 502 q 533 526 476 522 m 210 321 q 249 338 233 321 q 264 376 264 354 q 255 413 264 396 q 215 429 245 429 q 171 418 186 429 q 156 381 156 406 q 173 338 156 355 q 210 321 190 321 m 215 107 q 253 126 238 107 q 268 169 268 146 q 253 211 268 194 q 199 228 238 228 q 162 211 180 228 q 144 158 144 195 q 160 125 144 142 q 215 107 175 107 m 554 301 q 554 301 554 301 q 554 301 554 301 q 554 301 554 301 q 554 301 554 301 q 554 301 554 301 q 554 301 554 301 q 554 301 554 301 q 554 301 554 301 m 289 208 q 289 208 289 208 q 289 208 289 208 q 289 208 289 208 q 289 208 289 208 l 289 208 z "},"":{"ha":724,"x_min":61,"x_max":756,"o":"m 188 628 q 178 560 180 586 q 181 519 177 534 q 193 496 185 504 q 244 476 207 483 q 342 469 281 469 q 468 492 419 469 q 540 558 517 514 q 563 669 563 603 q 541 777 563 733 q 480 844 520 821 q 383 867 440 867 q 307 859 337 867 q 258 833 277 852 q 236 804 246 821 q 219 764 226 788 q 203 706 211 740 q 188 628 196 673 m 61 92 q 62 348 61 219 q 65 601 63 478 q 75 832 68 724 q 87 905 78 878 q 111 947 96 932 q 144 966 124 960 q 198 975 165 973 q 283 978 232 978 q 484 956 410 978 q 604 888 558 935 q 658 797 640 852 q 676 669 676 742 q 656 533 676 592 q 600 439 635 474 q 526 386 566 405 q 446 358 487 368 q 409 345 425 353 q 383 323 394 337 q 368 286 373 308 q 345 170 356 229 q 322 63 334 110 q 281 -23 311 15 q 188 -61 250 -61 q 90 -22 119 -60 q 61 92 61 17 m 311 1026 q 323 1088 312 1065 q 365 1110 335 1110 q 408 1089 395 1110 q 422 1026 421 1067 q 420 946 422 988 q 418 863 419 903 q 415 788 417 822 q 404 742 414 756 q 368 728 394 728 q 334 744 344 728 q 322 781 324 760 q 316 859 319 817 q 312 945 313 901 q 311 1026 310 988 m 692 695 q 741 685 728 695 q 754 657 753 675 q 743 622 756 638 q 696 605 731 606 q 657 605 688 605 q 589 605 626 605 q 521 606 551 606 q 481 606 490 606 q 417 615 440 606 q 392 650 394 623 q 417 687 392 678 q 480 698 442 696 q 519 698 489 699 q 586 697 549 698 q 653 696 623 697 q 692 695 683 695 m 103 103 q 124 92 117 103 q 131 58 131 81 q 124 21 131 29 q 107 13 117 13 q 101 13 104 13 q 94 13 98 13 l 93 103 q 98 103 95 103 q 103 103 101 103 m 218 233 q 266 251 251 233 q 281 297 281 269 q 265 340 281 322 q 222 358 250 358 q 175 338 194 358 q 156 291 156 317 q 173 247 156 261 q 218 233 190 233 m 201 67 q 232 79 219 67 q 246 117 246 91 q 234 157 246 144 q 201 169 223 169 q 159 154 176 169 q 143 115 143 139 q 160 81 143 96 q 201 67 176 67 m 601 575 q 622 562 614 575 q 628 535 629 549 q 621 507 627 519 q 604 494 615 494 q 599 494 601 494 q 593 494 597 494 q 569 507 578 494 q 561 533 561 519 q 568 562 561 549 q 586 575 575 575 q 593 575 590 575 q 601 575 597 575 z "},"":{"ha":719,"x_min":9,"x_max":685,"o":"m 417 46 q 230 95 310 46 q 106 232 150 144 q 61 439 61 320 q 116 740 61 619 q 263 919 172 860 q 461 979 353 979 q 630 937 575 979 q 685 803 685 894 q 654 673 685 711 q 585 635 624 635 q 550 638 566 635 q 518 646 535 641 q 526 767 526 728 q 515 819 525 807 q 486 832 505 832 q 455 819 467 832 q 440 767 444 806 q 439 651 435 728 q 400 650 420 651 q 364 644 381 648 q 334 743 349 713 q 306 781 320 774 q 278 783 292 788 q 254 763 261 778 q 255 715 247 749 q 290 619 263 681 q 214 536 240 592 q 188 411 188 479 q 254 217 188 290 q 443 144 320 144 q 457 145 449 144 q 471 146 465 145 q 488 148 481 147 q 504 151 496 149 q 520 156 513 153 q 533 161 527 158 q 540 164 537 163 q 548 167 544 165 q 556 171 551 169 q 563 174 559 172 q 569 177 566 176 q 576 181 573 179 q 592 188 583 184 q 615 192 602 192 q 648 179 635 192 q 661 150 661 167 q 637 105 661 124 q 575 72 613 85 q 495 52 537 59 q 417 46 453 46 m 485 910 q 485 897 486 903 q 485 886 485 892 q 476 874 484 878 q 457 869 467 871 q 434 874 442 867 q 422 890 426 881 q 422 901 422 896 q 421 910 421 907 q 431 926 422 919 q 453 933 440 933 q 475 926 467 933 q 485 910 484 919 m 57 136 q 166 229 108 180 q 282 326 223 278 q 325 347 306 347 q 356 333 343 347 q 366 302 368 320 q 342 261 364 283 q 269 190 305 225 q 195 120 233 155 q 119 53 158 86 q 64 26 92 29 q 22 40 37 23 q 17 83 9 58 q 57 136 25 108 m 478 368 q 422 388 442 368 q 401 442 401 408 q 426 498 401 478 q 488 518 451 518 q 536 498 520 518 q 551 444 551 478 q 532 391 551 414 q 478 368 513 368 m 593 103 q 623 19 610 60 q 633 -52 635 -22 q 599 -92 630 -82 q 546 -76 565 -101 q 516 -8 526 -51 q 496 82 505 36 l 593 103 m 400 51 q 387 -14 394 18 q 374 -75 380 -46 q 343 -139 363 -126 q 304 -149 323 -153 q 273 -124 285 -144 q 272 -56 261 -103 q 289 13 281 -20 q 306 79 297 46 l 400 51 m 192 803 q 202 796 198 800 q 211 789 207 792 q 216 775 217 784 q 208 757 214 767 q 191 742 201 744 q 171 742 181 739 q 165 745 168 744 q 159 749 162 747 q 154 751 156 750 q 147 769 147 758 q 154 792 146 781 q 173 805 163 802 q 192 803 183 808 z "},"":{"ha":653,"x_min":0,"x_max":653,"o":"m 339 11 q 272 20 303 11 q 222 49 241 30 q 204 73 211 60 q 193 102 197 87 q 187 135 189 118 q 186 168 185 151 q 340 147 290 142 q 389 189 389 151 q 347 231 389 219 q 193 249 306 242 q 196 288 194 265 q 200 326 198 310 q 303 327 265 324 q 358 343 342 331 q 374 379 374 355 q 356 409 373 399 q 302 419 338 418 q 211 417 267 421 q 237 599 225 515 q 261 763 249 683 q 251 810 267 799 q 204 818 234 821 q 139 808 174 815 q 73 801 104 801 q 20 816 41 800 q 0 874 0 831 q 11 911 0 897 q 45 934 23 926 q 100 946 68 942 q 117 948 108 947 q 135 950 126 949 q 160 953 149 951 q 180 956 171 955 q 229 962 206 959 q 280 968 252 965 q 290 969 285 969 q 301 971 295 970 q 313 972 307 972 q 325 974 319 973 q 336 975 331 974 q 344 976 341 976 q 479 990 421 985 q 575 993 537 995 q 633 979 614 991 q 653 942 653 967 q 631 902 653 916 q 575 880 609 888 q 503 867 540 872 q 433 852 465 861 q 384 828 401 844 q 374 783 367 812 q 434 555 405 656 q 485 376 463 454 q 515 239 506 298 q 514 134 524 179 q 469 56 503 90 q 411 22 447 33 q 339 11 376 11 m 313 867 q 286 875 296 867 q 276 899 276 883 q 286 924 276 915 q 310 933 295 933 q 334 925 326 933 q 343 904 343 916 q 334 877 343 887 q 313 867 325 867 m 382 38 l 390 143 q 428 135 413 140 q 450 121 443 131 q 458 94 458 112 q 449 55 458 67 q 424 39 441 42 q 382 38 408 36 m 392 603 l 367 511 q 334 522 347 517 q 316 536 322 528 q 310 556 310 544 q 320 596 310 585 q 348 607 330 607 q 392 603 366 608 z "},"":{"ha":861,"x_min":17,"x_max":840,"o":"m 510 221 q 539 232 528 221 q 550 265 550 244 q 538 296 550 283 q 506 308 526 308 q 478 297 490 308 q 465 265 465 285 q 476 233 465 244 q 510 221 488 221 m 241 40 q 284 55 267 40 q 300 93 300 69 q 287 130 300 113 q 251 147 274 147 q 210 134 228 147 q 193 96 193 120 q 207 56 193 72 q 241 40 220 40 m 389 99 q 432 115 413 99 q 450 158 450 132 q 433 201 450 186 q 391 217 417 217 q 350 200 366 217 q 335 163 335 183 q 350 115 335 131 q 389 99 365 99 m 707 439 q 616 235 669 324 q 502 86 564 146 q 372 -5 440 26 q 235 -36 304 -36 q 163 -27 193 -36 q 113 -1 132 -17 q 83 39 93 16 q 74 89 74 62 q 101 167 74 133 q 199 221 129 201 q 263 241 234 231 q 326 264 292 251 q 396 303 367 281 q 425 356 425 326 q 389 427 425 390 q 306 525 353 465 q 203 659 249 599 q 126 768 158 719 q 77 853 94 816 q 60 917 60 890 q 74 952 60 941 q 108 964 88 964 q 162 939 135 964 q 243 843 189 913 q 332 730 289 785 q 406 636 376 675 q 490 531 453 574 q 554 488 526 488 q 581 492 569 488 q 603 513 592 497 q 644 616 628 551 q 669 756 659 681 q 692 899 680 831 q 713 961 699 942 q 749 981 726 981 q 790 965 777 981 q 803 922 803 950 q 793 797 803 864 q 768 662 783 729 q 736 536 753 594 q 707 439 720 478 m 665 700 q 540 706 586 700 q 494 753 494 713 q 518 790 494 780 q 583 799 542 799 q 679 794 625 799 l 665 700 m 146 82 q 146 82 146 82 q 146 82 146 82 q 146 82 146 82 q 146 82 146 82 q 146 82 146 82 q 146 82 146 82 q 146 82 146 82 q 146 82 146 82 m 372 553 q 224 447 280 481 q 143 440 167 413 q 164 518 114 475 q 328 635 214 562 l 372 553 m 381 822 q 311 790 356 809 q 218 750 267 770 q 132 715 169 730 q 69 700 97 702 q 28 720 40 699 q 35 766 17 742 q 99 810 54 789 q 166 840 123 821 q 256 880 209 860 q 338 913 303 901 q 394 923 366 924 q 433 903 422 923 q 433 862 444 882 q 381 822 422 842 m 743 946 q 743 946 743 946 q 743 946 743 946 q 743 946 743 946 q 743 946 743 946 q 743 946 743 946 q 743 946 743 946 q 743 946 743 946 q 743 946 743 946 m 108 857 q 108 857 108 857 q 108 857 108 857 q 108 857 108 857 q 108 857 108 857 q 108 857 108 857 q 108 857 108 857 q 108 857 108 857 q 108 857 108 857 m 322 539 q 322 539 322 539 q 322 539 322 539 q 322 539 322 539 q 322 539 322 539 q 322 539 322 539 q 322 539 322 539 q 322 539 322 539 q 322 539 322 539 m 685 547 q 770 536 734 541 q 823 519 806 532 q 835 477 840 507 q 808 445 832 453 q 746 440 785 438 q 657 448 707 442 l 685 547 m 101 900 l 164 822 q 140 809 153 811 q 116 814 128 807 q 93 838 103 821 q 82 863 85 851 q 83 884 78 874 q 101 900 88 893 m 164 864 l 103 939 q 119 945 109 945 q 139 940 128 946 q 157 924 149 935 q 171 898 169 904 q 170 886 173 892 q 164 864 167 881 m 185 836 l 126 917 q 151 927 142 924 q 167 925 160 930 q 185 903 174 919 q 199 873 195 886 q 199 850 202 860 q 185 836 195 841 m 717 706 l 731 790 q 763 782 752 788 q 777 766 774 776 q 778 740 781 756 q 766 711 776 720 q 744 701 757 702 q 717 706 731 701 z "},"":{"ha":1458,"x_min":40,"x_max":1419,"o":"m 384 288 q 240 308 303 288 q 131 367 176 328 q 63 460 86 406 q 40 585 40 515 q 78 730 40 669 q 178 822 116 790 q 313 854 240 854 q 428 832 377 854 q 509 766 479 809 q 538 663 538 723 q 515 566 538 605 q 451 506 491 526 q 365 486 412 486 q 276 511 318 486 q 234 579 234 535 q 249 618 234 603 q 284 632 263 632 q 297 630 292 632 q 308 624 303 627 q 316 618 312 621 q 326 610 319 615 q 335 603 330 607 q 345 596 340 599 q 358 591 351 593 q 373 589 365 589 q 411 603 393 589 q 430 647 430 617 q 393 725 430 701 q 312 749 356 749 q 228 731 263 749 q 173 679 192 714 q 153 590 153 644 q 179 487 153 532 q 255 417 205 442 q 377 392 305 392 q 501 428 447 392 q 585 522 555 464 q 616 644 616 579 q 602 744 616 704 q 570 815 588 785 q 538 873 552 845 q 524 933 524 900 q 535 975 524 958 q 562 999 545 991 q 598 1007 578 1007 q 640 998 622 1007 q 674 970 659 988 q 701 928 689 953 q 743 783 733 859 q 741 634 752 708 q 701 495 731 560 q 624 383 671 430 q 520 313 580 339 q 384 288 460 288 m 1105 715 q 1266 678 1194 715 q 1378 572 1337 640 q 1419 411 1419 503 q 1383 271 1419 331 q 1286 178 1347 211 q 1153 146 1226 146 q 1032 170 1083 146 q 955 238 982 195 q 928 336 928 281 q 953 429 928 390 q 1015 488 977 467 q 1094 508 1053 508 q 1190 483 1152 508 q 1228 418 1228 457 q 1214 380 1228 392 q 1183 367 1199 367 q 1170 368 1176 367 q 1159 372 1164 369 q 1151 378 1155 376 q 1141 386 1147 381 q 1131 394 1135 392 q 1122 400 1127 397 q 1109 405 1117 403 q 1094 407 1102 407 q 1056 393 1074 407 q 1037 349 1037 379 q 1076 272 1037 296 q 1159 247 1115 247 q 1237 265 1204 247 q 1288 319 1270 283 q 1306 410 1306 355 q 1284 508 1306 462 q 1215 583 1262 554 q 1095 611 1169 611 q 959 575 1015 611 q 875 478 903 539 q 847 346 847 418 q 859 240 847 285 q 890 161 872 196 q 920 97 907 127 q 933 33 933 66 q 924 -6 933 10 q 900 -31 916 -22 q 863 -40 885 -40 q 801 -15 828 -40 q 756 71 774 10 q 727 218 735 144 q 728 364 719 292 q 766 500 737 435 q 849 618 796 565 q 958 689 894 663 q 1105 715 1021 715 m 622 932 q 622 932 622 932 q 622 932 622 932 q 622 932 622 932 q 622 932 622 932 q 622 932 622 932 q 622 932 622 932 q 622 932 622 932 q 622 932 622 932 m 849 43 q 849 43 849 43 q 849 43 849 43 q 849 43 849 43 q 849 43 849 43 q 849 43 849 43 q 849 43 849 43 q 849 43 849 43 q 849 43 849 43 m 608 957 q 608 957 608 957 q 608 957 608 957 q 608 957 608 957 q 608 957 608 957 q 608 957 608 957 q 608 957 608 957 q 608 957 608 957 q 608 957 608 957 m 853 21 q 853 21 853 21 q 853 21 853 21 q 853 21 853 21 q 853 21 853 21 q 853 21 853 21 q 853 21 853 21 q 853 21 853 21 q 853 21 853 21 m 290 343 q 202 246 233 277 q 152 211 171 215 q 116 221 134 207 q 98 258 96 236 q 123 315 99 280 q 192 406 147 350 l 290 343 m 455 322 q 446 199 453 242 q 423 142 438 157 q 385 126 408 126 q 337 170 345 126 q 340 322 329 213 l 455 322 m 228 771 q 228 800 224 786 q 245 822 233 813 q 280 831 258 831 q 318 823 306 831 q 333 803 330 815 q 337 779 337 791 l 228 771 m 580 433 q 595 393 593 411 q 587 363 597 376 q 558 340 578 349 q 509 340 528 327 q 483 382 490 353 l 580 433 m 97 633 q 78 654 82 642 q 79 679 74 666 q 94 703 83 692 q 115 721 105 715 q 138 726 125 727 q 170 713 151 724 l 97 633 m 673 549 q 687 518 685 533 q 685 490 690 503 q 670 468 681 477 q 648 455 661 460 q 620 454 635 449 q 590 478 605 458 l 673 549 m 694 817 q 797 831 751 826 q 869 826 842 835 q 897 785 897 817 q 857 744 897 759 q 710 721 818 730 l 694 817 m 1205 657 q 1280 746 1253 716 q 1326 783 1308 776 q 1365 776 1344 790 q 1386 741 1385 763 q 1364 684 1386 719 q 1297 594 1342 649 l 1205 657 m 1019 678 q 1028 801 1020 758 q 1050 858 1035 843 q 1088 874 1065 874 q 1137 831 1129 874 q 1134 678 1144 788 l 1019 678 m 1250 226 q 1248 200 1251 212 q 1233 181 1244 188 q 1199 173 1222 174 q 1160 179 1174 173 q 1142 196 1147 185 q 1137 221 1137 207 l 1250 226 m 894 567 q 879 607 881 589 q 886 638 877 624 q 916 660 896 651 q 965 660 947 674 q 991 618 984 647 l 894 567 m 1377 367 q 1394 349 1390 359 q 1394 328 1398 340 q 1380 303 1391 316 q 1357 283 1369 290 q 1333 277 1346 276 q 1303 288 1320 278 l 1377 367 m 801 451 q 786 484 789 467 q 790 515 784 500 q 806 538 795 529 q 830 551 817 547 q 855 548 842 554 q 884 522 869 542 l 801 451 m 780 183 q 677 169 724 174 q 604 174 631 165 q 577 215 577 183 q 616 256 577 241 q 763 279 656 270 l 780 183 z "},"":{"ha":800,"x_min":15,"x_max":790,"o":"m 106 -57 q 62 -40 78 -57 q 45 6 45 -23 q 61 71 45 33 q 126 198 90 135 q 193 329 163 262 q 219 405 214 376 q 225 450 225 433 q 216 504 225 474 q 178 585 206 534 q 110 697 147 642 q 42 814 74 751 q 22 865 28 839 q 15 915 15 890 q 66 1025 15 986 q 192 1063 117 1063 q 261 1053 233 1063 q 308 1024 289 1044 q 335 980 329 1003 q 344 924 342 956 q 225 920 266 926 q 169 903 184 915 q 156 872 155 891 q 206 835 157 839 q 346 842 256 831 q 345 803 346 820 q 342 765 344 785 q 232 759 260 769 q 203 724 204 749 q 231 684 202 694 q 339 682 260 674 q 338 652 338 667 q 339 621 338 637 q 361 558 342 581 q 411 536 379 536 q 456 551 436 536 q 490 604 476 566 q 544 750 517 674 q 603 901 571 826 q 634 950 617 935 q 669 965 650 965 q 707 952 692 965 q 722 915 722 940 q 708 853 722 890 q 656 727 687 790 q 600 601 625 664 q 575 524 581 553 q 569 475 569 494 q 578 432 569 458 q 613 358 587 406 q 670 266 639 310 q 724 174 701 222 q 741 131 735 151 q 747 94 747 110 q 725 46 747 64 q 678 28 704 28 q 585 113 626 28 q 546 203 564 157 q 508 293 528 249 q 464 368 485 347 q 408 389 443 389 q 348 369 375 389 q 299 297 322 349 q 239 148 267 224 q 179 3 210 73 q 147 -42 166 -27 q 106 -57 128 -57 m 681 738 q 613 750 649 743 q 547 764 576 757 q 469 792 491 777 q 453 838 447 808 q 488 867 458 864 q 561 861 517 869 q 633 846 594 855 q 704 828 672 838 q 773 798 756 813 q 785 758 790 783 q 758 731 781 733 q 681 738 735 728 m 569 597 l 594 685 q 726 645 696 664 q 747 594 756 626 q 701 564 739 565 q 569 597 663 564 m 400 13 q 340 35 362 13 q 318 97 318 58 q 343 161 318 138 q 415 185 368 185 q 467 164 444 185 q 490 90 490 142 q 466 34 490 56 q 400 13 441 13 m 151 76 q 142 81 147 78 q 131 86 136 84 q 110 103 116 92 q 111 131 105 114 q 132 157 117 153 q 161 156 146 161 q 168 154 165 155 q 174 151 171 153 q 196 132 190 147 q 196 99 202 117 q 177 75 189 79 q 151 76 165 72 m 482 485 q 482 485 482 485 q 482 485 482 485 q 482 485 482 485 q 482 485 482 485 q 482 485 482 485 q 482 485 482 485 q 482 485 482 485 q 482 485 482 485 m 511 432 q 511 432 511 432 q 511 432 511 432 q 511 432 511 432 q 511 432 511 432 q 511 432 511 432 q 511 432 511 432 q 511 432 511 432 q 511 432 511 432 m 107 8 q 100 11 104 10 q 93 13 97 12 q 80 25 82 16 q 81 43 78 35 q 91 59 84 53 q 107 61 99 65 q 115 59 111 60 q 122 56 118 57 q 134 42 133 51 q 131 22 135 32 q 121 11 128 15 q 107 8 115 6 z "},"":{"ha":722,"x_min":13,"x_max":712,"o":"m 438 379 q 382 366 412 379 q 293 353 353 353 q 143 402 206 353 q 57 560 81 451 q 44 628 51 589 q 31 709 37 668 q 21 786 25 751 q 27 902 13 857 q 77 968 42 947 q 164 989 112 989 q 273 953 233 989 q 313 857 313 917 q 311 839 313 848 q 309 823 310 831 q 306 808 307 815 q 212 825 254 819 q 145 824 170 831 q 121 790 121 817 q 138 761 121 772 q 191 746 154 751 q 289 739 228 741 q 281 703 285 722 q 271 664 276 685 q 208 672 236 669 q 164 666 180 674 q 147 635 147 659 q 160 609 147 618 q 196 597 172 599 q 254 596 220 594 q 262 497 240 531 q 343 463 284 463 q 389 470 371 463 q 422 493 408 478 q 464 565 447 518 q 495 667 481 611 q 521 779 508 724 q 548 877 533 834 q 582 940 563 921 q 603 955 592 950 q 629 960 615 960 q 672 943 658 960 q 686 901 686 926 q 685 886 686 895 q 682 866 685 876 q 679 855 681 860 q 675 842 677 849 q 671 829 674 836 q 659 798 666 814 q 647 765 653 782 q 639 747 643 756 q 632 728 635 738 q 624 709 628 719 q 617 689 620 699 q 576 572 594 631 q 557 474 557 513 q 565 400 557 446 q 583 302 572 355 q 606 197 594 249 q 624 105 617 146 q 632 44 632 65 q 612 -9 632 10 q 558 -29 592 -29 q 503 -5 522 -29 q 482 81 483 20 q 481 130 481 103 q 480 190 481 158 q 477 259 478 222 q 475 335 476 295 q 463 371 474 363 q 438 379 452 379 m 303 122 q 250 144 270 122 q 231 192 231 166 q 250 247 231 224 q 306 271 269 271 q 360 251 340 271 q 381 203 381 231 q 357 143 381 165 q 303 122 334 122 m 606 603 q 535 614 572 608 q 467 626 499 619 q 392 649 412 636 q 372 683 372 661 q 407 722 372 717 q 488 720 441 726 q 555 712 521 717 q 624 701 590 707 q 691 680 669 692 q 711 644 712 668 q 680 605 710 612 q 606 603 649 599 m 554 67 q 554 67 554 67 q 554 67 554 67 q 554 67 554 67 q 554 67 554 67 q 554 67 554 67 q 554 67 554 67 q 554 67 554 67 q 554 67 554 67 m 415 653 q 397 661 406 653 q 389 683 389 669 q 398 702 389 694 q 419 710 407 710 q 438 703 428 710 q 447 686 447 696 q 437 664 447 674 q 415 653 427 653 m 564 17 q 564 17 564 17 q 564 17 564 17 q 564 17 564 17 q 564 17 564 17 q 564 17 564 17 q 564 17 564 17 q 564 17 564 17 q 564 17 564 17 z "},"":{"ha":861,"x_min":58,"x_max":901,"o":"m 713 153 q 719 127 713 135 q 743 117 726 119 q 817 102 792 110 q 852 80 842 94 q 865 40 862 66 q 877 -44 871 2 q 889 -135 883 -90 q 897 -212 894 -179 q 882 -268 901 -250 q 841 -287 864 -287 q 800 -270 819 -287 q 781 -219 781 -253 q 781 -177 781 -202 q 782 -124 781 -151 q 782 -74 782 -97 q 775 -52 782 -60 q 758 -44 768 -44 q 744 -49 751 -44 q 731 -65 736 -54 q 718 -90 724 -77 q 706 -117 712 -103 q 694 -143 700 -130 q 683 -168 689 -156 q 662 -195 676 -186 q 634 -203 648 -203 q 600 -186 614 -203 q 594 -135 585 -168 q 609 -80 602 -106 q 621 -29 616 -53 q 615 5 626 -3 q 579 11 604 13 q 468 0 526 6 q 353 -11 410 -6 q 247 -19 297 -17 q 185 -13 210 -22 q 143 20 159 -4 q 118 92 126 45 q 93 323 97 210 q 78 533 88 435 q 190 538 155 531 q 225 581 225 544 q 194 617 225 610 q 71 621 164 624 q 67 670 69 646 q 64 717 65 694 q 202 717 158 714 q 246 761 246 719 q 205 799 246 792 q 58 803 164 806 q 58 805 58 804 q 58 806 58 805 q 91 922 58 881 q 201 964 124 964 q 301 928 272 964 q 329 824 329 892 q 318 695 329 770 q 291 542 307 621 q 259 393 275 463 q 235 278 244 323 q 233 197 225 226 q 273 153 240 168 q 371 131 306 138 q 520 121 471 119 q 585 144 570 123 q 597 214 601 166 q 585 404 591 305 q 575 599 580 503 q 565 773 569 694 q 557 903 560 852 q 574 957 555 935 q 628 979 592 979 q 678 965 663 979 q 694 911 694 951 q 701 710 698 817 q 707 499 705 603 q 711 303 710 394 q 713 153 713 213 m 394 51 q 394 51 394 51 q 394 51 394 51 q 394 51 394 51 q 394 51 394 51 q 394 51 394 51 q 394 51 394 51 q 394 51 394 51 q 394 51 394 51 m 528 51 q 528 51 528 51 q 528 51 528 51 q 528 51 528 51 q 528 51 528 51 q 528 51 528 51 q 528 51 528 51 q 528 51 528 51 q 528 51 528 51 m 764 696 q 827 681 809 693 q 844 646 844 668 q 823 613 844 621 q 758 604 801 604 q 639 605 699 604 q 519 608 579 606 q 453 623 475 610 q 431 663 431 635 q 455 704 431 693 q 517 713 478 715 q 644 706 583 710 q 764 696 705 701 m 661 425 l 656 524 q 738 522 701 524 q 795 510 774 520 q 817 478 817 501 q 797 442 817 453 q 741 430 776 432 q 661 425 706 427 m 625 260 q 584 258 608 259 q 538 257 560 257 q 449 311 449 257 q 470 349 449 338 q 542 363 492 360 q 588 363 565 364 q 626 363 612 363 q 672 349 661 363 q 683 315 683 335 q 668 277 683 292 q 625 260 653 262 m 267 863 q 281 863 274 863 q 293 863 287 863 q 321 847 314 861 q 325 807 328 833 q 314 784 323 792 q 290 776 305 776 q 278 776 286 776 q 264 776 270 775 q 241 792 249 780 q 233 825 233 803 q 243 854 235 845 q 267 863 252 863 m 185 921 q 199 921 192 921 q 211 921 205 922 q 239 906 232 919 q 243 865 247 892 q 232 842 241 850 q 208 835 223 835 q 196 834 204 835 q 182 835 188 833 q 159 850 167 838 q 151 883 151 862 q 185 921 153 921 m 540 320 q 540 320 540 320 q 540 320 540 320 q 540 320 540 320 q 540 320 540 320 q 540 320 540 320 q 540 320 540 320 q 540 320 540 320 q 540 320 540 320 z "},"":{"ha":1100,"x_min":33,"x_max":1026,"o":"m 118 153 q 123 280 119 202 q 132 451 127 358 q 143 641 138 544 q 156 822 149 737 q 173 873 158 851 q 219 894 188 894 q 268 870 254 894 q 281 808 282 845 q 273 599 278 699 q 265 420 269 499 q 258 297 260 341 q 263 220 256 247 q 293 182 269 192 q 369 171 317 171 q 443 178 417 171 q 481 209 470 186 q 492 281 492 233 q 492 383 492 322 q 494 513 493 444 q 496 651 495 582 q 498 778 497 719 q 499 875 499 837 q 514 931 499 912 q 558 950 529 950 q 601 933 587 950 q 615 876 615 916 q 617 823 616 859 q 619 736 618 786 q 623 628 621 686 q 626 510 624 570 q 629 394 628 450 q 638 339 631 360 q 659 309 644 319 q 695 297 673 299 q 749 297 717 295 q 830 322 809 301 q 853 403 851 342 q 855 461 853 433 q 857 518 856 490 q 859 573 858 545 q 861 627 860 600 q 863 681 862 653 q 877 745 864 719 q 926 771 890 771 q 970 753 955 771 q 989 701 986 736 q 1002 538 997 626 q 1013 364 1008 449 q 957 370 981 369 q 917 361 932 371 q 903 324 903 351 q 932 284 903 294 q 1018 281 961 273 q 1020 243 1019 262 q 1022 208 1021 225 q 939 215 976 213 q 882 207 903 216 q 861 168 861 197 q 874 136 861 147 q 922 121 886 125 q 1026 117 957 117 q 1026 107 1026 112 q 1026 97 1026 101 q 1002 22 1026 55 q 922 -14 978 -12 q 837 -16 894 -15 q 704 -17 779 -17 q 548 -16 629 -17 q 389 -15 466 -16 q 251 -12 312 -14 q 175 13 205 -11 q 131 73 145 36 q 118 153 117 110 m 560 847 q 530 860 540 847 q 519 892 519 872 q 530 916 519 906 q 564 925 540 925 q 590 916 583 925 q 597 881 597 907 q 588 858 597 868 q 560 847 578 847 m 907 857 q 854 881 869 857 q 839 939 839 906 q 857 991 839 973 q 915 1010 875 1010 q 973 988 954 1010 q 992 929 992 966 q 974 880 992 903 q 907 857 956 857 m 209 783 q 182 796 194 783 q 171 834 171 808 q 186 870 171 860 q 228 879 201 879 q 258 865 249 879 q 267 824 267 851 q 253 795 267 807 q 209 783 240 783 m 736 94 q 783 110 770 94 q 796 160 796 126 q 782 206 796 187 q 736 226 768 226 q 681 208 699 226 q 664 168 664 191 q 685 110 664 127 q 736 94 706 94 m 547 40 q 590 56 575 40 q 606 90 606 71 q 592 138 606 123 q 557 153 579 153 q 510 140 526 153 q 493 106 493 127 q 508 58 493 76 q 547 40 524 40 m 284 771 q 359 757 335 766 q 383 726 383 749 q 353 685 383 690 q 276 681 323 680 q 209 683 242 682 q 142 687 176 684 q 61 702 87 691 q 35 738 35 713 q 66 778 35 774 q 144 781 97 783 q 214 777 179 779 q 284 771 249 774 m 275 601 q 356 586 331 597 q 382 552 382 576 q 351 511 382 515 q 274 508 321 507 q 203 512 238 510 q 133 517 169 514 q 58 531 83 522 q 33 563 33 540 q 64 603 33 599 q 140 607 94 608 q 209 606 176 606 q 275 601 242 605 m 165 346 q 68 351 103 342 q 33 392 33 360 q 64 429 33 416 q 174 442 94 442 l 165 346 m 783 40 q 783 40 783 40 q 783 40 783 40 q 783 40 783 40 q 783 40 783 40 q 783 40 783 40 q 783 40 783 40 q 783 40 783 40 q 783 40 783 40 q 783 40 783 40 q 783 40 783 40 q 783 40 783 40 q 783 40 783 40 q 783 40 783 40 q 783 40 783 40 m 908 563 q 908 563 908 563 q 908 563 908 563 q 908 563 908 563 q 908 563 908 563 l 908 563 m 196 390 q 196 390 196 390 q 196 390 196 390 q 196 390 196 390 q 196 390 196 390 q 196 390 196 390 q 196 390 196 390 q 196 390 196 390 q 196 390 196 390 q 196 390 196 390 q 196 390 196 390 q 196 390 196 390 q 196 390 196 390 z "},"":{"ha":1128,"x_min":83,"x_max":1176,"o":"m 997 174 q 1010 140 999 148 q 1038 131 1021 132 q 1074 126 1055 130 q 1111 104 1094 122 q 1124 86 1119 97 q 1132 58 1129 74 q 1143 -9 1138 24 q 1152 -73 1148 -42 q 1161 -134 1157 -103 q 1171 -197 1166 -165 q 1161 -247 1176 -230 q 1126 -264 1146 -264 q 1098 -255 1111 -264 q 1076 -226 1084 -245 q 1043 -137 1060 -185 q 1013 -46 1027 -90 q 1002 -29 1008 -34 q 989 -24 996 -24 q 973 -32 980 -24 q 967 -54 967 -40 q 967 -130 967 -90 q 968 -201 968 -171 q 948 -252 968 -237 q 906 -268 928 -268 q 861 -249 880 -268 q 846 -194 843 -231 q 856 -127 848 -168 q 871 -44 864 -86 q 864 -7 875 -18 q 842 3 856 1 q 798 4 828 6 q 713 -1 767 2 q 568 -8 658 -5 q 565 90 569 53 q 550 142 561 126 q 518 158 538 158 q 484 134 493 158 q 475 72 475 110 q 479 -11 476 33 q 435 -12 456 -11 q 392 -12 414 -12 q 373 109 383 67 q 350 165 363 150 q 322 179 338 179 q 284 148 291 179 q 283 72 277 116 q 297 -12 290 27 q 229 -10 261 -12 q 170 2 197 -7 q 124 32 143 12 q 91 94 100 57 q 83 181 83 132 q 88 314 84 236 q 98 480 92 391 q 114 661 105 569 q 133 836 123 752 q 143 872 135 855 q 163 898 150 888 q 197 908 176 908 q 242 884 232 908 q 258 822 252 859 q 276 725 267 773 q 294 633 285 678 q 311 546 303 588 q 328 467 320 504 q 343 400 336 431 q 365 327 355 351 q 393 295 375 303 q 449 290 412 288 q 504 301 486 292 q 527 331 522 309 q 529 396 531 353 q 525 478 528 429 q 518 582 522 526 q 511 693 515 638 q 506 796 508 749 q 503 875 503 844 q 519 931 502 912 q 568 950 536 950 q 611 933 599 950 q 628 879 624 917 q 636 770 631 843 q 648 603 642 697 q 661 407 654 508 q 675 211 668 305 q 686 144 678 165 q 713 118 694 124 q 769 114 732 113 q 823 119 804 115 q 849 138 842 123 q 858 188 857 153 q 859 263 859 207 q 858 396 859 318 q 856 564 857 474 q 853 742 855 653 q 851 906 852 831 q 866 967 851 942 q 917 992 881 992 q 961 970 946 992 q 976 919 976 948 q 982 727 980 829 q 986 524 984 625 q 991 332 988 422 q 997 174 994 242 m 561 829 q 532 846 544 829 q 519 890 519 863 q 535 915 519 906 q 571 925 551 925 q 603 912 591 925 q 615 875 615 899 q 603 841 615 853 q 561 829 590 829 m 569 708 q 540 718 550 708 q 529 745 529 727 q 543 792 529 780 q 578 804 556 804 q 616 791 605 804 q 628 756 628 778 q 611 721 628 733 q 569 708 594 708 m 223 254 q 276 274 262 254 q 290 317 290 294 q 273 362 290 345 q 226 379 255 379 q 181 361 196 379 q 165 322 165 342 q 178 269 165 283 q 223 254 192 254 m 211 469 q 248 482 233 469 q 264 519 264 495 q 250 558 264 543 q 208 572 237 572 q 176 556 190 572 q 161 525 161 540 q 173 486 161 503 q 211 469 185 469 m 924 303 q 924 303 924 303 q 924 303 924 303 q 924 303 924 303 q 924 303 924 303 q 924 303 924 303 q 924 303 924 303 q 924 303 924 303 q 924 303 924 303 m 918 488 q 918 488 918 488 q 918 488 918 488 q 918 488 918 488 q 918 488 918 488 q 918 488 918 488 q 918 488 918 488 q 918 488 918 488 q 918 488 918 488 m 821 528 q 925 528 874 529 q 1026 525 976 527 q 1084 512 1062 524 q 1106 471 1106 500 q 1080 427 1106 435 q 1013 421 1053 419 q 910 426 966 423 q 815 432 854 429 q 755 446 775 436 q 735 483 735 456 q 757 519 735 512 q 821 528 778 527 m 964 697 q 1067 690 1036 699 q 1097 647 1097 680 q 1068 614 1097 624 q 972 599 1039 603 l 964 697 m 860 764 q 757 769 788 761 q 726 815 726 778 q 754 859 726 844 q 860 876 782 874 l 860 764 z "},"":{"ha":847,"x_min":83,"x_max":845,"o":"m 272 317 q 257 194 254 241 q 289 126 259 147 q 383 104 319 104 q 505 130 448 104 q 598 202 563 156 q 633 311 633 249 q 604 425 633 378 q 531 496 575 472 q 442 521 487 521 q 366 498 398 521 q 311 429 334 474 q 272 317 288 383 m 86 875 q 118 979 83 947 q 215 1011 152 1011 q 311 984 276 1011 q 350 904 347 958 q 354 809 353 853 q 356 726 355 764 q 364 672 357 693 q 388 642 371 651 q 439 632 406 632 q 593 597 521 632 q 709 499 665 561 q 754 358 754 438 q 707 152 754 236 q 574 24 660 67 q 371 -19 488 -19 q 262 -3 306 -19 q 191 46 218 13 q 149 127 163 78 q 128 242 134 176 q 112 431 119 331 q 98 641 105 531 q 86 875 92 752 m 644 521 l 575 578 q 642 650 616 624 q 687 681 669 675 q 722 674 706 686 q 740 639 743 658 q 711 592 736 620 q 644 521 687 565 m 658 389 l 635 461 q 745 518 705 499 q 806 534 785 537 q 838 503 826 531 q 831 466 845 481 q 774 434 816 451 q 658 389 733 417 m 660 442 l 594 458 q 603 488 598 477 q 619 501 609 499 q 646 496 629 503 q 665 482 660 490 q 667 464 669 474 q 660 442 665 454 m 643 128 l 676 208 q 801 169 772 189 q 815 117 830 149 q 768 93 803 90 q 643 128 733 96 m 456 240 q 400 258 419 240 q 381 311 381 276 q 400 362 381 342 q 456 382 420 382 q 504 365 486 382 q 522 310 522 349 q 502 259 522 277 q 456 240 482 240 m 172 528 q 185 491 172 505 q 228 478 199 478 q 265 493 253 478 q 276 531 276 509 q 264 568 276 556 q 230 579 252 579 q 187 566 202 579 q 172 528 172 553 m 223 921 q 183 908 193 921 q 172 878 172 896 q 186 842 172 856 q 219 828 199 828 q 251 840 236 828 q 265 874 265 851 q 255 909 265 897 q 223 921 244 921 m 228 767 q 180 749 198 767 q 161 709 161 732 q 177 662 161 679 q 226 644 193 644 q 270 661 254 644 q 286 707 286 678 q 268 751 286 736 q 228 767 251 767 m 710 285 l 700 351 q 722 349 713 351 q 735 338 731 346 q 739 314 739 330 q 736 298 739 304 q 727 288 733 291 q 710 285 720 285 m 522 593 l 431 619 q 465 741 445 711 q 510 765 485 771 q 543 725 539 759 q 522 593 547 691 m 204 972 q 210 982 204 980 q 219 985 215 985 q 231 980 226 985 q 235 967 235 976 q 231 958 235 962 q 223 954 226 954 q 208 958 213 954 q 204 972 204 961 z "},"":{"ha":1111,"x_min":6,"x_max":1028,"o":"m 231 986 q 280 967 263 986 q 297 918 297 949 q 297 909 297 914 q 296 899 297 905 q 294 886 296 894 q 292 868 294 877 q 290 851 291 860 q 287 833 288 842 q 283 809 285 821 q 279 785 281 797 q 276 767 278 776 q 274 748 275 758 q 271 728 273 739 q 268 710 269 719 q 265 693 267 701 q 263 675 264 684 q 263 649 260 660 q 274 629 265 638 q 318 611 288 615 q 391 604 349 606 q 481 593 433 601 q 575 565 528 585 q 665 501 623 544 q 727 407 706 461 q 747 282 747 352 q 700 89 747 156 q 560 -3 653 22 q 333 -25 468 -27 q 189 -12 235 -24 q 127 25 142 -1 q 113 100 113 52 q 115 197 113 131 q 122 348 117 262 q 131 529 126 434 q 141 716 136 624 q 150 883 146 808 q 174 963 153 939 q 231 986 195 986 m 397 307 q 421 187 413 229 q 436 126 430 144 q 449 100 442 107 q 466 89 457 92 q 490 86 476 86 q 565 100 537 86 q 609 140 594 115 q 629 198 624 165 q 635 268 635 231 q 607 393 635 342 q 533 469 578 443 q 433 494 487 494 q 402 492 413 494 q 383 482 391 490 q 375 461 376 475 q 378 413 373 448 q 397 307 383 378 m 339 713 q 226 701 286 706 q 107 694 165 696 q 33 699 60 692 q 6 734 6 706 q 27 771 6 760 q 94 788 49 782 q 210 803 153 797 q 326 813 268 809 q 407 809 376 817 q 439 769 439 801 q 415 732 439 743 q 339 713 390 721 m 260 369 q 220 353 235 369 q 206 317 206 338 q 222 277 206 294 q 265 261 238 261 q 299 274 285 261 q 314 320 314 288 q 300 357 314 344 q 260 369 286 369 m 288 197 q 233 181 250 197 q 217 140 217 164 q 236 83 217 99 q 285 68 255 68 q 330 88 310 68 q 350 137 350 107 q 335 181 350 165 q 288 197 320 197 m 625 461 q 622 458 624 460 q 619 455 620 456 q 616 452 617 453 q 614 450 615 451 q 589 444 603 439 q 554 468 574 449 q 532 501 537 486 q 540 529 528 517 q 544 533 542 531 q 548 537 546 535 q 552 541 550 539 q 556 544 553 542 q 582 549 566 555 q 613 528 597 544 q 636 492 633 508 q 625 461 639 475 m 136 215 q 136 215 136 215 q 136 214 136 215 q 136 213 136 213 q 135 210 136 212 q 129 208 133 208 q 125 210 125 208 q 124 213 125 212 q 123 214 123 213 q 122 214 122 214 q 122 215 122 215 q 124 218 122 217 q 129 219 125 219 q 134 218 133 219 q 136 215 135 217 m 863 86 q 848 204 856 138 q 830 342 839 271 q 811 481 820 414 q 794 599 802 547 q 899 616 869 603 q 929 651 929 628 q 895 685 929 678 q 783 685 860 692 q 778 724 781 703 q 774 763 776 744 q 861 773 828 766 q 909 791 894 781 q 924 817 924 802 q 891 850 924 841 q 764 849 859 858 q 763 856 763 852 q 763 864 763 860 q 763 871 763 867 q 763 879 763 875 q 777 931 763 907 q 820 971 792 956 q 893 986 849 986 q 993 951 958 986 q 1028 844 1028 917 q 1028 824 1028 835 q 1027 799 1028 812 q 1026 773 1026 787 q 1024 746 1025 760 q 1022 729 1023 738 q 1021 712 1022 721 q 1019 693 1020 703 q 1018 675 1019 685 q 1017 656 1017 666 q 1015 634 1016 646 q 1012 602 1013 615 q 1010 571 1011 589 q 1008 545 1009 558 q 1006 521 1007 533 q 1004 492 1005 506 q 1001 464 1003 478 q 992 323 996 385 q 984 204 988 260 q 976 89 981 148 q 962 24 974 43 q 919 4 951 4 q 880 24 892 4 q 863 86 868 44 z "},"":{"ha":903,"x_min":0,"x_max":872,"o":"m 332 236 q 348 145 332 176 q 399 104 365 115 q 486 93 433 93 q 660 121 611 93 q 710 193 709 149 q 691 250 710 223 q 638 300 672 277 q 557 340 603 323 q 457 367 511 358 q 375 363 401 376 q 340 318 348 350 q 332 236 332 285 m 398 457 q 432 471 420 457 q 444 502 444 485 q 430 541 444 527 q 390 554 416 554 q 360 542 372 554 q 347 505 347 530 q 362 468 347 480 q 398 457 376 457 m 575 410 q 622 427 606 410 q 638 467 638 444 q 622 510 638 492 q 576 528 607 528 q 533 510 551 528 q 515 465 515 493 q 530 426 515 442 q 575 410 545 410 m 735 343 q 773 356 758 343 q 789 394 789 369 q 775 429 789 415 q 741 443 760 443 q 702 430 715 443 q 689 392 689 416 q 701 357 689 371 q 735 343 713 343 m 454 892 q 448 838 454 867 q 433 779 441 809 q 418 723 424 749 q 411 676 411 697 q 426 639 411 651 q 474 621 440 627 q 641 589 567 606 q 767 543 715 572 q 845 462 818 514 q 872 324 872 410 q 826 141 872 214 q 692 33 779 69 q 483 -3 605 -3 q 326 19 385 -3 q 241 83 267 40 q 214 188 214 125 q 218 309 214 254 q 228 415 222 365 q 238 516 233 465 q 242 624 242 567 q 224 665 242 649 q 179 692 207 681 q 121 715 151 703 q 63 747 90 728 q 17 795 35 765 q 0 874 0 826 q 26 948 0 913 q 118 982 53 982 q 123 858 112 888 q 154 829 133 829 q 180 840 169 829 q 195 884 190 851 q 201 981 201 916 q 240 981 220 981 q 279 981 260 981 q 280 902 277 931 q 291 863 282 874 q 317 851 300 851 q 342 863 331 851 q 358 901 353 874 q 364 979 364 929 q 403 970 382 978 q 439 945 424 963 q 454 892 454 926 m 597 176 q 610 107 603 142 q 626 39 618 73 q 639 -26 633 6 q 634 -83 645 -62 q 600 -108 623 -104 q 555 -100 574 -113 q 529 -49 535 -87 q 518 25 524 -16 q 506 102 512 65 q 497 161 501 140 q 501 231 489 213 q 533 251 514 249 q 574 238 558 255 q 597 176 590 220 m 338 700 q 328 700 333 700 q 319 700 324 700 q 308 700 314 700 q 285 715 292 700 q 278 751 278 730 q 288 793 278 780 q 318 807 297 807 q 330 807 324 807 q 342 807 335 807 q 367 793 358 807 q 375 753 375 780 q 366 714 375 728 q 338 700 356 700 m 360 767 q 360 767 360 767 q 360 767 360 767 q 360 767 360 767 q 360 767 360 767 q 360 767 360 767 q 360 767 360 767 q 360 767 360 767 q 360 767 360 767 z "},"":{"ha":757,"x_min":40,"x_max":690,"o":"m 304 979 q 455 951 385 979 q 577 860 524 922 q 660 699 631 799 q 690 456 690 599 q 665 251 690 338 q 593 105 640 163 q 481 18 546 47 q 336 -11 416 -11 q 238 5 290 -11 q 142 48 187 21 q 68 108 97 75 q 40 175 40 141 q 45 201 40 190 q 60 218 51 212 q 82 224 69 224 q 130 204 107 224 q 181 158 153 184 q 250 111 210 131 q 351 92 291 92 q 454 120 410 92 q 522 199 498 149 q 546 313 546 249 q 535 354 546 347 q 504 352 524 360 q 460 333 485 344 q 407 322 435 322 q 359 339 378 322 q 326 376 341 355 q 295 414 312 397 q 255 430 279 430 q 214 415 233 430 q 178 390 194 401 q 149 392 162 380 q 140 409 142 400 q 138 428 138 418 q 149 473 138 449 q 174 510 160 496 q 194 527 184 520 q 216 540 204 535 q 240 549 227 546 q 267 551 252 551 q 316 536 295 551 q 356 501 338 521 q 395 465 374 481 q 443 450 415 450 q 481 458 465 450 q 509 481 498 467 q 526 515 520 496 q 532 554 532 533 q 522 619 532 590 q 490 671 513 649 q 431 703 468 693 q 431 797 435 763 q 416 844 426 831 q 390 857 406 857 q 363 847 373 857 q 350 803 353 836 q 350 703 347 770 q 311 701 335 703 q 272 697 288 699 q 256 816 265 776 q 234 872 246 857 q 208 887 222 887 q 176 860 182 887 q 178 789 171 834 q 199 688 186 744 q 93 712 138 677 q 49 819 49 747 q 77 901 49 865 q 163 958 106 937 q 304 979 220 979 m 533 158 l 576 217 q 606 195 595 206 q 617 173 616 185 q 608 147 618 161 q 585 130 597 132 q 561 135 574 127 q 533 158 548 143 m 318 58 l 415 68 q 420 -91 421 -40 q 410 -158 419 -142 q 382 -174 401 -174 q 351 -158 362 -174 q 333 -93 340 -142 q 318 58 326 -44 m 133 -8 q 175 81 160 49 q 204 140 191 113 q 261 222 238 209 q 303 226 285 235 q 322 191 319 218 q 290 94 325 165 q 261 36 277 67 q 214 -49 244 6 q 179 -106 194 -83 q 149 -136 163 -128 q 118 -136 134 -144 q 103 -113 105 -129 q 109 -70 101 -97 q 133 -8 117 -44 m 533 -6 q 495 40 514 15 q 458 88 476 64 q 408 164 418 138 q 418 208 397 191 q 459 207 436 222 q 526 144 482 192 q 569 101 549 124 q 608 54 590 78 q 661 -29 658 -2 q 650 -69 665 -56 q 610 -74 635 -82 q 533 -6 585 -66 m 617 485 q 617 485 617 485 q 617 485 617 485 q 617 485 617 485 q 617 485 617 485 q 617 485 617 485 q 617 485 617 485 q 617 485 617 485 q 617 485 617 485 m 585 658 q 585 658 585 658 q 585 658 585 658 q 585 658 585 658 q 585 658 585 658 q 585 658 585 658 q 585 658 585 658 q 585 658 585 658 q 585 658 585 658 m 599 303 q 599 303 599 303 q 599 303 599 303 q 599 303 599 303 q 599 303 599 303 q 599 303 599 303 q 599 303 599 303 q 599 303 599 303 q 599 303 599 303 z "},"":{"ha":1236,"x_min":83,"x_max":1175,"o":"m 751 -19 q 489 104 581 -19 q 397 449 397 227 q 449 739 397 617 q 593 926 501 861 q 806 992 685 992 q 1075 884 976 992 q 1175 540 1175 777 q 1141 320 1175 422 q 1048 142 1107 218 q 913 23 989 65 q 751 -19 836 -19 m 775 193 q 825 252 802 217 q 864 322 849 286 q 964 276 924 282 q 1015 289 1003 270 q 1006 345 1031 313 q 900 414 981 376 q 914 460 908 438 q 925 503 920 481 q 1028 488 992 488 q 1077 496 1063 487 q 1093 519 1090 505 q 1086 549 1096 535 q 1043 574 1077 563 q 940 592 1010 585 q 947 690 946 641 q 936 782 947 740 q 897 853 926 824 q 884 864 891 859 q 871 874 878 869 q 857 881 864 878 q 837 888 847 885 q 817 892 827 890 q 795 894 806 893 q 775 894 783 894 q 749 892 762 894 q 725 886 735 890 q 704 878 715 883 q 683 868 693 874 q 602 794 637 842 q 544 681 567 745 q 537 656 540 668 q 531 629 534 643 q 523 590 526 610 q 517 549 519 569 q 514 521 515 535 q 513 492 513 506 q 512 470 512 481 q 513 447 512 459 q 514 417 513 432 q 515 389 515 403 q 538 260 522 314 q 583 178 554 207 q 601 163 592 169 q 621 153 610 157 q 639 148 629 150 q 658 146 649 146 q 678 147 668 146 q 696 150 689 148 q 717 156 706 152 q 736 165 728 160 q 757 178 747 171 q 775 193 767 185 m 513 906 q 576 862 539 888 q 650 808 614 835 q 713 749 701 771 q 710 706 724 728 q 666 690 697 686 q 586 725 635 694 q 511 776 549 749 q 444 824 473 803 q 387 878 403 854 q 389 926 372 903 q 438 940 403 947 q 513 906 472 933 m 346 243 q 416 275 371 255 q 508 317 461 296 q 585 350 555 338 q 648 363 620 365 q 682 339 675 361 q 676 300 690 318 q 629 263 663 281 q 557 227 599 246 q 470 189 515 208 q 388 156 426 171 q 339 145 360 144 q 307 165 317 146 q 306 212 292 194 q 346 243 320 231 m 83 90 q 88 180 85 119 q 96 321 91 241 q 107 490 101 401 q 119 663 113 578 q 131 819 125 748 q 142 933 137 890 q 160 984 145 962 q 206 1006 174 1006 q 253 981 240 1006 q 267 919 267 956 q 259 851 267 892 q 243 772 252 810 q 228 713 233 733 q 226 675 222 688 q 245 657 231 663 q 285 649 260 651 q 316 643 303 647 q 336 635 328 640 q 349 620 344 629 q 353 599 353 612 q 348 577 353 585 q 336 563 344 568 q 319 553 328 557 q 300 547 310 550 q 263 532 276 540 q 244 513 250 523 q 239 493 239 503 q 249 469 239 481 q 296 457 258 457 q 407 455 368 457 q 459 442 445 452 q 474 407 474 431 q 459 369 474 381 q 402 353 444 357 q 279 350 360 350 q 228 340 245 350 q 211 294 211 329 q 214 239 211 275 q 218 162 216 202 q 221 90 221 122 q 204 40 221 63 q 149 17 188 17 q 97 39 110 17 q 83 90 83 61 m 162 574 q 141 580 148 574 q 133 597 133 585 q 139 617 133 611 q 156 622 144 622 q 175 616 167 622 q 183 597 183 610 q 177 580 183 585 q 162 574 172 574 m 188 814 q 208 802 201 814 q 214 775 214 790 q 207 746 214 760 q 186 732 201 732 q 176 731 181 732 q 165 731 171 731 q 145 742 152 731 q 139 769 139 754 q 147 800 139 785 q 169 814 154 814 q 178 814 174 814 q 188 814 183 814 m 146 99 q 146 99 146 99 q 146 99 146 99 q 146 99 146 99 q 146 99 146 99 q 146 99 146 99 q 146 99 146 99 q 146 99 146 99 q 146 99 146 99 m 192 939 q 212 927 206 939 q 218 900 218 915 q 211 870 218 885 q 190 856 205 856 q 180 856 185 856 q 169 856 175 856 q 150 867 156 856 q 143 894 143 879 q 151 925 143 910 q 174 939 158 939 q 183 939 178 939 q 192 939 188 939 z "},"":{"ha":861,"x_min":31,"x_max":847,"o":"m 211 142 q 222 174 211 160 q 267 210 232 189 q 374 268 301 231 q 463 318 428 297 q 522 363 499 340 q 579 433 557 395 q 611 518 601 472 q 621 622 621 565 q 598 766 621 710 q 538 855 575 823 q 457 900 501 887 q 371 913 413 913 q 263 893 310 913 q 186 834 215 873 q 158 736 158 794 q 194 635 158 672 q 286 599 230 599 q 357 625 327 599 q 388 697 388 651 q 377 729 388 719 q 349 739 367 739 q 323 730 331 739 q 310 710 315 722 q 298 691 306 699 q 272 682 290 682 q 239 695 249 682 q 229 728 229 708 q 264 797 229 767 q 353 828 299 828 q 487 770 442 828 q 532 631 532 713 q 502 502 532 556 q 424 418 473 449 q 385 512 404 490 q 342 526 366 534 q 322 491 325 522 q 339 386 319 460 q 314 383 326 384 q 289 382 301 382 q 251 385 269 382 q 217 396 233 389 q 242 495 241 464 q 222 533 243 526 q 180 521 201 541 q 135 439 159 501 q 63 550 85 482 q 40 697 40 618 q 65 824 40 767 q 136 923 90 881 q 246 988 183 965 q 386 1011 310 1011 q 404 1011 394 1011 q 422 1010 413 1010 q 446 1008 434 1009 q 469 1005 458 1006 q 489 1002 479 1004 q 507 998 498 1000 q 572 977 542 990 q 626 947 602 965 q 645 933 636 940 q 663 915 654 925 q 677 899 670 907 q 692 881 685 890 q 749 751 731 826 q 767 579 767 675 q 760 457 767 524 q 742 317 753 389 q 720 178 732 246 q 699 56 708 111 q 680 1 692 19 q 643 -17 668 -17 q 609 -1 622 -17 q 596 44 596 15 q 599 99 596 64 q 606 173 603 133 q 610 247 610 213 q 606 260 610 256 q 596 264 602 264 q 569 254 585 264 q 540 236 553 244 q 515 219 528 228 q 486 200 502 210 q 467 188 476 193 q 450 177 458 182 q 438 169 443 173 q 417 158 427 163 q 397 147 407 153 q 381 138 390 143 q 363 128 371 133 q 348 120 356 124 q 332 113 340 116 q 305 100 323 108 q 263 93 287 93 q 224 108 238 93 q 211 142 211 123 m 108 0 q 48 21 66 0 q 31 72 31 42 q 56 124 31 107 q 112 142 82 142 q 161 127 140 142 q 183 72 183 113 q 163 21 183 42 q 108 0 142 0 m 700 96 l 703 190 q 794 175 765 185 q 822 138 822 164 q 791 98 822 108 q 700 96 760 89 m 725 265 l 742 358 q 822 343 797 353 q 847 306 847 332 q 815 267 847 276 q 725 265 783 258 z "}," ":{"ha":313,"x_min":0,"x_max":0,"o":""},"!":{"ha":479,"x_min":18,"x_max":444,"o":"m 188 394 q 184 506 186 449 q 183 619 183 563 q 182 639 182 629 q 181 658 181 649 q 181 678 181 668 q 181 694 181 686 q 181 711 181 703 q 181 728 181 719 q 181 752 181 740 q 181 775 181 764 q 181 792 181 783 q 181 808 181 800 q 181 825 181 817 q 181 840 181 833 q 181 856 181 848 q 181 871 181 863 q 183 936 183 904 q 184 997 183 968 q 208 1055 185 1036 q 259 1074 231 1074 q 300 1063 281 1074 q 331 1031 319 1052 q 338 976 342 1009 q 324 850 333 922 q 306 700 316 779 q 285 540 296 621 q 263 386 274 460 q 250 361 260 369 q 226 352 239 352 q 201 363 213 352 q 188 394 190 373 m 217 -7 q 128 23 160 -7 q 95 110 95 53 q 128 202 95 170 q 215 235 160 235 q 307 205 272 235 q 341 126 341 174 q 308 29 341 65 q 217 -7 276 -7 m 147 879 q 242 865 194 873 q 334 849 290 857 q 392 836 372 842 q 419 820 413 830 q 424 794 426 811 q 410 761 422 771 q 379 751 399 751 q 330 753 359 750 q 269 759 301 756 q 206 766 238 763 q 148 774 174 770 q 45 798 73 784 q 23 846 18 813 q 41 877 26 869 q 82 885 56 885 q 147 879 108 884 m 183 636 q 246 641 217 640 q 316 642 274 642 q 413 637 386 642 q 442 597 440 632 q 417 555 444 563 q 313 542 390 547 q 243 539 284 540 q 176 539 202 538 q 100 548 122 541 q 77 585 79 555 q 100 622 75 612 q 183 636 124 632 z "},"?":{"ha":653,"x_min":49,"x_max":683,"o":"m 244 294 q 137 332 176 294 q 97 431 97 369 q 136 522 97 488 q 248 578 175 556 q 372 629 332 606 q 423 676 411 652 q 435 731 435 701 q 403 792 435 767 q 319 817 372 817 q 224 798 263 817 q 159 761 185 780 q 114 743 133 743 q 81 753 92 743 q 69 782 69 764 q 105 843 69 811 q 198 898 141 876 q 321 921 256 921 q 411 906 368 921 q 488 859 454 890 q 541 781 522 828 q 561 667 561 733 q 532 528 561 595 q 455 409 503 461 q 352 325 408 356 q 244 294 297 294 m 247 -26 q 163 5 197 -26 q 129 88 129 37 q 165 175 129 144 q 254 207 200 207 q 343 174 310 207 q 375 94 375 140 q 342 6 375 38 q 247 -26 309 -26 m 252 366 q 291 384 276 366 q 306 422 306 402 q 290 471 306 453 q 242 490 273 490 q 200 474 217 490 q 183 434 183 458 q 202 385 183 404 q 252 366 222 366 m 372 456 q 420 469 407 456 q 433 504 433 483 q 419 551 433 538 q 385 564 406 564 q 341 551 358 564 q 325 517 325 539 q 339 472 325 489 q 372 456 353 456 m 125 833 q 60 970 72 931 q 78 1024 49 1009 q 112 1024 96 1033 q 150 980 128 1015 q 206 878 172 946 l 125 833 m 142 806 l 218 853 q 224 835 223 843 q 218 819 224 827 q 194 801 211 811 q 170 791 180 793 q 155 792 161 788 q 142 806 148 795 m 388 885 l 292 892 q 306 987 299 953 q 325 1034 313 1022 q 361 1043 338 1047 q 390 1024 381 1040 q 398 975 399 1008 q 388 885 397 941 m 521 796 l 461 857 q 540 939 510 912 q 586 971 569 966 q 619 963 604 976 q 633 933 635 950 q 605 884 631 916 q 521 796 579 853 m 546 697 q 634 695 605 699 q 672 682 663 692 q 682 654 681 672 q 673 624 683 635 q 634 607 664 613 q 543 603 604 602 l 546 697 m 492 515 q 591 434 560 464 q 625 386 621 403 q 618 354 629 369 q 585 339 604 337 q 532 368 566 342 q 439 449 498 394 l 492 515 m 168 378 q 168 365 170 372 q 156 353 166 358 q 139 352 145 350 q 129 360 133 355 q 125 368 127 364 q 121 375 123 373 q 119 384 119 381 q 122 391 119 388 q 131 397 125 394 q 143 400 138 400 q 152 399 149 401 q 158 394 156 397 q 164 387 162 390 q 168 378 166 384 z "}}}
